{
 "asset": {
  "version": "2.0",
  "generator": "gen_aerial_fixture.py"
 },
 "scene": 0,
 "scenes": [
  {
   "nodes": [
    0,
    1
   ]
  }
 ],
 "nodes": [
  {
   "name": "aerial_ridges",
   "mesh": 0
  },
  {
   "name": "aerial_ground",
   "mesh": 1
  }
 ],
 "meshes": [
  {
   "name": "aerial_ridges",
   "primitives": [
    {
     "attributes": {
      "POSITION": 0,
      "NORMAL": 1
     },
     "indices": 2,
     "material": 0
    }
   ]
  },
  {
   "name": "aerial_ground",
   "primitives": [
    {
     "attributes": {
      "POSITION": 0,
      "NORMAL": 1
     },
     "indices": 3,
     "material": 1
    }
   ]
  }
 ],
 "materials": [
  {
   "name": "aerial_rock",
   "pbrMetallicRoughness": {
    "baseColorFactor": [
     0.3,
     0.29,
     0.27,
     1.0
    ],
    "metallicFactor": 0.0,
    "roughnessFactor": 0.95
   }
  },
  {
   "name": "aerial_ground",
   "pbrMetallicRoughness": {
    "baseColorFactor": [
     0.26,
     0.25,
     0.23,
     1.0
    ],
    "metallicFactor": 0.0,
    "roughnessFactor": 0.95
   }
  }
 ],
 "accessors": [
  {
   "bufferView": 0,
   "componentType": 5126,
   "count": 4612,
   "type": "VEC3",
   "min": [
    -110000.0,
    0.0,
    -130000.0
   ],
   "max": [
    110000.0,
    14094.962863089126,
    500.0
   ]
  },
  {
   "bufferView": 1,
   "componentType": 5126,
   "count": 4612,
   "type": "VEC3"
  },
  {
   "bufferView": 2,
   "componentType": 5125,
   "count": 6912,
   "type": "SCALAR"
  },
  {
   "bufferView": 2,
   "byteOffset": 27648,
   "componentType": 5125,
   "count": 6,
   "type": "SCALAR"
  }
 ],
 "bufferViews": [
  {
   "buffer": 0,
   "byteOffset": 0,
   "byteLength": 55344,
   "target": 34962
  },
  {
   "buffer": 0,
   "byteOffset": 55344,
   "byteLength": 55344,
   "target": 34962
  },
  {
   "buffer": 0,
   "byteOffset": 110688,
   "byteLength": 27672,
   "target": 34963
  }
 ],
 "buffers": [
  {
   "uri": "data:application/octet-stream;base64,",
   "byteLength": 138360
  }
 ]
}
