{
 "asset": {
  "version": "2.0",
  "generator": "gen_beach_fixture.py"
 },
 "scene": 0,
 "scenes": [
  {
   "nodes": [
    0,
    1
   ]
  }
 ],
 "nodes": [
  {
   "name": "beach_plate",
   "mesh": 0
  },
  {
   "name": "beach_dome",
   "mesh": 1
  }
 ],
 "meshes": [
  {
   "name": "beach_plate",
   "primitives": [
    {
     "attributes": {
      "POSITION": 3,
      "NORMAL": 4
     },
     "indices": 5,
     "material": 0
    }
   ]
  },
  {
   "name": "beach_dome",
   "primitives": [
    {
     "attributes": {
      "POSITION": 0,
      "NORMAL": 1
     },
     "indices": 2,
     "material": 1
    }
   ]
  }
 ],
 "materials": [
  {
   "name": "plate",
   "doubleSided": true,
   "pbrMetallicRoughness": {
    "baseColorFactor": [
     0.0,
     0.0,
     0.0,
     1.0
    ],
    "metallicFactor": 0.0,
    "roughnessFactor": 1.0
   },
   "emissiveFactor": [
    0.3,
    0.31,
    0.3
   ]
  },
  {
   "name": "dome",
   "doubleSided": true,
   "pbrMetallicRoughness": {
    "baseColorFactor": [
     0.0,
     0.0,
     0.0,
     1.0
    ],
    "metallicFactor": 0.0,
    "roughnessFactor": 1.0
   },
   "emissiveFactor": [
    0.62,
    0.56,
    0.42
   ]
  }
 ],
 "accessors": [
  {
   "bufferView": 0,
   "componentType": 5126,
   "count": 12289,
   "type": "VEC3",
   "min": [
    -37.2,
    -9.0,
    -37.2
   ],
   "max": [
    37.2,
    0.6,
    37.2
   ]
  },
  {
   "bufferView": 1,
   "componentType": 5126,
   "count": 12289,
   "type": "VEC3"
  },
  {
   "bufferView": 2,
   "componentType": 5125,
   "count": 73344,
   "type": "SCALAR"
  },
  {
   "bufferView": 3,
   "componentType": 5126,
   "count": 4,
   "type": "VEC3",
   "min": [
    -220.0,
    -9.0,
    -220.0
   ],
   "max": [
    220.0,
    -9.0,
    220.0
   ]
  },
  {
   "bufferView": 4,
   "componentType": 5126,
   "count": 4,
   "type": "VEC3"
  },
  {
   "bufferView": 5,
   "componentType": 5123,
   "count": 6,
   "type": "SCALAR"
  }
 ],
 "bufferViews": [
  {
   "buffer": 0,
   "byteOffset": 0,
   "byteLength": 147468,
   "target": 34962
  },
  {
   "buffer": 0,
   "byteOffset": 147468,
   "byteLength": 147468,
   "target": 34962
  },
  {
   "buffer": 0,
   "byteOffset": 294936,
   "byteLength": 293376,
   "target": 34963
  },
  {
   "buffer": 0,
   "byteOffset": 588312,
   "byteLength": 48,
   "target": 34962
  },
  {
   "buffer": 0,
   "byteOffset": 588360,
   "byteLength": 48,
   "target": 34962
  },
  {
   "buffer": 0,
   "byteOffset": 588408,
   "byteLength": 12,
   "target": 34963
  }
 ],
 "buffers": [
  {
   "uri": "data:application/octet-stream;base64,",
   "byteLength": 588420
  }
 ]
}
