{
 "asset": {
  "version": "2.0",
  "generator": "gen_catcher_transparency_fixture.py"
 },
 "scene": 0,
 "scenes": [
  {
   "nodes": [
    0,
    1,
    2
   ]
  }
 ],
 "nodes": [
  {
   "name": "catcher_backdrop",
   "mesh": 0
  },
  {
   "name": "catcher_caster",
   "mesh": 1
  },
  {
   "name": "catcher_panel",
   "mesh": 2
  }
 ],
 "meshes": [
  {
   "name": "catcher_backdrop",
   "primitives": [
    {
     "attributes": {
      "POSITION": 0,
      "NORMAL": 1,
      "TEXCOORD_0": 2
     },
     "indices": 3,
     "material": 0
    }
   ]
  },
  {
   "name": "catcher_caster",
   "primitives": [
    {
     "attributes": {
      "POSITION": 0,
      "NORMAL": 1,
      "TEXCOORD_0": 2
     },
     "indices": 4,
     "material": 1
    }
   ]
  },
  {
   "name": "catcher_panel",
   "primitives": [
    {
     "attributes": {
      "POSITION": 0,
      "NORMAL": 1,
      "TEXCOORD_0": 2
     },
     "indices": 5,
     "material": 2
    }
   ]
  }
 ],
 "materials": [
  {
   "name": "catcher_backdrop",
   "pbrMetallicRoughness": {
    "baseColorFactor": [
     0.55,
     0.55,
     0.55,
     1.0
    ],
    "metallicFactor": 0.0,
    "roughnessFactor": 1.0
   }
  },
  {
   "name": "catcher_caster",
   "pbrMetallicRoughness": {
    "baseColorFactor": [
     0.3,
     0.3,
     0.3,
     1.0
    ],
    "metallicFactor": 0.0,
    "roughnessFactor": 1.0
   }
  },
  {
   "name": "catcher_panel",
   "alphaMode": "BLEND",
   "doubleSided": true,
   "pbrMetallicRoughness": {
    "baseColorFactor": [
     0.1,
     0.75,
     0.9,
     0.5
    ],
    "metallicFactor": 0.0,
    "roughnessFactor": 0.6
   }
  }
 ],
 "accessors": [
  {
   "bufferView": 0,
   "componentType": 5126,
   "count": 32,
   "type": "VEC3",
   "min": [
    -10.0,
    -8.0,
    -5.0
   ],
   "max": [
    10.0,
    8.0,
    1.6
   ]
  },
  {
   "bufferView": 1,
   "componentType": 5126,
   "count": 32,
   "type": "VEC3"
  },
  {
   "bufferView": 2,
   "componentType": 5126,
   "count": 32,
   "type": "VEC2"
  },
  {
   "bufferView": 3,
   "byteOffset": 0,
   "componentType": 5125,
   "count": 6,
   "type": "SCALAR"
  },
  {
   "bufferView": 3,
   "byteOffset": 24,
   "componentType": 5125,
   "count": 36,
   "type": "SCALAR"
  },
  {
   "bufferView": 3,
   "byteOffset": 168,
   "componentType": 5125,
   "count": 6,
   "type": "SCALAR"
  }
 ],
 "bufferViews": [
  {
   "buffer": 0,
   "byteOffset": 0,
   "byteLength": 384,
   "target": 34962
  },
  {
   "buffer": 0,
   "byteOffset": 384,
   "byteLength": 384,
   "target": 34962
  },
  {
   "buffer": 0,
   "byteOffset": 768,
   "byteLength": 256,
   "target": 34962
  },
  {
   "buffer": 0,
   "byteOffset": 1024,
   "byteLength": 192,
   "target": 34963
  }
 ],
 "buffers": [
  {
   "uri": "data:application/octet-stream;base64,",
   "byteLength": 1216
  }
 ]
}
