{
 "asset": {
  "version": "2.0",
  "generator": "gen_conifer_fixture.py"
 },
 "materials": [
  {
   "name": "ConiferGround",
   "pbrMetallicRoughness": {
    "baseColorFactor": [
     0.22,
     0.2,
     0.17,
     1.0
    ],
    "metallicFactor": 0.0,
    "roughnessFactor": 0.95
   }
  }
 ],
 "scene": 0,
 "scenes": [
  {
   "nodes": [
    0
   ]
  }
 ],
 "nodes": [
  {
   "name": "Ground",
   "mesh": 0
  }
 ],
 "meshes": [
  {
   "name": "GroundQuad",
   "primitives": [
    {
     "attributes": {
      "POSITION": 0,
      "NORMAL": 1
     },
     "indices": 2,
     "material": 0
    }
   ]
  }
 ],
 "accessors": [
  {
   "bufferView": 0,
   "componentType": 5126,
   "count": 4,
   "type": "VEC3",
   "min": [
    -60.0,
    0.0,
    -60.0
   ],
   "max": [
    60.0,
    0.0,
    60.0
   ]
  },
  {
   "bufferView": 1,
   "componentType": 5126,
   "count": 4,
   "type": "VEC3"
  },
  {
   "bufferView": 2,
   "componentType": 5125,
   "count": 6,
   "type": "SCALAR"
  }
 ],
 "bufferViews": [
  {
   "buffer": 0,
   "byteOffset": 0,
   "byteLength": 48,
   "target": 34962
  },
  {
   "buffer": 0,
   "byteOffset": 48,
   "byteLength": 48,
   "target": 34962
  },
  {
   "buffer": 0,
   "byteOffset": 96,
   "byteLength": 24,
   "target": 34963
  }
 ],
 "buffers": [
  {
   "byteLength": 120,
   "uri": "data:application/octet-stream;base64,"
  }
 ]
}
