{
 "asset": {
  "version": "2.0",
  "generator": "gen_fire_fixture.py"
 },
 "scene": 0,
 "scenes": [
  {
   "nodes": [
    0,
    1,
    2,
    3,
    4,
    5,
    6,
    7,
    8,
    9,
    10,
    11,
    12,
    13,
    14,
    15
   ]
  }
 ],
 "nodes": [
  {
   "name": "floor",
   "mesh": 0,
   "translation": [
    0.0,
    -0.05,
    0.5
   ],
   "scale": [
    6.0,
    0.1,
    5.0
   ]
  },
  {
   "name": "ceiling",
   "mesh": 1,
   "translation": [
    0.0,
    3.05,
    0.5
   ],
   "scale": [
    6.0,
    0.10000000000000009,
    5.0
   ]
  },
  {
   "name": "wall_back",
   "mesh": 2,
   "translation": [
    0.0,
    1.5,
    -1.85
   ],
   "scale": [
    6.0,
    3.0,
    0.30000000000000004
   ]
  },
  {
   "name": "wall_left",
   "mesh": 1,
   "translation": [
    -3.1,
    1.5,
    0.5
   ],
   "scale": [
    0.20000000000000018,
    3.0,
    5.0
   ]
  },
  {
   "name": "wall_right",
   "mesh": 1,
   "translation": [
    3.1,
    1.5,
    0.5
   ],
   "scale": [
    0.20000000000000018,
    3.0,
    5.0
   ]
  },
  {
   "name": "hearthstone",
   "mesh": 2,
   "translation": [
    0.0,
    0.05,
    -1.2
   ],
   "scale": [
    2.2,
    0.1,
    1.0
   ]
  },
  {
   "name": "mantel",
   "mesh": 2,
   "translation": [
    0.0,
    1.1600000000000001,
    -1.0
   ],
   "scale": [
    2.3,
    0.07999999999999985,
    0.29999999999999993
   ]
  },
  {
   "name": "candle",
   "mesh": 3,
   "translation": [
    0.7,
    1.29,
    -1.0
   ],
   "scale": [
    0.039999999999999925,
    0.17999999999999994,
    0.040000000000000036
   ]
  },
  {
   "name": "jamb_left",
   "mesh": 2,
   "translation": [
    -0.75,
    0.55,
    -1.4
   ],
   "scale": [
    0.5,
    0.9,
    0.5999999999999999
   ]
  },
  {
   "name": "jamb_right",
   "mesh": 2,
   "translation": [
    0.75,
    0.55,
    -1.4
   ],
   "scale": [
    0.5,
    0.9,
    0.5999999999999999
   ]
  },
  {
   "name": "breast_left",
   "mesh": 2,
   "translation": [
    -0.625,
    2.0,
    -1.4
   ],
   "scale": [
    0.75,
    2.0,
    0.5999999999999999
   ]
  },
  {
   "name": "breast_right",
   "mesh": 2,
   "translation": [
    0.625,
    2.0,
    -1.4
   ],
   "scale": [
    0.75,
    2.0,
    0.5999999999999999
   ]
  },
  {
   "name": "lintel",
   "mesh": 2,
   "translation": [
    0.0,
    2.0,
    -1.2000000000000002
   ],
   "scale": [
    0.5,
    2.0,
    0.19999999999999996
   ]
  },
  {
   "name": "log_back",
   "mesh": 4,
   "translation": [
    0.0,
    0.18000000000000002,
    -1.46
   ],
   "scale": [
    0.7,
    0.12000000000000001,
    0.1200000000000001
   ]
  },
  {
   "name": "log_front",
   "mesh": 4,
   "translation": [
    0.0,
    0.18000000000000002,
    -1.3
   ],
   "scale": [
    0.6,
    0.12000000000000001,
    0.1200000000000001
   ]
  },
  {
   "name": "firebox_back",
   "mesh": 5,
   "translation": [
    0.0,
    0.55,
    -1.6949999999999998
   ],
   "scale": [
    1.0,
    0.9,
    0.010000000000000009
   ]
  }
 ],
 "meshes": [
  {
   "name": "fire_floor",
   "primitives": [
    {
     "attributes": {
      "POSITION": 0,
      "NORMAL": 1
     },
     "indices": 2,
     "material": 0
    }
   ]
  },
  {
   "name": "fire_plaster",
   "primitives": [
    {
     "attributes": {
      "POSITION": 0,
      "NORMAL": 1
     },
     "indices": 2,
     "material": 1
    }
   ]
  },
  {
   "name": "fire_stone",
   "primitives": [
    {
     "attributes": {
      "POSITION": 0,
      "NORMAL": 1
     },
     "indices": 2,
     "material": 2
    }
   ]
  },
  {
   "name": "fire_wax",
   "primitives": [
    {
     "attributes": {
      "POSITION": 0,
      "NORMAL": 1
     },
     "indices": 2,
     "material": 3
    }
   ]
  },
  {
   "name": "fire_log",
   "primitives": [
    {
     "attributes": {
      "POSITION": 0,
      "NORMAL": 1
     },
     "indices": 2,
     "material": 4
    }
   ]
  },
  {
   "name": "fire_soot",
   "primitives": [
    {
     "attributes": {
      "POSITION": 0,
      "NORMAL": 1
     },
     "indices": 2,
     "material": 5
    }
   ]
  }
 ],
 "materials": [
  {
   "name": "fire_floor",
   "pbrMetallicRoughness": {
    "baseColorFactor": [
     0.28,
     0.17,
     0.1,
     1.0
    ],
    "metallicFactor": 0.0,
    "roughnessFactor": 0.6
   }
  },
  {
   "name": "fire_plaster",
   "pbrMetallicRoughness": {
    "baseColorFactor": [
     0.6,
     0.57,
     0.52,
     1.0
    ],
    "metallicFactor": 0.0,
    "roughnessFactor": 0.85
   }
  },
  {
   "name": "fire_stone",
   "pbrMetallicRoughness": {
    "baseColorFactor": [
     0.32,
     0.3,
     0.28,
     1.0
    ],
    "metallicFactor": 0.0,
    "roughnessFactor": 0.9
   }
  },
  {
   "name": "fire_wax",
   "pbrMetallicRoughness": {
    "baseColorFactor": [
     0.85,
     0.8,
     0.7,
     1.0
    ],
    "metallicFactor": 0.0,
    "roughnessFactor": 0.5
   }
  },
  {
   "name": "fire_log",
   "pbrMetallicRoughness": {
    "baseColorFactor": [
     0.12,
     0.08,
     0.05,
     1.0
    ],
    "metallicFactor": 0.0,
    "roughnessFactor": 0.9
   }
  },
  {
   "name": "fire_soot",
   "pbrMetallicRoughness": {
    "baseColorFactor": [
     0.04,
     0.04,
     0.04,
     1.0
    ],
    "metallicFactor": 0.0,
    "roughnessFactor": 0.95
   }
  }
 ],
 "accessors": [
  {
   "bufferView": 0,
   "componentType": 5126,
   "count": 24,
   "type": "VEC3",
   "min": [
    -0.5,
    -0.5,
    -0.5
   ],
   "max": [
    0.5,
    0.5,
    0.5
   ]
  },
  {
   "bufferView": 1,
   "componentType": 5126,
   "count": 24,
   "type": "VEC3"
  },
  {
   "bufferView": 2,
   "componentType": 5123,
   "count": 36,
   "type": "SCALAR"
  }
 ],
 "bufferViews": [
  {
   "buffer": 0,
   "byteOffset": 0,
   "byteLength": 288,
   "target": 34962
  },
  {
   "buffer": 0,
   "byteOffset": 288,
   "byteLength": 288,
   "target": 34962
  },
  {
   "buffer": 0,
   "byteOffset": 576,
   "byteLength": 72,
   "target": 34963
  }
 ],
 "buffers": [
  {
   "uri": "data:application/octet-stream;base64,",
   "byteLength": 648
  }
 ]
}
