{
 "asset": {
  "version": "2.0",
  "generator": "gen_flare_fixture.py"
 },
 "extensionsUsed": [
  "KHR_materials_emissive_strength"
 ],
 "materials": [
  {
   "name": "backdrop",
   "pbrMetallicRoughness": {
    "baseColorFactor": [
     0.0,
     0.0,
     0.0,
     1.0
    ],
    "metallicFactor": 0.0,
    "roughnessFactor": 1.0
   }
  },
  {
   "name": "emitter",
   "pbrMetallicRoughness": {
    "baseColorFactor": [
     0.0,
     0.0,
     0.0,
     1.0
    ],
    "metallicFactor": 0.0,
    "roughnessFactor": 1.0
   },
   "emissiveFactor": [
    1.0,
    0.96,
    0.9
   ],
   "extensions": {
    "KHR_materials_emissive_strength": {
     "emissiveStrength": 60.0
    }
   }
  },
  {
   "name": "corner_mark",
   "pbrMetallicRoughness": {
    "baseColorFactor": [
     0.0,
     0.0,
     0.0,
     1.0
    ],
    "metallicFactor": 0.0,
    "roughnessFactor": 1.0
   },
   "emissiveFactor": [
    1.0,
    0.96,
    0.9
   ],
   "extensions": {
    "KHR_materials_emissive_strength": {
     "emissiveStrength": 0.6
    }
   }
  },
  {
   "name": "inner_mark",
   "pbrMetallicRoughness": {
    "baseColorFactor": [
     0.0,
     0.0,
     0.0,
     1.0
    ],
    "metallicFactor": 0.0,
    "roughnessFactor": 1.0
   },
   "emissiveFactor": [
    1.0,
    0.96,
    0.9
   ],
   "extensions": {
    "KHR_materials_emissive_strength": {
     "emissiveStrength": 0.6
    }
   }
  }
 ],
 "meshes": [
  {
   "name": "flare_scene",
   "primitives": [
    {
     "attributes": {
      "POSITION": 0,
      "NORMAL": 1
     },
     "indices": 2,
     "material": 0
    },
    {
     "attributes": {
      "POSITION": 0,
      "NORMAL": 1
     },
     "indices": 3,
     "material": 1
    },
    {
     "attributes": {
      "POSITION": 0,
      "NORMAL": 1
     },
     "indices": 4,
     "material": 2
    },
    {
     "attributes": {
      "POSITION": 0,
      "NORMAL": 1
     },
     "indices": 5,
     "material": 3
    }
   ]
  }
 ],
 "nodes": [
  {
   "name": "flare_scene",
   "mesh": 0
  }
 ],
 "scenes": [
  {
   "nodes": [
    0
   ]
  }
 ],
 "scene": 0,
 "accessors": [
  {
   "bufferView": 0,
   "componentType": 5126,
   "count": 16,
   "type": "VEC3",
   "min": [
    -6.0,
    -4.0,
    -0.5
   ],
   "max": [
    6.0,
    4.0,
    0.0
   ]
  },
  {
   "bufferView": 1,
   "componentType": 5126,
   "count": 16,
   "type": "VEC3"
  },
  {
   "bufferView": 2,
   "byteOffset": 0,
   "componentType": 5123,
   "count": 6,
   "type": "SCALAR"
  },
  {
   "bufferView": 2,
   "byteOffset": 12,
   "componentType": 5123,
   "count": 6,
   "type": "SCALAR"
  },
  {
   "bufferView": 2,
   "byteOffset": 24,
   "componentType": 5123,
   "count": 6,
   "type": "SCALAR"
  },
  {
   "bufferView": 2,
   "byteOffset": 36,
   "componentType": 5123,
   "count": 6,
   "type": "SCALAR"
  }
 ],
 "bufferViews": [
  {
   "buffer": 0,
   "byteOffset": 0,
   "byteLength": 192
  },
  {
   "buffer": 0,
   "byteOffset": 192,
   "byteLength": 192
  },
  {
   "buffer": 0,
   "byteOffset": 384,
   "byteLength": 48,
   "target": 34963
  }
 ],
 "buffers": [
  {
   "byteLength": 432,
   "uri": "data:application/octet-stream;base64,"
  }
 ]
}
