{
 "asset": {
  "version": "2.0",
  "generator": "gen_light_import_fixture.py"
 },
 "extensionsUsed": [
  "KHR_lights_punctual"
 ],
 "extensions": {
  "KHR_lights_punctual": {
   "lights": [
    {
     "name": "hot_sun",
     "type": "directional",
     "color": [
      1.0,
      1.0,
      1.0
     ],
     "intensity": 2049.0
    }
   ]
  }
 },
 "scene": 0,
 "scenes": [
  {
   "nodes": [
    0,
    1
   ]
  }
 ],
 "nodes": [
  {
   "name": "red_cube",
   "mesh": 0,
   "translation": [
    0.0,
    0.5,
    0.0
   ]
  },
  {
   "name": "hot_sun",
   "rotation": [
    -0.4451162493639798,
    0.2503778902672386,
    0.0,
    0.8597571963161867
   ],
   "extensions": {
    "KHR_lights_punctual": {
     "light": 0
    }
   }
  }
 ],
 "meshes": [
  {
   "name": "red_cube",
   "primitives": [
    {
     "attributes": {
      "POSITION": 0,
      "NORMAL": 1
     },
     "indices": 2,
     "material": 0
    }
   ]
  }
 ],
 "materials": [
  {
   "name": "light_import_red",
   "pbrMetallicRoughness": {
    "baseColorFactor": [
     0.8,
     0.05,
     0.05,
     1.0
    ],
    "metallicFactor": 0.0,
    "roughnessFactor": 0.7
   }
  }
 ],
 "accessors": [
  {
   "bufferView": 0,
   "componentType": 5126,
   "count": 24,
   "type": "VEC3",
   "min": [
    -0.5,
    -0.5,
    -0.5
   ],
   "max": [
    0.5,
    0.5,
    0.5
   ]
  },
  {
   "bufferView": 1,
   "componentType": 5126,
   "count": 24,
   "type": "VEC3"
  },
  {
   "bufferView": 2,
   "componentType": 5123,
   "count": 36,
   "type": "SCALAR"
  }
 ],
 "bufferViews": [
  {
   "buffer": 0,
   "byteOffset": 0,
   "byteLength": 288,
   "target": 34962
  },
  {
   "buffer": 0,
   "byteOffset": 288,
   "byteLength": 288,
   "target": 34962
  },
  {
   "buffer": 0,
   "byteOffset": 576,
   "byteLength": 72,
   "target": 34963
  }
 ],
 "buffers": [
  {
   "uri": "data:application/octet-stream;base64,",
   "byteLength": 648
  }
 ]
}
