{
 "asset": {
  "version": "2.0",
  "generator": "gen_local_exposure_fixture.py"
 },
 "extensionsUsed": [
  "KHR_materials_emissive_strength"
 ],
 "scene": 0,
 "scenes": [
  {
   "nodes": [
    0,
    1
   ]
  }
 ],
 "nodes": [
  {
   "name": "wall",
   "mesh": 0
  },
  {
   "name": "window",
   "mesh": 1
  }
 ],
 "meshes": [
  {
   "name": "wall",
   "primitives": [
    {
     "attributes": {
      "POSITION": 0,
      "NORMAL": 2,
      "TEXCOORD_0": 3
     },
     "indices": 4,
     "material": 0
    }
   ]
  },
  {
   "name": "window",
   "primitives": [
    {
     "attributes": {
      "POSITION": 1,
      "NORMAL": 2,
      "TEXCOORD_0": 3
     },
     "indices": 4,
     "material": 1
    }
   ]
  }
 ],
 "materials": [
  {
   "name": "le_wall",
   "pbrMetallicRoughness": {
    "baseColorFactor": [
     0.5,
     0.5,
     0.5,
     1.0
    ],
    "metallicFactor": 0.0,
    "roughnessFactor": 1.0
   }
  },
  {
   "name": "le_window",
   "pbrMetallicRoughness": {
    "baseColorFactor": [
     0.0,
     0.0,
     0.0,
     1.0
    ],
    "metallicFactor": 0.0,
    "roughnessFactor": 1.0
   },
   "emissiveFactor": [
    1.0,
    1.0,
    1.0
   ],
   "extensions": {
    "KHR_materials_emissive_strength": {
     "emissiveStrength": 32.0
    }
   }
  }
 ],
 "accessors": [
  {
   "bufferView": 0,
   "componentType": 5126,
   "count": 4,
   "type": "VEC3",
   "min": [
    -4.0,
    -3.0,
    0.0
   ],
   "max": [
    4.0,
    3.0,
    0.0
   ]
  },
  {
   "bufferView": 1,
   "componentType": 5126,
   "count": 4,
   "type": "VEC3",
   "min": [
    -1.0,
    -0.6,
    0.01
   ],
   "max": [
    1.0,
    0.6,
    0.01
   ]
  },
  {
   "bufferView": 2,
   "componentType": 5126,
   "count": 4,
   "type": "VEC3"
  },
  {
   "bufferView": 3,
   "componentType": 5126,
   "count": 4,
   "type": "VEC2"
  },
  {
   "bufferView": 4,
   "componentType": 5123,
   "count": 6,
   "type": "SCALAR"
  }
 ],
 "bufferViews": [
  {
   "buffer": 0,
   "byteOffset": 0,
   "byteLength": 48,
   "target": 34962
  },
  {
   "buffer": 0,
   "byteOffset": 48,
   "byteLength": 48,
   "target": 34962
  },
  {
   "buffer": 0,
   "byteOffset": 96,
   "byteLength": 48,
   "target": 34962
  },
  {
   "buffer": 0,
   "byteOffset": 144,
   "byteLength": 32,
   "target": 34962
  },
  {
   "buffer": 0,
   "byteOffset": 176,
   "byteLength": 12,
   "target": 34963
  }
 ],
 "buffers": [
  {
   "uri": "data:application/octet-stream;base64,",
   "byteLength": 188
  }
 ]
}
