{
 "asset": {
  "version": "2.0",
  "generator": "gen_occlusion_fixture.py"
 },
 "scene": 0,
 "scenes": [
  {
   "nodes": [
    0,
    1,
    2,
    3,
    4,
    5,
    6,
    7,
    8,
    9,
    10,
    11,
    12,
    13,
    14,
    15,
    16,
    17,
    18,
    19,
    20,
    21,
    22,
    23,
    24,
    25,
    26,
    27
   ]
  }
 ],
 "nodes": [
  {
   "name": "occl_inst_0_0",
   "mesh": 0,
   "translation": [
    -8.4,
    1.2,
    -6.0
   ],
   "scale": [
    0.5,
    0.5,
    1.0
   ]
  },
  {
   "name": "occl_inst_0_1",
   "mesh": 0,
   "translation": [
    -8.4,
    2.2,
    -6.0
   ],
   "scale": [
    0.5,
    0.5,
    1.0
   ]
  },
  {
   "name": "occl_inst_0_2",
   "mesh": 0,
   "translation": [
    -8.4,
    3.2,
    -6.0
   ],
   "scale": [
    0.5,
    0.5,
    1.0
   ]
  },
  {
   "name": "occl_inst_1_0",
   "mesh": 0,
   "translation": [
    -6.0,
    1.2,
    -6.0
   ],
   "scale": [
    0.5,
    0.5,
    1.0
   ]
  },
  {
   "name": "occl_inst_1_1",
   "mesh": 0,
   "translation": [
    -6.0,
    2.2,
    -6.0
   ],
   "scale": [
    0.5,
    0.5,
    1.0
   ]
  },
  {
   "name": "occl_inst_1_2",
   "mesh": 0,
   "translation": [
    -6.0,
    3.2,
    -6.0
   ],
   "scale": [
    0.5,
    0.5,
    1.0
   ]
  },
  {
   "name": "occl_inst_2_0",
   "mesh": 0,
   "translation": [
    -3.6000000000000005,
    1.2,
    -6.0
   ],
   "scale": [
    0.5,
    0.5,
    1.0
   ]
  },
  {
   "name": "occl_inst_2_1",
   "mesh": 0,
   "translation": [
    -3.6000000000000005,
    2.2,
    -6.0
   ],
   "scale": [
    0.5,
    0.5,
    1.0
   ]
  },
  {
   "name": "occl_inst_2_2",
   "mesh": 0,
   "translation": [
    -3.6000000000000005,
    3.2,
    -6.0
   ],
   "scale": [
    0.5,
    0.5,
    1.0
   ]
  },
  {
   "name": "occl_inst_3_0",
   "mesh": 0,
   "translation": [
    -1.200000000000001,
    1.2,
    -6.0
   ],
   "scale": [
    0.5,
    0.5,
    1.0
   ]
  },
  {
   "name": "occl_inst_3_1",
   "mesh": 0,
   "translation": [
    -1.200000000000001,
    2.2,
    -6.0
   ],
   "scale": [
    0.5,
    0.5,
    1.0
   ]
  },
  {
   "name": "occl_inst_3_2",
   "mesh": 0,
   "translation": [
    -1.200000000000001,
    3.2,
    -6.0
   ],
   "scale": [
    0.5,
    0.5,
    1.0
   ]
  },
  {
   "name": "occl_inst_4_0",
   "mesh": 0,
   "translation": [
    1.1999999999999993,
    1.2,
    -6.0
   ],
   "scale": [
    0.5,
    0.5,
    1.0
   ]
  },
  {
   "name": "occl_inst_4_1",
   "mesh": 0,
   "translation": [
    1.1999999999999993,
    2.2,
    -6.0
   ],
   "scale": [
    0.5,
    0.5,
    1.0
   ]
  },
  {
   "name": "occl_inst_4_2",
   "mesh": 0,
   "translation": [
    1.1999999999999993,
    3.2,
    -6.0
   ],
   "scale": [
    0.5,
    0.5,
    1.0
   ]
  },
  {
   "name": "occl_inst_5_0",
   "mesh": 0,
   "translation": [
    3.5999999999999996,
    1.2,
    -6.0
   ],
   "scale": [
    0.5,
    0.5,
    1.0
   ]
  },
  {
   "name": "occl_inst_5_1",
   "mesh": 0,
   "translation": [
    3.5999999999999996,
    2.2,
    -6.0
   ],
   "scale": [
    0.5,
    0.5,
    1.0
   ]
  },
  {
   "name": "occl_inst_5_2",
   "mesh": 0,
   "translation": [
    3.5999999999999996,
    3.2,
    -6.0
   ],
   "scale": [
    0.5,
    0.5,
    1.0
   ]
  },
  {
   "name": "occl_inst_6_0",
   "mesh": 0,
   "translation": [
    5.999999999999998,
    1.2,
    -6.0
   ],
   "scale": [
    0.5,
    0.5,
    1.0
   ]
  },
  {
   "name": "occl_inst_6_1",
   "mesh": 0,
   "translation": [
    5.999999999999998,
    2.2,
    -6.0
   ],
   "scale": [
    0.5,
    0.5,
    1.0
   ]
  },
  {
   "name": "occl_inst_6_2",
   "mesh": 0,
   "translation": [
    5.999999999999998,
    3.2,
    -6.0
   ],
   "scale": [
    0.5,
    0.5,
    1.0
   ]
  },
  {
   "name": "occl_inst_7_0",
   "mesh": 0,
   "translation": [
    8.4,
    1.2,
    -6.0
   ],
   "scale": [
    0.5,
    0.5,
    1.0
   ]
  },
  {
   "name": "occl_inst_7_1",
   "mesh": 0,
   "translation": [
    8.4,
    2.2,
    -6.0
   ],
   "scale": [
    0.5,
    0.5,
    1.0
   ]
  },
  {
   "name": "occl_inst_7_2",
   "mesh": 0,
   "translation": [
    8.4,
    3.2,
    -6.0
   ],
   "scale": [
    0.5,
    0.5,
    1.0
   ]
  },
  {
   "name": "occl_pillar_0",
   "mesh": 1,
   "translation": [
    -6.533333333333334,
    2.2,
    -2.15
   ]
  },
  {
   "name": "occl_pillar_3",
   "mesh": 2,
   "translation": [
    -0.9333333333333341,
    2.2,
    -2.15
   ]
  },
  {
   "name": "occl_pillar_6",
   "mesh": 3,
   "translation": [
    4.666666666666665,
    2.2,
    -2.15
   ]
  },
  {
   "name": "occl_floor",
   "mesh": 4,
   "translation": [
    0.0,
    0.0,
    0.0
   ],
   "scale": [
    11.4,
    13.0,
    1.0
   ],
   "rotation": [
    -0.7071067811865476,
    0.0,
    0.0,
    0.7071067811865476
   ]
  }
 ],
 "meshes": [
  {
   "name": "occl_inst",
   "primitives": [
    {
     "attributes": {
      "POSITION": 0,
      "NORMAL": 1
     },
     "indices": 2,
     "material": 1
    }
   ]
  },
  {
   "name": "occl_pillar_0",
   "primitives": [
    {
     "attributes": {
      "POSITION": 3,
      "NORMAL": 4
     },
     "indices": 5,
     "material": 0
    }
   ]
  },
  {
   "name": "occl_pillar_3",
   "primitives": [
    {
     "attributes": {
      "POSITION": 6,
      "NORMAL": 7
     },
     "indices": 8,
     "material": 0
    }
   ]
  },
  {
   "name": "occl_pillar_6",
   "primitives": [
    {
     "attributes": {
      "POSITION": 9,
      "NORMAL": 10
     },
     "indices": 11,
     "material": 0
    }
   ]
  },
  {
   "name": "occl_floor",
   "primitives": [
    {
     "attributes": {
      "POSITION": 0,
      "NORMAL": 1
     },
     "indices": 2,
     "material": 1
    }
   ]
  }
 ],
 "materials": [
  {
   "name": "occl_wall",
   "pbrMetallicRoughness": {
    "baseColorFactor": [
     0.45,
     0.44,
     0.42,
     1.0
    ],
    "metallicFactor": 0.0,
    "roughnessFactor": 0.7
   }
  },
  {
   "name": "occl_prop",
   "pbrMetallicRoughness": {
    "baseColorFactor": [
     0.3,
     0.55,
     0.4,
     1.0
    ],
    "metallicFactor": 0.0,
    "roughnessFactor": 0.7
   }
  }
 ],
 "accessors": [
  {
   "bufferView": 0,
   "componentType": 5126,
   "count": 625,
   "type": "VEC3",
   "min": [
    -1.0,
    -1.0,
    0.0
   ],
   "max": [
    1.0,
    1.0,
    0.0
   ]
  },
  {
   "bufferView": 1,
   "componentType": 5126,
   "count": 625,
   "type": "VEC3"
  },
  {
   "bufferView": 2,
   "componentType": 5123,
   "count": 3456,
   "type": "SCALAR"
  },
  {
   "bufferView": 3,
   "componentType": 5126,
   "count": 24,
   "type": "VEC3",
   "min": [
    -1.3553872010927777,
    -1.8109988748025927,
    -0.15
   ],
   "max": [
    1.3553872010927777,
    1.8109988748025927,
    0.15
   ]
  },
  {
   "bufferView": 4,
   "componentType": 5126,
   "count": 24,
   "type": "VEC3"
  },
  {
   "bufferView": 5,
   "componentType": 5123,
   "count": 36,
   "type": "SCALAR"
  },
  {
   "bufferView": 6,
   "componentType": 5126,
   "count": 24,
   "type": "VEC3",
   "min": [
    -1.3553872010927777,
    -1.8109988748025927,
    -0.15
   ],
   "max": [
    1.3553872010927777,
    1.8109988748025927,
    0.15
   ]
  },
  {
   "bufferView": 7,
   "componentType": 5126,
   "count": 24,
   "type": "VEC3"
  },
  {
   "bufferView": 8,
   "componentType": 5123,
   "count": 36,
   "type": "SCALAR"
  },
  {
   "bufferView": 9,
   "componentType": 5126,
   "count": 24,
   "type": "VEC3",
   "min": [
    -1.3553872010927777,
    -1.8109988748025927,
    -0.15
   ],
   "max": [
    1.3553872010927777,
    1.8109988748025927,
    0.15
   ]
  },
  {
   "bufferView": 10,
   "componentType": 5126,
   "count": 24,
   "type": "VEC3"
  },
  {
   "bufferView": 11,
   "componentType": 5123,
   "count": 36,
   "type": "SCALAR"
  }
 ],
 "bufferViews": [
  {
   "buffer": 0,
   "byteOffset": 0,
   "byteLength": 7500,
   "target": 34962
  },
  {
   "buffer": 0,
   "byteOffset": 7500,
   "byteLength": 7500,
   "target": 34962
  },
  {
   "buffer": 0,
   "byteOffset": 15000,
   "byteLength": 6912,
   "target": 34963
  },
  {
   "buffer": 0,
   "byteOffset": 21912,
   "byteLength": 288,
   "target": 34962
  },
  {
   "buffer": 0,
   "byteOffset": 22200,
   "byteLength": 288,
   "target": 34962
  },
  {
   "buffer": 0,
   "byteOffset": 22488,
   "byteLength": 72,
   "target": 34963
  },
  {
   "buffer": 0,
   "byteOffset": 22560,
   "byteLength": 288,
   "target": 34962
  },
  {
   "buffer": 0,
   "byteOffset": 22848,
   "byteLength": 288,
   "target": 34962
  },
  {
   "buffer": 0,
   "byteOffset": 23136,
   "byteLength": 72,
   "target": 34963
  },
  {
   "buffer": 0,
   "byteOffset": 23208,
   "byteLength": 288,
   "target": 34962
  },
  {
   "buffer": 0,
   "byteOffset": 23496,
   "byteLength": 288,
   "target": 34962
  },
  {
   "buffer": 0,
   "byteOffset": 23784,
   "byteLength": 72,
   "target": 34963
  }
 ],
 "buffers": [
  {
   "uri": "data:application/octet-stream;base64,",
   "byteLength": 23856
  }
 ]
}
