{
 "asset": {
  "version": "2.0",
  "generator": "gen_puppet_fixture.py"
 },
 "scene": 0,
 "scenes": [
  {
   "nodes": [
    0
   ]
  }
 ],
 "nodes": [
  {
   "name": "puppet",
   "children": [
    1,
    2
   ]
  },
  {
   "name": "puppet_mesh",
   "mesh": 0,
   "skin": 0
  },
  {
   "name": "cetra_rig:Hips",
   "translation": [
    0.0,
    0.95,
    0.0
   ],
   "children": [
    3,
    16,
    19
   ]
  },
  {
   "name": "cetra_rig:Spine",
   "translation": [
    0.0,
    0.10000000000000009,
    0.0
   ],
   "children": [
    4
   ]
  },
  {
   "name": "cetra_rig:Spine1",
   "translation": [
    0.0,
    0.1299999999999999,
    0.0
   ],
   "children": [
    5
   ]
  },
  {
   "name": "cetra_rig:Spine2",
   "translation": [
    0.0,
    0.13000000000000012,
    0.0
   ],
   "children": [
    6,
    8,
    12
   ]
  },
  {
   "name": "cetra_rig:Neck",
   "translation": [
    0.0,
    0.18999999999999995,
    0.0
   ],
   "children": [
    7
   ]
  },
  {
   "name": "cetra_rig:Head",
   "translation": [
    0.0,
    0.08000000000000007,
    0.0
   ]
  },
  {
   "name": "cetra_rig:LeftShoulder",
   "translation": [
    0.06,
    0.1499999999999999,
    0.0
   ],
   "children": [
    9
   ]
  },
  {
   "name": "cetra_rig:LeftArm",
   "translation": [
    0.14,
    0.0,
    0.0
   ],
   "children": [
    10
   ]
  },
  {
   "name": "cetra_rig:LeftForeArm",
   "translation": [
    0.27999999999999997,
    0.0,
    0.0
   ],
   "children": [
    11
   ]
  },
  {
   "name": "cetra_rig:LeftHand",
   "translation": [
    0.26,
    0.0,
    0.0
   ]
  },
  {
   "name": "cetra_rig:RightShoulder",
   "translation": [
    -0.06,
    0.1499999999999999,
    0.0
   ],
   "children": [
    13
   ]
  },
  {
   "name": "cetra_rig:RightArm",
   "translation": [
    -0.14,
    0.0,
    0.0
   ],
   "children": [
    14
   ]
  },
  {
   "name": "cetra_rig:RightForeArm",
   "translation": [
    -0.27999999999999997,
    0.0,
    0.0
   ],
   "children": [
    15
   ]
  },
  {
   "name": "cetra_rig:RightHand",
   "translation": [
    -0.26,
    0.0,
    0.0
   ]
  },
  {
   "name": "cetra_rig:LeftUpLeg",
   "translation": [
    0.1,
    -0.04999999999999993,
    0.0
   ],
   "children": [
    17
   ]
  },
  {
   "name": "cetra_rig:LeftLeg",
   "translation": [
    0.0,
    -0.42000000000000004,
    0.0
   ],
   "children": [
    18
   ]
  },
  {
   "name": "cetra_rig:LeftFoot",
   "translation": [
    0.0,
    -0.39999999999999997,
    0.0
   ],
   "children": [
    22
   ]
  },
  {
   "name": "cetra_rig:RightUpLeg",
   "translation": [
    -0.1,
    -0.04999999999999993,
    0.0
   ],
   "children": [
    20
   ]
  },
  {
   "name": "cetra_rig:RightLeg",
   "translation": [
    0.0,
    -0.42000000000000004,
    0.0
   ],
   "children": [
    21
   ]
  },
  {
   "name": "cetra_rig:RightFoot",
   "translation": [
    0.0,
    -0.39999999999999997,
    0.0
   ],
   "children": [
    23
   ]
  },
  {
   "name": "cetra_rig:LeftToeBase",
   "translation": [
    0.0,
    -0.04,
    0.04
   ]
  },
  {
   "name": "cetra_rig:RightToeBase",
   "translation": [
    0.0,
    -0.04,
    0.04
   ]
  }
 ],
 "skins": [
  {
   "inverseBindMatrices": 6,
   "joints": [
    2,
    3,
    4,
    5,
    6,
    7,
    8,
    9,
    10,
    11,
    12,
    13,
    14,
    15,
    16,
    17,
    18,
    19,
    20,
    21,
    22,
    23
   ],
   "skeleton": 2
  }
 ],
 "meshes": [
  {
   "name": "puppet_mesh",
   "primitives": [
    {
     "attributes": {
      "POSITION": 0,
      "NORMAL": 1,
      "TEXCOORD_0": 2,
      "JOINTS_0": 3,
      "WEIGHTS_0": 4
     },
     "indices": 5,
     "material": 0
    }
   ]
  }
 ],
 "animations": [
  {
   "name": "idle",
   "samplers": [
    {
     "input": 7,
     "output": 8,
     "interpolation": "LINEAR"
    },
    {
     "input": 9,
     "output": 10,
     "interpolation": "LINEAR"
    },
    {
     "input": 11,
     "output": 12,
     "interpolation": "LINEAR"
    },
    {
     "input": 13,
     "output": 14,
     "interpolation": "LINEAR"
    },
    {
     "input": 15,
     "output": 16,
     "interpolation": "LINEAR"
    }
   ],
   "channels": [
    {
     "sampler": 0,
     "target": {
      "node": 2,
      "path": "translation"
     }
    },
    {
     "sampler": 1,
     "target": {
      "node": 5,
      "path": "rotation"
     }
    },
    {
     "sampler": 2,
     "target": {
      "node": 5,
      "path": "translation"
     }
    },
    {
     "sampler": 3,
     "target": {
      "node": 7,
      "path": "rotation"
     }
    },
    {
     "sampler": 4,
     "target": {
      "node": 7,
      "path": "translation"
     }
    }
   ]
  },
  {
   "name": "walk",
   "samplers": [
    {
     "input": 17,
     "output": 18,
     "interpolation": "LINEAR"
    },
    {
     "input": 19,
     "output": 20,
     "interpolation": "LINEAR"
    },
    {
     "input": 21,
     "output": 22,
     "interpolation": "LINEAR"
    },
    {
     "input": 23,
     "output": 24,
     "interpolation": "LINEAR"
    },
    {
     "input": 25,
     "output": 26,
     "interpolation": "LINEAR"
    },
    {
     "input": 27,
     "output": 28,
     "interpolation": "LINEAR"
    },
    {
     "input": 29,
     "output": 30,
     "interpolation": "LINEAR"
    },
    {
     "input": 31,
     "output": 32,
     "interpolation": "LINEAR"
    },
    {
     "input": 33,
     "output": 34,
     "interpolation": "LINEAR"
    }
   ],
   "channels": [
    {
     "sampler": 0,
     "target": {
      "node": 2,
      "path": "translation"
     }
    },
    {
     "sampler": 1,
     "target": {
      "node": 9,
      "path": "rotation"
     }
    },
    {
     "sampler": 2,
     "target": {
      "node": 9,
      "path": "translation"
     }
    },
    {
     "sampler": 3,
     "target": {
      "node": 13,
      "path": "rotation"
     }
    },
    {
     "sampler": 4,
     "target": {
      "node": 13,
      "path": "translation"
     }
    },
    {
     "sampler": 5,
     "target": {
      "node": 16,
      "path": "rotation"
     }
    },
    {
     "sampler": 6,
     "target": {
      "node": 16,
      "path": "translation"
     }
    },
    {
     "sampler": 7,
     "target": {
      "node": 19,
      "path": "rotation"
     }
    },
    {
     "sampler": 8,
     "target": {
      "node": 19,
      "path": "translation"
     }
    }
   ]
  },
  {
   "name": "run",
   "samplers": [
    {
     "input": 35,
     "output": 36,
     "interpolation": "LINEAR"
    },
    {
     "input": 37,
     "output": 38,
     "interpolation": "LINEAR"
    },
    {
     "input": 39,
     "output": 40,
     "interpolation": "LINEAR"
    },
    {
     "input": 41,
     "output": 42,
     "interpolation": "LINEAR"
    },
    {
     "input": 43,
     "output": 44,
     "interpolation": "LINEAR"
    },
    {
     "input": 45,
     "output": 46,
     "interpolation": "LINEAR"
    },
    {
     "input": 47,
     "output": 48,
     "interpolation": "LINEAR"
    },
    {
     "input": 49,
     "output": 50,
     "interpolation": "LINEAR"
    },
    {
     "input": 51,
     "output": 52,
     "interpolation": "LINEAR"
    }
   ],
   "channels": [
    {
     "sampler": 0,
     "target": {
      "node": 2,
      "path": "translation"
     }
    },
    {
     "sampler": 1,
     "target": {
      "node": 9,
      "path": "rotation"
     }
    },
    {
     "sampler": 2,
     "target": {
      "node": 9,
      "path": "translation"
     }
    },
    {
     "sampler": 3,
     "target": {
      "node": 13,
      "path": "rotation"
     }
    },
    {
     "sampler": 4,
     "target": {
      "node": 13,
      "path": "translation"
     }
    },
    {
     "sampler": 5,
     "target": {
      "node": 16,
      "path": "rotation"
     }
    },
    {
     "sampler": 6,
     "target": {
      "node": 16,
      "path": "translation"
     }
    },
    {
     "sampler": 7,
     "target": {
      "node": 19,
      "path": "rotation"
     }
    },
    {
     "sampler": 8,
     "target": {
      "node": 19,
      "path": "translation"
     }
    }
   ]
  },
  {
   "name": "jump",
   "samplers": [
    {
     "input": 53,
     "output": 54,
     "interpolation": "LINEAR"
    },
    {
     "input": 55,
     "output": 56,
     "interpolation": "LINEAR"
    },
    {
     "input": 57,
     "output": 58,
     "interpolation": "LINEAR"
    },
    {
     "input": 59,
     "output": 60,
     "interpolation": "LINEAR"
    },
    {
     "input": 61,
     "output": 62,
     "interpolation": "LINEAR"
    },
    {
     "input": 63,
     "output": 64,
     "interpolation": "LINEAR"
    },
    {
     "input": 65,
     "output": 66,
     "interpolation": "LINEAR"
    },
    {
     "input": 67,
     "output": 68,
     "interpolation": "LINEAR"
    },
    {
     "input": 69,
     "output": 70,
     "interpolation": "LINEAR"
    },
    {
     "input": 71,
     "output": 72,
     "interpolation": "LINEAR"
    },
    {
     "input": 73,
     "output": 74,
     "interpolation": "LINEAR"
    },
    {
     "input": 75,
     "output": 76,
     "interpolation": "LINEAR"
    }
   ],
   "channels": [
    {
     "sampler": 0,
     "target": {
      "node": 9,
      "path": "rotation"
     }
    },
    {
     "sampler": 1,
     "target": {
      "node": 9,
      "path": "translation"
     }
    },
    {
     "sampler": 2,
     "target": {
      "node": 13,
      "path": "rotation"
     }
    },
    {
     "sampler": 3,
     "target": {
      "node": 13,
      "path": "translation"
     }
    },
    {
     "sampler": 4,
     "target": {
      "node": 16,
      "path": "rotation"
     }
    },
    {
     "sampler": 5,
     "target": {
      "node": 16,
      "path": "translation"
     }
    },
    {
     "sampler": 6,
     "target": {
      "node": 17,
      "path": "rotation"
     }
    },
    {
     "sampler": 7,
     "target": {
      "node": 17,
      "path": "translation"
     }
    },
    {
     "sampler": 8,
     "target": {
      "node": 19,
      "path": "rotation"
     }
    },
    {
     "sampler": 9,
     "target": {
      "node": 19,
      "path": "translation"
     }
    },
    {
     "sampler": 10,
     "target": {
      "node": 20,
      "path": "rotation"
     }
    },
    {
     "sampler": 11,
     "target": {
      "node": 20,
      "path": "translation"
     }
    }
   ]
  },
  {
   "name": "wave",
   "samplers": [
    {
     "input": 77,
     "output": 78,
     "interpolation": "LINEAR"
    },
    {
     "input": 79,
     "output": 80,
     "interpolation": "LINEAR"
    },
    {
     "input": 81,
     "output": 82,
     "interpolation": "LINEAR"
    },
    {
     "input": 83,
     "output": 84,
     "interpolation": "LINEAR"
    }
   ],
   "channels": [
    {
     "sampler": 0,
     "target": {
      "node": 13,
      "path": "rotation"
     }
    },
    {
     "sampler": 1,
     "target": {
      "node": 13,
      "path": "translation"
     }
    },
    {
     "sampler": 2,
     "target": {
      "node": 14,
      "path": "rotation"
     }
    },
    {
     "sampler": 3,
     "target": {
      "node": 14,
      "path": "translation"
     }
    }
   ]
  },
  {
   "name": "hold90",
   "samplers": [
    {
     "input": 85,
     "output": 86,
     "interpolation": "LINEAR"
    },
    {
     "input": 87,
     "output": 88,
     "interpolation": "LINEAR"
    }
   ],
   "channels": [
    {
     "sampler": 0,
     "target": {
      "node": 10,
      "path": "rotation"
     }
    },
    {
     "sampler": 1,
     "target": {
      "node": 10,
      "path": "translation"
     }
    }
   ]
  },
  {
   "name": "rest",
   "samplers": [
    {
     "input": 89,
     "output": 90,
     "interpolation": "LINEAR"
    },
    {
     "input": 91,
     "output": 92,
     "interpolation": "LINEAR"
    }
   ],
   "channels": [
    {
     "sampler": 0,
     "target": {
      "node": 2,
      "path": "rotation"
     }
    },
    {
     "sampler": 1,
     "target": {
      "node": 2,
      "path": "translation"
     }
    }
   ]
  },
  {
   "name": "swim",
   "samplers": [
    {
     "input": 93,
     "output": 94,
     "interpolation": "LINEAR"
    },
    {
     "input": 95,
     "output": 96,
     "interpolation": "LINEAR"
    },
    {
     "input": 97,
     "output": 98,
     "interpolation": "LINEAR"
    },
    {
     "input": 99,
     "output": 100,
     "interpolation": "LINEAR"
    },
    {
     "input": 101,
     "output": 102,
     "interpolation": "LINEAR"
    },
    {
     "input": 103,
     "output": 104,
     "interpolation": "LINEAR"
    },
    {
     "input": 105,
     "output": 106,
     "interpolation": "LINEAR"
    },
    {
     "input": 107,
     "output": 108,
     "interpolation": "LINEAR"
    },
    {
     "input": 109,
     "output": 110,
     "interpolation": "LINEAR"
    },
    {
     "input": 111,
     "output": 112,
     "interpolation": "LINEAR"
    },
    {
     "input": 113,
     "output": 114,
     "interpolation": "LINEAR"
    },
    {
     "input": 115,
     "output": 116,
     "interpolation": "LINEAR"
    },
    {
     "input": 117,
     "output": 118,
     "interpolation": "LINEAR"
    }
   ],
   "channels": [
    {
     "sampler": 0,
     "target": {
      "node": 2,
      "path": "translation"
     }
    },
    {
     "sampler": 1,
     "target": {
      "node": 9,
      "path": "rotation"
     }
    },
    {
     "sampler": 2,
     "target": {
      "node": 9,
      "path": "translation"
     }
    },
    {
     "sampler": 3,
     "target": {
      "node": 13,
      "path": "rotation"
     }
    },
    {
     "sampler": 4,
     "target": {
      "node": 13,
      "path": "translation"
     }
    },
    {
     "sampler": 5,
     "target": {
      "node": 16,
      "path": "rotation"
     }
    },
    {
     "sampler": 6,
     "target": {
      "node": 16,
      "path": "translation"
     }
    },
    {
     "sampler": 7,
     "target": {
      "node": 17,
      "path": "rotation"
     }
    },
    {
     "sampler": 8,
     "target": {
      "node": 17,
      "path": "translation"
     }
    },
    {
     "sampler": 9,
     "target": {
      "node": 19,
      "path": "rotation"
     }
    },
    {
     "sampler": 10,
     "target": {
      "node": 19,
      "path": "translation"
     }
    },
    {
     "sampler": 11,
     "target": {
      "node": 20,
      "path": "rotation"
     }
    },
    {
     "sampler": 12,
     "target": {
      "node": 20,
      "path": "translation"
     }
    }
   ]
  },
  {
   "name": "travel_walk",
   "samplers": [
    {
     "input": 119,
     "output": 120,
     "interpolation": "LINEAR"
    },
    {
     "input": 121,
     "output": 122,
     "interpolation": "LINEAR"
    },
    {
     "input": 123,
     "output": 124,
     "interpolation": "LINEAR"
    },
    {
     "input": 125,
     "output": 126,
     "interpolation": "LINEAR"
    },
    {
     "input": 127,
     "output": 128,
     "interpolation": "LINEAR"
    },
    {
     "input": 129,
     "output": 130,
     "interpolation": "LINEAR"
    },
    {
     "input": 131,
     "output": 132,
     "interpolation": "LINEAR"
    },
    {
     "input": 133,
     "output": 134,
     "interpolation": "LINEAR"
    },
    {
     "input": 135,
     "output": 136,
     "interpolation": "LINEAR"
    }
   ],
   "channels": [
    {
     "sampler": 0,
     "target": {
      "node": 2,
      "path": "translation"
     }
    },
    {
     "sampler": 1,
     "target": {
      "node": 9,
      "path": "rotation"
     }
    },
    {
     "sampler": 2,
     "target": {
      "node": 9,
      "path": "translation"
     }
    },
    {
     "sampler": 3,
     "target": {
      "node": 13,
      "path": "rotation"
     }
    },
    {
     "sampler": 4,
     "target": {
      "node": 13,
      "path": "translation"
     }
    },
    {
     "sampler": 5,
     "target": {
      "node": 16,
      "path": "rotation"
     }
    },
    {
     "sampler": 6,
     "target": {
      "node": 16,
      "path": "translation"
     }
    },
    {
     "sampler": 7,
     "target": {
      "node": 19,
      "path": "rotation"
     }
    },
    {
     "sampler": 8,
     "target": {
      "node": 19,
      "path": "translation"
     }
    }
   ]
  },
  {
   "name": "travel_run",
   "samplers": [
    {
     "input": 137,
     "output": 138,
     "interpolation": "LINEAR"
    },
    {
     "input": 139,
     "output": 140,
     "interpolation": "LINEAR"
    },
    {
     "input": 141,
     "output": 142,
     "interpolation": "LINEAR"
    },
    {
     "input": 143,
     "output": 144,
     "interpolation": "LINEAR"
    },
    {
     "input": 145,
     "output": 146,
     "interpolation": "LINEAR"
    },
    {
     "input": 147,
     "output": 148,
     "interpolation": "LINEAR"
    },
    {
     "input": 149,
     "output": 150,
     "interpolation": "LINEAR"
    },
    {
     "input": 151,
     "output": 152,
     "interpolation": "LINEAR"
    },
    {
     "input": 153,
     "output": 154,
     "interpolation": "LINEAR"
    }
   ],
   "channels": [
    {
     "sampler": 0,
     "target": {
      "node": 2,
      "path": "translation"
     }
    },
    {
     "sampler": 1,
     "target": {
      "node": 9,
      "path": "rotation"
     }
    },
    {
     "sampler": 2,
     "target": {
      "node": 9,
      "path": "translation"
     }
    },
    {
     "sampler": 3,
     "target": {
      "node": 13,
      "path": "rotation"
     }
    },
    {
     "sampler": 4,
     "target": {
      "node": 13,
      "path": "translation"
     }
    },
    {
     "sampler": 5,
     "target": {
      "node": 16,
      "path": "rotation"
     }
    },
    {
     "sampler": 6,
     "target": {
      "node": 16,
      "path": "translation"
     }
    },
    {
     "sampler": 7,
     "target": {
      "node": 19,
      "path": "rotation"
     }
    },
    {
     "sampler": 8,
     "target": {
      "node": 19,
      "path": "translation"
     }
    }
   ]
  },
  {
   "name": "lunge",
   "samplers": [
    {
     "input": 155,
     "output": 156,
     "interpolation": "LINEAR"
    },
    {
     "input": 157,
     "output": 158,
     "interpolation": "LINEAR"
    },
    {
     "input": 159,
     "output": 160,
     "interpolation": "LINEAR"
    },
    {
     "input": 161,
     "output": 162,
     "interpolation": "LINEAR"
    },
    {
     "input": 163,
     "output": 164,
     "interpolation": "LINEAR"
    },
    {
     "input": 165,
     "output": 166,
     "interpolation": "LINEAR"
    },
    {
     "input": 167,
     "output": 168,
     "interpolation": "LINEAR"
    },
    {
     "input": 169,
     "output": 170,
     "interpolation": "LINEAR"
    },
    {
     "input": 171,
     "output": 172,
     "interpolation": "LINEAR"
    }
   ],
   "channels": [
    {
     "sampler": 0,
     "target": {
      "node": 2,
      "path": "translation"
     }
    },
    {
     "sampler": 1,
     "target": {
      "node": 9,
      "path": "rotation"
     }
    },
    {
     "sampler": 2,
     "target": {
      "node": 9,
      "path": "translation"
     }
    },
    {
     "sampler": 3,
     "target": {
      "node": 13,
      "path": "rotation"
     }
    },
    {
     "sampler": 4,
     "target": {
      "node": 13,
      "path": "translation"
     }
    },
    {
     "sampler": 5,
     "target": {
      "node": 16,
      "path": "rotation"
     }
    },
    {
     "sampler": 6,
     "target": {
      "node": 16,
      "path": "translation"
     }
    },
    {
     "sampler": 7,
     "target": {
      "node": 19,
      "path": "rotation"
     }
    },
    {
     "sampler": 8,
     "target": {
      "node": 19,
      "path": "translation"
     }
    }
   ]
  },
  {
   "name": "spin",
   "samplers": [
    {
     "input": 173,
     "output": 174,
     "interpolation": "LINEAR"
    },
    {
     "input": 175,
     "output": 176,
     "interpolation": "LINEAR"
    }
   ],
   "channels": [
    {
     "sampler": 0,
     "target": {
      "node": 2,
      "path": "rotation"
     }
    },
    {
     "sampler": 1,
     "target": {
      "node": 2,
      "path": "translation"
     }
    }
   ]
  }
 ],
 "materials": [
  {
   "name": "puppet_wood",
   "pbrMetallicRoughness": {
    "baseColorFactor": [
     0.75,
     0.55,
     0.32,
     1.0
    ],
    "metallicFactor": 0.0,
    "roughnessFactor": 0.7
   }
  }
 ],
 "accessors": [
  {
   "bufferView": 0,
   "componentType": 5126,
   "count": 528,
   "type": "VEC3",
   "min": [
    -0.8600000000000001,
    0.0,
    -0.12
   ],
   "max": [
    0.8600000000000001,
    1.8,
    0.12
   ]
  },
  {
   "bufferView": 1,
   "componentType": 5126,
   "count": 528,
   "type": "VEC3"
  },
  {
   "bufferView": 2,
   "componentType": 5126,
   "count": 528,
   "type": "VEC2"
  },
  {
   "bufferView": 3,
   "componentType": 5123,
   "count": 528,
   "type": "VEC4"
  },
  {
   "bufferView": 4,
   "componentType": 5126,
   "count": 528,
   "type": "VEC4"
  },
  {
   "bufferView": 5,
   "componentType": 5123,
   "count": 792,
   "type": "SCALAR"
  },
  {
   "bufferView": 6,
   "componentType": 5126,
   "count": 22,
   "type": "MAT4"
  },
  {
   "bufferView": 7,
   "componentType": 5126,
   "count": 9,
   "type": "SCALAR",
   "min": [
    0.0
   ],
   "max": [
    2.0
   ]
  },
  {
   "bufferView": 8,
   "componentType": 5126,
   "count": 9,
   "type": "VEC3"
  },
  {
   "bufferView": 9,
   "componentType": 5126,
   "count": 9,
   "type": "SCALAR",
   "min": [
    0.0
   ],
   "max": [
    2.0
   ]
  },
  {
   "bufferView": 10,
   "componentType": 5126,
   "count": 9,
   "type": "VEC4"
  },
  {
   "bufferView": 11,
   "componentType": 5126,
   "count": 2,
   "type": "SCALAR",
   "min": [
    0.0
   ],
   "max": [
    2.0
   ]
  },
  {
   "bufferView": 12,
   "componentType": 5126,
   "count": 2,
   "type": "VEC3"
  },
  {
   "bufferView": 13,
   "componentType": 5126,
   "count": 9,
   "type": "SCALAR",
   "min": [
    0.0
   ],
   "max": [
    2.0
   ]
  },
  {
   "bufferView": 14,
   "componentType": 5126,
   "count": 9,
   "type": "VEC4"
  },
  {
   "bufferView": 15,
   "componentType": 5126,
   "count": 2,
   "type": "SCALAR",
   "min": [
    0.0
   ],
   "max": [
    2.0
   ]
  },
  {
   "bufferView": 16,
   "componentType": 5126,
   "count": 2,
   "type": "VEC3"
  },
  {
   "bufferView": 17,
   "componentType": 5126,
   "count": 9,
   "type": "SCALAR",
   "min": [
    0.0
   ],
   "max": [
    1.0
   ]
  },
  {
   "bufferView": 18,
   "componentType": 5126,
   "count": 9,
   "type": "VEC3"
  },
  {
   "bufferView": 19,
   "componentType": 5126,
   "count": 9,
   "type": "SCALAR",
   "min": [
    0.0
   ],
   "max": [
    1.0
   ]
  },
  {
   "bufferView": 20,
   "componentType": 5126,
   "count": 9,
   "type": "VEC4"
  },
  {
   "bufferView": 21,
   "componentType": 5126,
   "count": 2,
   "type": "SCALAR",
   "min": [
    0.0
   ],
   "max": [
    1.0
   ]
  },
  {
   "bufferView": 22,
   "componentType": 5126,
   "count": 2,
   "type": "VEC3"
  },
  {
   "bufferView": 23,
   "componentType": 5126,
   "count": 9,
   "type": "SCALAR",
   "min": [
    0.0
   ],
   "max": [
    1.0
   ]
  },
  {
   "bufferView": 24,
   "componentType": 5126,
   "count": 9,
   "type": "VEC4"
  },
  {
   "bufferView": 25,
   "componentType": 5126,
   "count": 2,
   "type": "SCALAR",
   "min": [
    0.0
   ],
   "max": [
    1.0
   ]
  },
  {
   "bufferView": 26,
   "componentType": 5126,
   "count": 2,
   "type": "VEC3"
  },
  {
   "bufferView": 27,
   "componentType": 5126,
   "count": 9,
   "type": "SCALAR",
   "min": [
    0.0
   ],
   "max": [
    1.0
   ]
  },
  {
   "bufferView": 28,
   "componentType": 5126,
   "count": 9,
   "type": "VEC4"
  },
  {
   "bufferView": 29,
   "componentType": 5126,
   "count": 2,
   "type": "SCALAR",
   "min": [
    0.0
   ],
   "max": [
    1.0
   ]
  },
  {
   "bufferView": 30,
   "componentType": 5126,
   "count": 2,
   "type": "VEC3"
  },
  {
   "bufferView": 31,
   "componentType": 5126,
   "count": 9,
   "type": "SCALAR",
   "min": [
    0.0
   ],
   "max": [
    1.0
   ]
  },
  {
   "bufferView": 32,
   "componentType": 5126,
   "count": 9,
   "type": "VEC4"
  },
  {
   "bufferView": 33,
   "componentType": 5126,
   "count": 2,
   "type": "SCALAR",
   "min": [
    0.0
   ],
   "max": [
    1.0
   ]
  },
  {
   "bufferView": 34,
   "componentType": 5126,
   "count": 2,
   "type": "VEC3"
  },
  {
   "bufferView": 35,
   "componentType": 5126,
   "count": 9,
   "type": "SCALAR",
   "min": [
    0.0
   ],
   "max": [
    0.5
   ]
  },
  {
   "bufferView": 36,
   "componentType": 5126,
   "count": 9,
   "type": "VEC3"
  },
  {
   "bufferView": 37,
   "componentType": 5126,
   "count": 9,
   "type": "SCALAR",
   "min": [
    0.0
   ],
   "max": [
    0.5
   ]
  },
  {
   "bufferView": 38,
   "componentType": 5126,
   "count": 9,
   "type": "VEC4"
  },
  {
   "bufferView": 39,
   "componentType": 5126,
   "count": 2,
   "type": "SCALAR",
   "min": [
    0.0
   ],
   "max": [
    0.5
   ]
  },
  {
   "bufferView": 40,
   "componentType": 5126,
   "count": 2,
   "type": "VEC3"
  },
  {
   "bufferView": 41,
   "componentType": 5126,
   "count": 9,
   "type": "SCALAR",
   "min": [
    0.0
   ],
   "max": [
    0.5
   ]
  },
  {
   "bufferView": 42,
   "componentType": 5126,
   "count": 9,
   "type": "VEC4"
  },
  {
   "bufferView": 43,
   "componentType": 5126,
   "count": 2,
   "type": "SCALAR",
   "min": [
    0.0
   ],
   "max": [
    0.5
   ]
  },
  {
   "bufferView": 44,
   "componentType": 5126,
   "count": 2,
   "type": "VEC3"
  },
  {
   "bufferView": 45,
   "componentType": 5126,
   "count": 9,
   "type": "SCALAR",
   "min": [
    0.0
   ],
   "max": [
    0.5
   ]
  },
  {
   "bufferView": 46,
   "componentType": 5126,
   "count": 9,
   "type": "VEC4"
  },
  {
   "bufferView": 47,
   "componentType": 5126,
   "count": 2,
   "type": "SCALAR",
   "min": [
    0.0
   ],
   "max": [
    0.5
   ]
  },
  {
   "bufferView": 48,
   "componentType": 5126,
   "count": 2,
   "type": "VEC3"
  },
  {
   "bufferView": 49,
   "componentType": 5126,
   "count": 9,
   "type": "SCALAR",
   "min": [
    0.0
   ],
   "max": [
    0.5
   ]
  },
  {
   "bufferView": 50,
   "componentType": 5126,
   "count": 9,
   "type": "VEC4"
  },
  {
   "bufferView": 51,
   "componentType": 5126,
   "count": 2,
   "type": "SCALAR",
   "min": [
    0.0
   ],
   "max": [
    0.5
   ]
  },
  {
   "bufferView": 52,
   "componentType": 5126,
   "count": 2,
   "type": "VEC3"
  },
  {
   "bufferView": 53,
   "componentType": 5126,
   "count": 4,
   "type": "SCALAR",
   "min": [
    0.0
   ],
   "max": [
    1.0
   ]
  },
  {
   "bufferView": 54,
   "componentType": 5126,
   "count": 4,
   "type": "VEC4"
  },
  {
   "bufferView": 55,
   "componentType": 5126,
   "count": 2,
   "type": "SCALAR",
   "min": [
    0.0
   ],
   "max": [
    1.0
   ]
  },
  {
   "bufferView": 56,
   "componentType": 5126,
   "count": 2,
   "type": "VEC3"
  },
  {
   "bufferView": 57,
   "componentType": 5126,
   "count": 4,
   "type": "SCALAR",
   "min": [
    0.0
   ],
   "max": [
    1.0
   ]
  },
  {
   "bufferView": 58,
   "componentType": 5126,
   "count": 4,
   "type": "VEC4"
  },
  {
   "bufferView": 59,
   "componentType": 5126,
   "count": 2,
   "type": "SCALAR",
   "min": [
    0.0
   ],
   "max": [
    1.0
   ]
  },
  {
   "bufferView": 60,
   "componentType": 5126,
   "count": 2,
   "type": "VEC3"
  },
  {
   "bufferView": 61,
   "componentType": 5126,
   "count": 4,
   "type": "SCALAR",
   "min": [
    0.0
   ],
   "max": [
    1.0
   ]
  },
  {
   "bufferView": 62,
   "componentType": 5126,
   "count": 4,
   "type": "VEC4"
  },
  {
   "bufferView": 63,
   "componentType": 5126,
   "count": 2,
   "type": "SCALAR",
   "min": [
    0.0
   ],
   "max": [
    1.0
   ]
  },
  {
   "bufferView": 64,
   "componentType": 5126,
   "count": 2,
   "type": "VEC3"
  },
  {
   "bufferView": 65,
   "componentType": 5126,
   "count": 4,
   "type": "SCALAR",
   "min": [
    0.0
   ],
   "max": [
    1.0
   ]
  },
  {
   "bufferView": 66,
   "componentType": 5126,
   "count": 4,
   "type": "VEC4"
  },
  {
   "bufferView": 67,
   "componentType": 5126,
   "count": 2,
   "type": "SCALAR",
   "min": [
    0.0
   ],
   "max": [
    1.0
   ]
  },
  {
   "bufferView": 68,
   "componentType": 5126,
   "count": 2,
   "type": "VEC3"
  },
  {
   "bufferView": 69,
   "componentType": 5126,
   "count": 4,
   "type": "SCALAR",
   "min": [
    0.0
   ],
   "max": [
    1.0
   ]
  },
  {
   "bufferView": 70,
   "componentType": 5126,
   "count": 4,
   "type": "VEC4"
  },
  {
   "bufferView": 71,
   "componentType": 5126,
   "count": 2,
   "type": "SCALAR",
   "min": [
    0.0
   ],
   "max": [
    1.0
   ]
  },
  {
   "bufferView": 72,
   "componentType": 5126,
   "count": 2,
   "type": "VEC3"
  },
  {
   "bufferView": 73,
   "componentType": 5126,
   "count": 4,
   "type": "SCALAR",
   "min": [
    0.0
   ],
   "max": [
    1.0
   ]
  },
  {
   "bufferView": 74,
   "componentType": 5126,
   "count": 4,
   "type": "VEC4"
  },
  {
   "bufferView": 75,
   "componentType": 5126,
   "count": 2,
   "type": "SCALAR",
   "min": [
    0.0
   ],
   "max": [
    1.0
   ]
  },
  {
   "bufferView": 76,
   "componentType": 5126,
   "count": 2,
   "type": "VEC3"
  },
  {
   "bufferView": 77,
   "componentType": 5126,
   "count": 4,
   "type": "SCALAR",
   "min": [
    0.0
   ],
   "max": [
    1.0
   ]
  },
  {
   "bufferView": 78,
   "componentType": 5126,
   "count": 4,
   "type": "VEC4"
  },
  {
   "bufferView": 79,
   "componentType": 5126,
   "count": 2,
   "type": "SCALAR",
   "min": [
    0.0
   ],
   "max": [
    1.0
   ]
  },
  {
   "bufferView": 80,
   "componentType": 5126,
   "count": 2,
   "type": "VEC3"
  },
  {
   "bufferView": 81,
   "componentType": 5126,
   "count": 7,
   "type": "SCALAR",
   "min": [
    0.0
   ],
   "max": [
    1.0
   ]
  },
  {
   "bufferView": 82,
   "componentType": 5126,
   "count": 7,
   "type": "VEC4"
  },
  {
   "bufferView": 83,
   "componentType": 5126,
   "count": 2,
   "type": "SCALAR",
   "min": [
    0.0
   ],
   "max": [
    1.0
   ]
  },
  {
   "bufferView": 84,
   "componentType": 5126,
   "count": 2,
   "type": "VEC3"
  },
  {
   "bufferView": 85,
   "componentType": 5126,
   "count": 3,
   "type": "SCALAR",
   "min": [
    0.0
   ],
   "max": [
    4.0
   ]
  },
  {
   "bufferView": 86,
   "componentType": 5126,
   "count": 3,
   "type": "VEC4"
  },
  {
   "bufferView": 87,
   "componentType": 5126,
   "count": 2,
   "type": "SCALAR",
   "min": [
    0.0
   ],
   "max": [
    4.0
   ]
  },
  {
   "bufferView": 88,
   "componentType": 5126,
   "count": 2,
   "type": "VEC3"
  },
  {
   "bufferView": 89,
   "componentType": 5126,
   "count": 2,
   "type": "SCALAR",
   "min": [
    0.0
   ],
   "max": [
    4.0
   ]
  },
  {
   "bufferView": 90,
   "componentType": 5126,
   "count": 2,
   "type": "VEC4"
  },
  {
   "bufferView": 91,
   "componentType": 5126,
   "count": 2,
   "type": "SCALAR",
   "min": [
    0.0
   ],
   "max": [
    4.0
   ]
  },
  {
   "bufferView": 92,
   "componentType": 5126,
   "count": 2,
   "type": "VEC3"
  },
  {
   "bufferView": 93,
   "componentType": 5126,
   "count": 9,
   "type": "SCALAR",
   "min": [
    0.0
   ],
   "max": [
    1.6
   ]
  },
  {
   "bufferView": 94,
   "componentType": 5126,
   "count": 9,
   "type": "VEC3"
  },
  {
   "bufferView": 95,
   "componentType": 5126,
   "count": 9,
   "type": "SCALAR",
   "min": [
    0.0
   ],
   "max": [
    1.6
   ]
  },
  {
   "bufferView": 96,
   "componentType": 5126,
   "count": 9,
   "type": "VEC4"
  },
  {
   "bufferView": 97,
   "componentType": 5126,
   "count": 2,
   "type": "SCALAR",
   "min": [
    0.0
   ],
   "max": [
    1.6
   ]
  },
  {
   "bufferView": 98,
   "componentType": 5126,
   "count": 2,
   "type": "VEC3"
  },
  {
   "bufferView": 99,
   "componentType": 5126,
   "count": 9,
   "type": "SCALAR",
   "min": [
    0.0
   ],
   "max": [
    1.6
   ]
  },
  {
   "bufferView": 100,
   "componentType": 5126,
   "count": 9,
   "type": "VEC4"
  },
  {
   "bufferView": 101,
   "componentType": 5126,
   "count": 2,
   "type": "SCALAR",
   "min": [
    0.0
   ],
   "max": [
    1.6
   ]
  },
  {
   "bufferView": 102,
   "componentType": 5126,
   "count": 2,
   "type": "VEC3"
  },
  {
   "bufferView": 103,
   "componentType": 5126,
   "count": 9,
   "type": "SCALAR",
   "min": [
    0.0
   ],
   "max": [
    1.6
   ]
  },
  {
   "bufferView": 104,
   "componentType": 5126,
   "count": 9,
   "type": "VEC4"
  },
  {
   "bufferView": 105,
   "componentType": 5126,
   "count": 2,
   "type": "SCALAR",
   "min": [
    0.0
   ],
   "max": [
    1.6
   ]
  },
  {
   "bufferView": 106,
   "componentType": 5126,
   "count": 2,
   "type": "VEC3"
  },
  {
   "bufferView": 107,
   "componentType": 5126,
   "count": 9,
   "type": "SCALAR",
   "min": [
    0.0
   ],
   "max": [
    1.6
   ]
  },
  {
   "bufferView": 108,
   "componentType": 5126,
   "count": 9,
   "type": "VEC4"
  },
  {
   "bufferView": 109,
   "componentType": 5126,
   "count": 2,
   "type": "SCALAR",
   "min": [
    0.0
   ],
   "max": [
    1.6
   ]
  },
  {
   "bufferView": 110,
   "componentType": 5126,
   "count": 2,
   "type": "VEC3"
  },
  {
   "bufferView": 111,
   "componentType": 5126,
   "count": 9,
   "type": "SCALAR",
   "min": [
    0.0
   ],
   "max": [
    1.6
   ]
  },
  {
   "bufferView": 112,
   "componentType": 5126,
   "count": 9,
   "type": "VEC4"
  },
  {
   "bufferView": 113,
   "componentType": 5126,
   "count": 2,
   "type": "SCALAR",
   "min": [
    0.0
   ],
   "max": [
    1.6
   ]
  },
  {
   "bufferView": 114,
   "componentType": 5126,
   "count": 2,
   "type": "VEC3"
  },
  {
   "bufferView": 115,
   "componentType": 5126,
   "count": 9,
   "type": "SCALAR",
   "min": [
    0.0
   ],
   "max": [
    1.6
   ]
  },
  {
   "bufferView": 116,
   "componentType": 5126,
   "count": 9,
   "type": "VEC4"
  },
  {
   "bufferView": 117,
   "componentType": 5126,
   "count": 2,
   "type": "SCALAR",
   "min": [
    0.0
   ],
   "max": [
    1.6
   ]
  },
  {
   "bufferView": 118,
   "componentType": 5126,
   "count": 2,
   "type": "VEC3"
  },
  {
   "bufferView": 119,
   "componentType": 5126,
   "count": 9,
   "type": "SCALAR",
   "min": [
    0.0
   ],
   "max": [
    1.0
   ]
  },
  {
   "bufferView": 120,
   "componentType": 5126,
   "count": 9,
   "type": "VEC3"
  },
  {
   "bufferView": 121,
   "componentType": 5126,
   "count": 9,
   "type": "SCALAR",
   "min": [
    0.0
   ],
   "max": [
    1.0
   ]
  },
  {
   "bufferView": 122,
   "componentType": 5126,
   "count": 9,
   "type": "VEC4"
  },
  {
   "bufferView": 123,
   "componentType": 5126,
   "count": 2,
   "type": "SCALAR",
   "min": [
    0.0
   ],
   "max": [
    1.0
   ]
  },
  {
   "bufferView": 124,
   "componentType": 5126,
   "count": 2,
   "type": "VEC3"
  },
  {
   "bufferView": 125,
   "componentType": 5126,
   "count": 9,
   "type": "SCALAR",
   "min": [
    0.0
   ],
   "max": [
    1.0
   ]
  },
  {
   "bufferView": 126,
   "componentType": 5126,
   "count": 9,
   "type": "VEC4"
  },
  {
   "bufferView": 127,
   "componentType": 5126,
   "count": 2,
   "type": "SCALAR",
   "min": [
    0.0
   ],
   "max": [
    1.0
   ]
  },
  {
   "bufferView": 128,
   "componentType": 5126,
   "count": 2,
   "type": "VEC3"
  },
  {
   "bufferView": 129,
   "componentType": 5126,
   "count": 9,
   "type": "SCALAR",
   "min": [
    0.0
   ],
   "max": [
    1.0
   ]
  },
  {
   "bufferView": 130,
   "componentType": 5126,
   "count": 9,
   "type": "VEC4"
  },
  {
   "bufferView": 131,
   "componentType": 5126,
   "count": 2,
   "type": "SCALAR",
   "min": [
    0.0
   ],
   "max": [
    1.0
   ]
  },
  {
   "bufferView": 132,
   "componentType": 5126,
   "count": 2,
   "type": "VEC3"
  },
  {
   "bufferView": 133,
   "componentType": 5126,
   "count": 9,
   "type": "SCALAR",
   "min": [
    0.0
   ],
   "max": [
    1.0
   ]
  },
  {
   "bufferView": 134,
   "componentType": 5126,
   "count": 9,
   "type": "VEC4"
  },
  {
   "bufferView": 135,
   "componentType": 5126,
   "count": 2,
   "type": "SCALAR",
   "min": [
    0.0
   ],
   "max": [
    1.0
   ]
  },
  {
   "bufferView": 136,
   "componentType": 5126,
   "count": 2,
   "type": "VEC3"
  },
  {
   "bufferView": 137,
   "componentType": 5126,
   "count": 9,
   "type": "SCALAR",
   "min": [
    0.0
   ],
   "max": [
    0.5
   ]
  },
  {
   "bufferView": 138,
   "componentType": 5126,
   "count": 9,
   "type": "VEC3"
  },
  {
   "bufferView": 139,
   "componentType": 5126,
   "count": 9,
   "type": "SCALAR",
   "min": [
    0.0
   ],
   "max": [
    0.5
   ]
  },
  {
   "bufferView": 140,
   "componentType": 5126,
   "count": 9,
   "type": "VEC4"
  },
  {
   "bufferView": 141,
   "componentType": 5126,
   "count": 2,
   "type": "SCALAR",
   "min": [
    0.0
   ],
   "max": [
    0.5
   ]
  },
  {
   "bufferView": 142,
   "componentType": 5126,
   "count": 2,
   "type": "VEC3"
  },
  {
   "bufferView": 143,
   "componentType": 5126,
   "count": 9,
   "type": "SCALAR",
   "min": [
    0.0
   ],
   "max": [
    0.5
   ]
  },
  {
   "bufferView": 144,
   "componentType": 5126,
   "count": 9,
   "type": "VEC4"
  },
  {
   "bufferView": 145,
   "componentType": 5126,
   "count": 2,
   "type": "SCALAR",
   "min": [
    0.0
   ],
   "max": [
    0.5
   ]
  },
  {
   "bufferView": 146,
   "componentType": 5126,
   "count": 2,
   "type": "VEC3"
  },
  {
   "bufferView": 147,
   "componentType": 5126,
   "count": 9,
   "type": "SCALAR",
   "min": [
    0.0
   ],
   "max": [
    0.5
   ]
  },
  {
   "bufferView": 148,
   "componentType": 5126,
   "count": 9,
   "type": "VEC4"
  },
  {
   "bufferView": 149,
   "componentType": 5126,
   "count": 2,
   "type": "SCALAR",
   "min": [
    0.0
   ],
   "max": [
    0.5
   ]
  },
  {
   "bufferView": 150,
   "componentType": 5126,
   "count": 2,
   "type": "VEC3"
  },
  {
   "bufferView": 151,
   "componentType": 5126,
   "count": 9,
   "type": "SCALAR",
   "min": [
    0.0
   ],
   "max": [
    0.5
   ]
  },
  {
   "bufferView": 152,
   "componentType": 5126,
   "count": 9,
   "type": "VEC4"
  },
  {
   "bufferView": 153,
   "componentType": 5126,
   "count": 2,
   "type": "SCALAR",
   "min": [
    0.0
   ],
   "max": [
    0.5
   ]
  },
  {
   "bufferView": 154,
   "componentType": 5126,
   "count": 2,
   "type": "VEC3"
  },
  {
   "bufferView": 155,
   "componentType": 5126,
   "count": 7,
   "type": "SCALAR",
   "min": [
    0.0
   ],
   "max": [
    0.6
   ]
  },
  {
   "bufferView": 156,
   "componentType": 5126,
   "count": 7,
   "type": "VEC3"
  },
  {
   "bufferView": 157,
   "componentType": 5126,
   "count": 3,
   "type": "SCALAR",
   "min": [
    0.0
   ],
   "max": [
    0.6
   ]
  },
  {
   "bufferView": 158,
   "componentType": 5126,
   "count": 3,
   "type": "VEC4"
  },
  {
   "bufferView": 159,
   "componentType": 5126,
   "count": 2,
   "type": "SCALAR",
   "min": [
    0.0
   ],
   "max": [
    0.6
   ]
  },
  {
   "bufferView": 160,
   "componentType": 5126,
   "count": 2,
   "type": "VEC3"
  },
  {
   "bufferView": 161,
   "componentType": 5126,
   "count": 3,
   "type": "SCALAR",
   "min": [
    0.0
   ],
   "max": [
    0.6
   ]
  },
  {
   "bufferView": 162,
   "componentType": 5126,
   "count": 3,
   "type": "VEC4"
  },
  {
   "bufferView": 163,
   "componentType": 5126,
   "count": 2,
   "type": "SCALAR",
   "min": [
    0.0
   ],
   "max": [
    0.6
   ]
  },
  {
   "bufferView": 164,
   "componentType": 5126,
   "count": 2,
   "type": "VEC3"
  },
  {
   "bufferView": 165,
   "componentType": 5126,
   "count": 3,
   "type": "SCALAR",
   "min": [
    0.0
   ],
   "max": [
    0.6
   ]
  },
  {
   "bufferView": 166,
   "componentType": 5126,
   "count": 3,
   "type": "VEC4"
  },
  {
   "bufferView": 167,
   "componentType": 5126,
   "count": 2,
   "type": "SCALAR",
   "min": [
    0.0
   ],
   "max": [
    0.6
   ]
  },
  {
   "bufferView": 168,
   "componentType": 5126,
   "count": 2,
   "type": "VEC3"
  },
  {
   "bufferView": 169,
   "componentType": 5126,
   "count": 3,
   "type": "SCALAR",
   "min": [
    0.0
   ],
   "max": [
    0.6
   ]
  },
  {
   "bufferView": 170,
   "componentType": 5126,
   "count": 3,
   "type": "VEC4"
  },
  {
   "bufferView": 171,
   "componentType": 5126,
   "count": 2,
   "type": "SCALAR",
   "min": [
    0.0
   ],
   "max": [
    0.6
   ]
  },
  {
   "bufferView": 172,
   "componentType": 5126,
   "count": 2,
   "type": "VEC3"
  },
  {
   "bufferView": 173,
   "componentType": 5126,
   "count": 5,
   "type": "SCALAR",
   "min": [
    0.0
   ],
   "max": [
    1.0
   ]
  },
  {
   "bufferView": 174,
   "componentType": 5126,
   "count": 5,
   "type": "VEC4"
  },
  {
   "bufferView": 175,
   "componentType": 5126,
   "count": 5,
   "type": "SCALAR",
   "min": [
    0.0
   ],
   "max": [
    1.0
   ]
  },
  {
   "bufferView": 176,
   "componentType": 5126,
   "count": 5,
   "type": "VEC3"
  }
 ],
 "bufferViews": [
  {
   "buffer": 0,
   "byteOffset": 0,
   "byteLength": 6336,
   "target": 34962
  },
  {
   "buffer": 0,
   "byteOffset": 6336,
   "byteLength": 6336,
   "target": 34962
  },
  {
   "buffer": 0,
   "byteOffset": 12672,
   "byteLength": 4224,
   "target": 34962
  },
  {
   "buffer": 0,
   "byteOffset": 16896,
   "byteLength": 4224,
   "target": 34962
  },
  {
   "buffer": 0,
   "byteOffset": 21120,
   "byteLength": 8448,
   "target": 34962
  },
  {
   "buffer": 0,
   "byteOffset": 29568,
   "byteLength": 1584,
   "target": 34963
  },
  {
   "buffer": 0,
   "byteOffset": 31152,
   "byteLength": 1408
  },
  {
   "buffer": 0,
   "byteOffset": 32560,
   "byteLength": 36
  },
  {
   "buffer": 0,
   "byteOffset": 32596,
   "byteLength": 108
  },
  {
   "buffer": 0,
   "byteOffset": 32704,
   "byteLength": 36
  },
  {
   "buffer": 0,
   "byteOffset": 32740,
   "byteLength": 144
  },
  {
   "buffer": 0,
   "byteOffset": 32884,
   "byteLength": 8
  },
  {
   "buffer": 0,
   "byteOffset": 32892,
   "byteLength": 24
  },
  {
   "buffer": 0,
   "byteOffset": 32916,
   "byteLength": 36
  },
  {
   "buffer": 0,
   "byteOffset": 32952,
   "byteLength": 144
  },
  {
   "buffer": 0,
   "byteOffset": 33096,
   "byteLength": 8
  },
  {
   "buffer": 0,
   "byteOffset": 33104,
   "byteLength": 24
  },
  {
   "buffer": 0,
   "byteOffset": 33128,
   "byteLength": 36
  },
  {
   "buffer": 0,
   "byteOffset": 33164,
   "byteLength": 108
  },
  {
   "buffer": 0,
   "byteOffset": 33272,
   "byteLength": 36
  },
  {
   "buffer": 0,
   "byteOffset": 33308,
   "byteLength": 144
  },
  {
   "buffer": 0,
   "byteOffset": 33452,
   "byteLength": 8
  },
  {
   "buffer": 0,
   "byteOffset": 33460,
   "byteLength": 24
  },
  {
   "buffer": 0,
   "byteOffset": 33484,
   "byteLength": 36
  },
  {
   "buffer": 0,
   "byteOffset": 33520,
   "byteLength": 144
  },
  {
   "buffer": 0,
   "byteOffset": 33664,
   "byteLength": 8
  },
  {
   "buffer": 0,
   "byteOffset": 33672,
   "byteLength": 24
  },
  {
   "buffer": 0,
   "byteOffset": 33696,
   "byteLength": 36
  },
  {
   "buffer": 0,
   "byteOffset": 33732,
   "byteLength": 144
  },
  {
   "buffer": 0,
   "byteOffset": 33876,
   "byteLength": 8
  },
  {
   "buffer": 0,
   "byteOffset": 33884,
   "byteLength": 24
  },
  {
   "buffer": 0,
   "byteOffset": 33908,
   "byteLength": 36
  },
  {
   "buffer": 0,
   "byteOffset": 33944,
   "byteLength": 144
  },
  {
   "buffer": 0,
   "byteOffset": 34088,
   "byteLength": 8
  },
  {
   "buffer": 0,
   "byteOffset": 34096,
   "byteLength": 24
  },
  {
   "buffer": 0,
   "byteOffset": 34120,
   "byteLength": 36
  },
  {
   "buffer": 0,
   "byteOffset": 34156,
   "byteLength": 108
  },
  {
   "buffer": 0,
   "byteOffset": 34264,
   "byteLength": 36
  },
  {
   "buffer": 0,
   "byteOffset": 34300,
   "byteLength": 144
  },
  {
   "buffer": 0,
   "byteOffset": 34444,
   "byteLength": 8
  },
  {
   "buffer": 0,
   "byteOffset": 34452,
   "byteLength": 24
  },
  {
   "buffer": 0,
   "byteOffset": 34476,
   "byteLength": 36
  },
  {
   "buffer": 0,
   "byteOffset": 34512,
   "byteLength": 144
  },
  {
   "buffer": 0,
   "byteOffset": 34656,
   "byteLength": 8
  },
  {
   "buffer": 0,
   "byteOffset": 34664,
   "byteLength": 24
  },
  {
   "buffer": 0,
   "byteOffset": 34688,
   "byteLength": 36
  },
  {
   "buffer": 0,
   "byteOffset": 34724,
   "byteLength": 144
  },
  {
   "buffer": 0,
   "byteOffset": 34868,
   "byteLength": 8
  },
  {
   "buffer": 0,
   "byteOffset": 34876,
   "byteLength": 24
  },
  {
   "buffer": 0,
   "byteOffset": 34900,
   "byteLength": 36
  },
  {
   "buffer": 0,
   "byteOffset": 34936,
   "byteLength": 144
  },
  {
   "buffer": 0,
   "byteOffset": 35080,
   "byteLength": 8
  },
  {
   "buffer": 0,
   "byteOffset": 35088,
   "byteLength": 24
  },
  {
   "buffer": 0,
   "byteOffset": 35112,
   "byteLength": 16
  },
  {
   "buffer": 0,
   "byteOffset": 35128,
   "byteLength": 64
  },
  {
   "buffer": 0,
   "byteOffset": 35192,
   "byteLength": 8
  },
  {
   "buffer": 0,
   "byteOffset": 35200,
   "byteLength": 24
  },
  {
   "buffer": 0,
   "byteOffset": 35224,
   "byteLength": 16
  },
  {
   "buffer": 0,
   "byteOffset": 35240,
   "byteLength": 64
  },
  {
   "buffer": 0,
   "byteOffset": 35304,
   "byteLength": 8
  },
  {
   "buffer": 0,
   "byteOffset": 35312,
   "byteLength": 24
  },
  {
   "buffer": 0,
   "byteOffset": 35336,
   "byteLength": 16
  },
  {
   "buffer": 0,
   "byteOffset": 35352,
   "byteLength": 64
  },
  {
   "buffer": 0,
   "byteOffset": 35416,
   "byteLength": 8
  },
  {
   "buffer": 0,
   "byteOffset": 35424,
   "byteLength": 24
  },
  {
   "buffer": 0,
   "byteOffset": 35448,
   "byteLength": 16
  },
  {
   "buffer": 0,
   "byteOffset": 35464,
   "byteLength": 64
  },
  {
   "buffer": 0,
   "byteOffset": 35528,
   "byteLength": 8
  },
  {
   "buffer": 0,
   "byteOffset": 35536,
   "byteLength": 24
  },
  {
   "buffer": 0,
   "byteOffset": 35560,
   "byteLength": 16
  },
  {
   "buffer": 0,
   "byteOffset": 35576,
   "byteLength": 64
  },
  {
   "buffer": 0,
   "byteOffset": 35640,
   "byteLength": 8
  },
  {
   "buffer": 0,
   "byteOffset": 35648,
   "byteLength": 24
  },
  {
   "buffer": 0,
   "byteOffset": 35672,
   "byteLength": 16
  },
  {
   "buffer": 0,
   "byteOffset": 35688,
   "byteLength": 64
  },
  {
   "buffer": 0,
   "byteOffset": 35752,
   "byteLength": 8
  },
  {
   "buffer": 0,
   "byteOffset": 35760,
   "byteLength": 24
  },
  {
   "buffer": 0,
   "byteOffset": 35784,
   "byteLength": 16
  },
  {
   "buffer": 0,
   "byteOffset": 35800,
   "byteLength": 64
  },
  {
   "buffer": 0,
   "byteOffset": 35864,
   "byteLength": 8
  },
  {
   "buffer": 0,
   "byteOffset": 35872,
   "byteLength": 24
  },
  {
   "buffer": 0,
   "byteOffset": 35896,
   "byteLength": 28
  },
  {
   "buffer": 0,
   "byteOffset": 35924,
   "byteLength": 112
  },
  {
   "buffer": 0,
   "byteOffset": 36036,
   "byteLength": 8
  },
  {
   "buffer": 0,
   "byteOffset": 36044,
   "byteLength": 24
  },
  {
   "buffer": 0,
   "byteOffset": 36068,
   "byteLength": 12
  },
  {
   "buffer": 0,
   "byteOffset": 36080,
   "byteLength": 48
  },
  {
   "buffer": 0,
   "byteOffset": 36128,
   "byteLength": 8
  },
  {
   "buffer": 0,
   "byteOffset": 36136,
   "byteLength": 24
  },
  {
   "buffer": 0,
   "byteOffset": 36160,
   "byteLength": 8
  },
  {
   "buffer": 0,
   "byteOffset": 36168,
   "byteLength": 32
  },
  {
   "buffer": 0,
   "byteOffset": 36200,
   "byteLength": 8
  },
  {
   "buffer": 0,
   "byteOffset": 36208,
   "byteLength": 24
  },
  {
   "buffer": 0,
   "byteOffset": 36232,
   "byteLength": 36
  },
  {
   "buffer": 0,
   "byteOffset": 36268,
   "byteLength": 108
  },
  {
   "buffer": 0,
   "byteOffset": 36376,
   "byteLength": 36
  },
  {
   "buffer": 0,
   "byteOffset": 36412,
   "byteLength": 144
  },
  {
   "buffer": 0,
   "byteOffset": 36556,
   "byteLength": 8
  },
  {
   "buffer": 0,
   "byteOffset": 36564,
   "byteLength": 24
  },
  {
   "buffer": 0,
   "byteOffset": 36588,
   "byteLength": 36
  },
  {
   "buffer": 0,
   "byteOffset": 36624,
   "byteLength": 144
  },
  {
   "buffer": 0,
   "byteOffset": 36768,
   "byteLength": 8
  },
  {
   "buffer": 0,
   "byteOffset": 36776,
   "byteLength": 24
  },
  {
   "buffer": 0,
   "byteOffset": 36800,
   "byteLength": 36
  },
  {
   "buffer": 0,
   "byteOffset": 36836,
   "byteLength": 144
  },
  {
   "buffer": 0,
   "byteOffset": 36980,
   "byteLength": 8
  },
  {
   "buffer": 0,
   "byteOffset": 36988,
   "byteLength": 24
  },
  {
   "buffer": 0,
   "byteOffset": 37012,
   "byteLength": 36
  },
  {
   "buffer": 0,
   "byteOffset": 37048,
   "byteLength": 144
  },
  {
   "buffer": 0,
   "byteOffset": 37192,
   "byteLength": 8
  },
  {
   "buffer": 0,
   "byteOffset": 37200,
   "byteLength": 24
  },
  {
   "buffer": 0,
   "byteOffset": 37224,
   "byteLength": 36
  },
  {
   "buffer": 0,
   "byteOffset": 37260,
   "byteLength": 144
  },
  {
   "buffer": 0,
   "byteOffset": 37404,
   "byteLength": 8
  },
  {
   "buffer": 0,
   "byteOffset": 37412,
   "byteLength": 24
  },
  {
   "buffer": 0,
   "byteOffset": 37436,
   "byteLength": 36
  },
  {
   "buffer": 0,
   "byteOffset": 37472,
   "byteLength": 144
  },
  {
   "buffer": 0,
   "byteOffset": 37616,
   "byteLength": 8
  },
  {
   "buffer": 0,
   "byteOffset": 37624,
   "byteLength": 24
  },
  {
   "buffer": 0,
   "byteOffset": 37648,
   "byteLength": 36
  },
  {
   "buffer": 0,
   "byteOffset": 37684,
   "byteLength": 108
  },
  {
   "buffer": 0,
   "byteOffset": 37792,
   "byteLength": 36
  },
  {
   "buffer": 0,
   "byteOffset": 37828,
   "byteLength": 144
  },
  {
   "buffer": 0,
   "byteOffset": 37972,
   "byteLength": 8
  },
  {
   "buffer": 0,
   "byteOffset": 37980,
   "byteLength": 24
  },
  {
   "buffer": 0,
   "byteOffset": 38004,
   "byteLength": 36
  },
  {
   "buffer": 0,
   "byteOffset": 38040,
   "byteLength": 144
  },
  {
   "buffer": 0,
   "byteOffset": 38184,
   "byteLength": 8
  },
  {
   "buffer": 0,
   "byteOffset": 38192,
   "byteLength": 24
  },
  {
   "buffer": 0,
   "byteOffset": 38216,
   "byteLength": 36
  },
  {
   "buffer": 0,
   "byteOffset": 38252,
   "byteLength": 144
  },
  {
   "buffer": 0,
   "byteOffset": 38396,
   "byteLength": 8
  },
  {
   "buffer": 0,
   "byteOffset": 38404,
   "byteLength": 24
  },
  {
   "buffer": 0,
   "byteOffset": 38428,
   "byteLength": 36
  },
  {
   "buffer": 0,
   "byteOffset": 38464,
   "byteLength": 144
  },
  {
   "buffer": 0,
   "byteOffset": 38608,
   "byteLength": 8
  },
  {
   "buffer": 0,
   "byteOffset": 38616,
   "byteLength": 24
  },
  {
   "buffer": 0,
   "byteOffset": 38640,
   "byteLength": 36
  },
  {
   "buffer": 0,
   "byteOffset": 38676,
   "byteLength": 108
  },
  {
   "buffer": 0,
   "byteOffset": 38784,
   "byteLength": 36
  },
  {
   "buffer": 0,
   "byteOffset": 38820,
   "byteLength": 144
  },
  {
   "buffer": 0,
   "byteOffset": 38964,
   "byteLength": 8
  },
  {
   "buffer": 0,
   "byteOffset": 38972,
   "byteLength": 24
  },
  {
   "buffer": 0,
   "byteOffset": 38996,
   "byteLength": 36
  },
  {
   "buffer": 0,
   "byteOffset": 39032,
   "byteLength": 144
  },
  {
   "buffer": 0,
   "byteOffset": 39176,
   "byteLength": 8
  },
  {
   "buffer": 0,
   "byteOffset": 39184,
   "byteLength": 24
  },
  {
   "buffer": 0,
   "byteOffset": 39208,
   "byteLength": 36
  },
  {
   "buffer": 0,
   "byteOffset": 39244,
   "byteLength": 144
  },
  {
   "buffer": 0,
   "byteOffset": 39388,
   "byteLength": 8
  },
  {
   "buffer": 0,
   "byteOffset": 39396,
   "byteLength": 24
  },
  {
   "buffer": 0,
   "byteOffset": 39420,
   "byteLength": 36
  },
  {
   "buffer": 0,
   "byteOffset": 39456,
   "byteLength": 144
  },
  {
   "buffer": 0,
   "byteOffset": 39600,
   "byteLength": 8
  },
  {
   "buffer": 0,
   "byteOffset": 39608,
   "byteLength": 24
  },
  {
   "buffer": 0,
   "byteOffset": 39632,
   "byteLength": 28
  },
  {
   "buffer": 0,
   "byteOffset": 39660,
   "byteLength": 84
  },
  {
   "buffer": 0,
   "byteOffset": 39744,
   "byteLength": 12
  },
  {
   "buffer": 0,
   "byteOffset": 39756,
   "byteLength": 48
  },
  {
   "buffer": 0,
   "byteOffset": 39804,
   "byteLength": 8
  },
  {
   "buffer": 0,
   "byteOffset": 39812,
   "byteLength": 24
  },
  {
   "buffer": 0,
   "byteOffset": 39836,
   "byteLength": 12
  },
  {
   "buffer": 0,
   "byteOffset": 39848,
   "byteLength": 48
  },
  {
   "buffer": 0,
   "byteOffset": 39896,
   "byteLength": 8
  },
  {
   "buffer": 0,
   "byteOffset": 39904,
   "byteLength": 24
  },
  {
   "buffer": 0,
   "byteOffset": 39928,
   "byteLength": 12
  },
  {
   "buffer": 0,
   "byteOffset": 39940,
   "byteLength": 48
  },
  {
   "buffer": 0,
   "byteOffset": 39988,
   "byteLength": 8
  },
  {
   "buffer": 0,
   "byteOffset": 39996,
   "byteLength": 24
  },
  {
   "buffer": 0,
   "byteOffset": 40020,
   "byteLength": 12
  },
  {
   "buffer": 0,
   "byteOffset": 40032,
   "byteLength": 48
  },
  {
   "buffer": 0,
   "byteOffset": 40080,
   "byteLength": 8
  },
  {
   "buffer": 0,
   "byteOffset": 40088,
   "byteLength": 24
  },
  {
   "buffer": 0,
   "byteOffset": 40112,
   "byteLength": 20
  },
  {
   "buffer": 0,
   "byteOffset": 40132,
   "byteLength": 80
  },
  {
   "buffer": 0,
   "byteOffset": 40212,
   "byteLength": 20
  },
  {
   "buffer": 0,
   "byteOffset": 40232,
   "byteLength": 60
  }
 ],
 "buffers": [
  {
   "uri": "data:application/octet-stream;base64,",
   "byteLength": 40292
  }
 ]
}
