{
 "asset": {
  "version": "2.0",
  "generator": "gen_purkinje_fixture.py"
 },
 "scene": 0,
 "scenes": [
  {
   "nodes": [
    0,
    1,
    2,
    3,
    4,
    5,
    6,
    7,
    8,
    9,
    10,
    11,
    12,
    13,
    14,
    15,
    16,
    17,
    18,
    19,
    20,
    21,
    22,
    23,
    24,
    25,
    26,
    27,
    28,
    29,
    30,
    31,
    32,
    33,
    34,
    35,
    36,
    37,
    38,
    39,
    40,
    41,
    42,
    43,
    44,
    45,
    46,
    47,
    48
   ]
  }
 ],
 "nodes": [
  {
   "name": "backdrop",
   "mesh": 48,
   "translation": [
    0.0,
    0.0,
    -0.8
   ]
  },
  {
   "name": "pk_neutral_0",
   "mesh": 0,
   "translation": [
    -3.71,
    2.6500000000000004,
    0.0
   ]
  },
  {
   "name": "pk_neutral_1",
   "mesh": 1,
   "translation": [
    -2.6500000000000004,
    2.6500000000000004,
    0.0
   ]
  },
  {
   "name": "pk_neutral_2",
   "mesh": 2,
   "translation": [
    -1.59,
    2.6500000000000004,
    0.0
   ]
  },
  {
   "name": "pk_neutral_3",
   "mesh": 3,
   "translation": [
    -0.53,
    2.6500000000000004,
    0.0
   ]
  },
  {
   "name": "pk_neutral_4",
   "mesh": 4,
   "translation": [
    0.53,
    2.6500000000000004,
    0.0
   ]
  },
  {
   "name": "pk_neutral_5",
   "mesh": 5,
   "translation": [
    1.59,
    2.6500000000000004,
    0.0
   ]
  },
  {
   "name": "pk_neutral_6",
   "mesh": 6,
   "translation": [
    2.6500000000000004,
    2.6500000000000004,
    0.0
   ]
  },
  {
   "name": "pk_neutral_7",
   "mesh": 7,
   "translation": [
    3.71,
    2.6500000000000004,
    0.0
   ]
  },
  {
   "name": "pk_red_0",
   "mesh": 8,
   "translation": [
    -3.71,
    1.59,
    0.0
   ]
  },
  {
   "name": "pk_red_1",
   "mesh": 9,
   "translation": [
    -2.6500000000000004,
    1.59,
    0.0
   ]
  },
  {
   "name": "pk_red_2",
   "mesh": 10,
   "translation": [
    -1.59,
    1.59,
    0.0
   ]
  },
  {
   "name": "pk_red_3",
   "mesh": 11,
   "translation": [
    -0.53,
    1.59,
    0.0
   ]
  },
  {
   "name": "pk_red_4",
   "mesh": 12,
   "translation": [
    0.53,
    1.59,
    0.0
   ]
  },
  {
   "name": "pk_red_5",
   "mesh": 13,
   "translation": [
    1.59,
    1.59,
    0.0
   ]
  },
  {
   "name": "pk_red_6",
   "mesh": 14,
   "translation": [
    2.6500000000000004,
    1.59,
    0.0
   ]
  },
  {
   "name": "pk_red_7",
   "mesh": 15,
   "translation": [
    3.71,
    1.59,
    0.0
   ]
  },
  {
   "name": "pk_green_0",
   "mesh": 16,
   "translation": [
    -3.71,
    0.53,
    0.0
   ]
  },
  {
   "name": "pk_green_1",
   "mesh": 17,
   "translation": [
    -2.6500000000000004,
    0.53,
    0.0
   ]
  },
  {
   "name": "pk_green_2",
   "mesh": 18,
   "translation": [
    -1.59,
    0.53,
    0.0
   ]
  },
  {
   "name": "pk_green_3",
   "mesh": 19,
   "translation": [
    -0.53,
    0.53,
    0.0
   ]
  },
  {
   "name": "pk_green_4",
   "mesh": 20,
   "translation": [
    0.53,
    0.53,
    0.0
   ]
  },
  {
   "name": "pk_green_5",
   "mesh": 21,
   "translation": [
    1.59,
    0.53,
    0.0
   ]
  },
  {
   "name": "pk_green_6",
   "mesh": 22,
   "translation": [
    2.6500000000000004,
    0.53,
    0.0
   ]
  },
  {
   "name": "pk_green_7",
   "mesh": 23,
   "translation": [
    3.71,
    0.53,
    0.0
   ]
  },
  {
   "name": "pk_blue_0",
   "mesh": 24,
   "translation": [
    -3.71,
    -0.53,
    0.0
   ]
  },
  {
   "name": "pk_blue_1",
   "mesh": 25,
   "translation": [
    -2.6500000000000004,
    -0.53,
    0.0
   ]
  },
  {
   "name": "pk_blue_2",
   "mesh": 26,
   "translation": [
    -1.59,
    -0.53,
    0.0
   ]
  },
  {
   "name": "pk_blue_3",
   "mesh": 27,
   "translation": [
    -0.53,
    -0.53,
    0.0
   ]
  },
  {
   "name": "pk_blue_4",
   "mesh": 28,
   "translation": [
    0.53,
    -0.53,
    0.0
   ]
  },
  {
   "name": "pk_blue_5",
   "mesh": 29,
   "translation": [
    1.59,
    -0.53,
    0.0
   ]
  },
  {
   "name": "pk_blue_6",
   "mesh": 30,
   "translation": [
    2.6500000000000004,
    -0.53,
    0.0
   ]
  },
  {
   "name": "pk_blue_7",
   "mesh": 31,
   "translation": [
    3.71,
    -0.53,
    0.0
   ]
  },
  {
   "name": "pk_warm_0",
   "mesh": 32,
   "translation": [
    -3.71,
    -1.59,
    0.0
   ]
  },
  {
   "name": "pk_warm_1",
   "mesh": 33,
   "translation": [
    -2.6500000000000004,
    -1.59,
    0.0
   ]
  },
  {
   "name": "pk_warm_2",
   "mesh": 34,
   "translation": [
    -1.59,
    -1.59,
    0.0
   ]
  },
  {
   "name": "pk_warm_3",
   "mesh": 35,
   "translation": [
    -0.53,
    -1.59,
    0.0
   ]
  },
  {
   "name": "pk_warm_4",
   "mesh": 36,
   "translation": [
    0.53,
    -1.59,
    0.0
   ]
  },
  {
   "name": "pk_warm_5",
   "mesh": 37,
   "translation": [
    1.59,
    -1.59,
    0.0
   ]
  },
  {
   "name": "pk_warm_6",
   "mesh": 38,
   "translation": [
    2.6500000000000004,
    -1.59,
    0.0
   ]
  },
  {
   "name": "pk_warm_7",
   "mesh": 39,
   "translation": [
    3.71,
    -1.59,
    0.0
   ]
  },
  {
   "name": "pk_rodhue_0",
   "mesh": 40,
   "translation": [
    -3.71,
    -2.6500000000000004,
    0.0
   ]
  },
  {
   "name": "pk_rodhue_1",
   "mesh": 41,
   "translation": [
    -2.6500000000000004,
    -2.6500000000000004,
    0.0
   ]
  },
  {
   "name": "pk_rodhue_2",
   "mesh": 42,
   "translation": [
    -1.59,
    -2.6500000000000004,
    0.0
   ]
  },
  {
   "name": "pk_rodhue_3",
   "mesh": 43,
   "translation": [
    -0.53,
    -2.6500000000000004,
    0.0
   ]
  },
  {
   "name": "pk_rodhue_4",
   "mesh": 44,
   "translation": [
    0.53,
    -2.6500000000000004,
    0.0
   ]
  },
  {
   "name": "pk_rodhue_5",
   "mesh": 45,
   "translation": [
    1.59,
    -2.6500000000000004,
    0.0
   ]
  },
  {
   "name": "pk_rodhue_6",
   "mesh": 46,
   "translation": [
    2.6500000000000004,
    -2.6500000000000004,
    0.0
   ]
  },
  {
   "name": "pk_rodhue_7",
   "mesh": 47,
   "translation": [
    3.71,
    -2.6500000000000004,
    0.0
   ]
  }
 ],
 "meshes": [
  {
   "name": "pk_neutral_0",
   "primitives": [
    {
     "attributes": {
      "POSITION": 0,
      "NORMAL": 1
     },
     "indices": 3,
     "material": 0
    }
   ]
  },
  {
   "name": "pk_neutral_1",
   "primitives": [
    {
     "attributes": {
      "POSITION": 0,
      "NORMAL": 1
     },
     "indices": 3,
     "material": 1
    }
   ]
  },
  {
   "name": "pk_neutral_2",
   "primitives": [
    {
     "attributes": {
      "POSITION": 0,
      "NORMAL": 1
     },
     "indices": 3,
     "material": 2
    }
   ]
  },
  {
   "name": "pk_neutral_3",
   "primitives": [
    {
     "attributes": {
      "POSITION": 0,
      "NORMAL": 1
     },
     "indices": 3,
     "material": 3
    }
   ]
  },
  {
   "name": "pk_neutral_4",
   "primitives": [
    {
     "attributes": {
      "POSITION": 0,
      "NORMAL": 1
     },
     "indices": 3,
     "material": 4
    }
   ]
  },
  {
   "name": "pk_neutral_5",
   "primitives": [
    {
     "attributes": {
      "POSITION": 0,
      "NORMAL": 1
     },
     "indices": 3,
     "material": 5
    }
   ]
  },
  {
   "name": "pk_neutral_6",
   "primitives": [
    {
     "attributes": {
      "POSITION": 0,
      "NORMAL": 1
     },
     "indices": 3,
     "material": 6
    }
   ]
  },
  {
   "name": "pk_neutral_7",
   "primitives": [
    {
     "attributes": {
      "POSITION": 0,
      "NORMAL": 1
     },
     "indices": 3,
     "material": 7
    }
   ]
  },
  {
   "name": "pk_red_0",
   "primitives": [
    {
     "attributes": {
      "POSITION": 0,
      "NORMAL": 1
     },
     "indices": 3,
     "material": 8
    }
   ]
  },
  {
   "name": "pk_red_1",
   "primitives": [
    {
     "attributes": {
      "POSITION": 0,
      "NORMAL": 1
     },
     "indices": 3,
     "material": 9
    }
   ]
  },
  {
   "name": "pk_red_2",
   "primitives": [
    {
     "attributes": {
      "POSITION": 0,
      "NORMAL": 1
     },
     "indices": 3,
     "material": 10
    }
   ]
  },
  {
   "name": "pk_red_3",
   "primitives": [
    {
     "attributes": {
      "POSITION": 0,
      "NORMAL": 1
     },
     "indices": 3,
     "material": 11
    }
   ]
  },
  {
   "name": "pk_red_4",
   "primitives": [
    {
     "attributes": {
      "POSITION": 0,
      "NORMAL": 1
     },
     "indices": 3,
     "material": 12
    }
   ]
  },
  {
   "name": "pk_red_5",
   "primitives": [
    {
     "attributes": {
      "POSITION": 0,
      "NORMAL": 1
     },
     "indices": 3,
     "material": 13
    }
   ]
  },
  {
   "name": "pk_red_6",
   "primitives": [
    {
     "attributes": {
      "POSITION": 0,
      "NORMAL": 1
     },
     "indices": 3,
     "material": 14
    }
   ]
  },
  {
   "name": "pk_red_7",
   "primitives": [
    {
     "attributes": {
      "POSITION": 0,
      "NORMAL": 1
     },
     "indices": 3,
     "material": 15
    }
   ]
  },
  {
   "name": "pk_green_0",
   "primitives": [
    {
     "attributes": {
      "POSITION": 0,
      "NORMAL": 1
     },
     "indices": 3,
     "material": 16
    }
   ]
  },
  {
   "name": "pk_green_1",
   "primitives": [
    {
     "attributes": {
      "POSITION": 0,
      "NORMAL": 1
     },
     "indices": 3,
     "material": 17
    }
   ]
  },
  {
   "name": "pk_green_2",
   "primitives": [
    {
     "attributes": {
      "POSITION": 0,
      "NORMAL": 1
     },
     "indices": 3,
     "material": 18
    }
   ]
  },
  {
   "name": "pk_green_3",
   "primitives": [
    {
     "attributes": {
      "POSITION": 0,
      "NORMAL": 1
     },
     "indices": 3,
     "material": 19
    }
   ]
  },
  {
   "name": "pk_green_4",
   "primitives": [
    {
     "attributes": {
      "POSITION": 0,
      "NORMAL": 1
     },
     "indices": 3,
     "material": 20
    }
   ]
  },
  {
   "name": "pk_green_5",
   "primitives": [
    {
     "attributes": {
      "POSITION": 0,
      "NORMAL": 1
     },
     "indices": 3,
     "material": 21
    }
   ]
  },
  {
   "name": "pk_green_6",
   "primitives": [
    {
     "attributes": {
      "POSITION": 0,
      "NORMAL": 1
     },
     "indices": 3,
     "material": 22
    }
   ]
  },
  {
   "name": "pk_green_7",
   "primitives": [
    {
     "attributes": {
      "POSITION": 0,
      "NORMAL": 1
     },
     "indices": 3,
     "material": 23
    }
   ]
  },
  {
   "name": "pk_blue_0",
   "primitives": [
    {
     "attributes": {
      "POSITION": 0,
      "NORMAL": 1
     },
     "indices": 3,
     "material": 24
    }
   ]
  },
  {
   "name": "pk_blue_1",
   "primitives": [
    {
     "attributes": {
      "POSITION": 0,
      "NORMAL": 1
     },
     "indices": 3,
     "material": 25
    }
   ]
  },
  {
   "name": "pk_blue_2",
   "primitives": [
    {
     "attributes": {
      "POSITION": 0,
      "NORMAL": 1
     },
     "indices": 3,
     "material": 26
    }
   ]
  },
  {
   "name": "pk_blue_3",
   "primitives": [
    {
     "attributes": {
      "POSITION": 0,
      "NORMAL": 1
     },
     "indices": 3,
     "material": 27
    }
   ]
  },
  {
   "name": "pk_blue_4",
   "primitives": [
    {
     "attributes": {
      "POSITION": 0,
      "NORMAL": 1
     },
     "indices": 3,
     "material": 28
    }
   ]
  },
  {
   "name": "pk_blue_5",
   "primitives": [
    {
     "attributes": {
      "POSITION": 0,
      "NORMAL": 1
     },
     "indices": 3,
     "material": 29
    }
   ]
  },
  {
   "name": "pk_blue_6",
   "primitives": [
    {
     "attributes": {
      "POSITION": 0,
      "NORMAL": 1
     },
     "indices": 3,
     "material": 30
    }
   ]
  },
  {
   "name": "pk_blue_7",
   "primitives": [
    {
     "attributes": {
      "POSITION": 0,
      "NORMAL": 1
     },
     "indices": 3,
     "material": 31
    }
   ]
  },
  {
   "name": "pk_warm_0",
   "primitives": [
    {
     "attributes": {
      "POSITION": 0,
      "NORMAL": 1
     },
     "indices": 3,
     "material": 32
    }
   ]
  },
  {
   "name": "pk_warm_1",
   "primitives": [
    {
     "attributes": {
      "POSITION": 0,
      "NORMAL": 1
     },
     "indices": 3,
     "material": 33
    }
   ]
  },
  {
   "name": "pk_warm_2",
   "primitives": [
    {
     "attributes": {
      "POSITION": 0,
      "NORMAL": 1
     },
     "indices": 3,
     "material": 34
    }
   ]
  },
  {
   "name": "pk_warm_3",
   "primitives": [
    {
     "attributes": {
      "POSITION": 0,
      "NORMAL": 1
     },
     "indices": 3,
     "material": 35
    }
   ]
  },
  {
   "name": "pk_warm_4",
   "primitives": [
    {
     "attributes": {
      "POSITION": 0,
      "NORMAL": 1
     },
     "indices": 3,
     "material": 36
    }
   ]
  },
  {
   "name": "pk_warm_5",
   "primitives": [
    {
     "attributes": {
      "POSITION": 0,
      "NORMAL": 1
     },
     "indices": 3,
     "material": 37
    }
   ]
  },
  {
   "name": "pk_warm_6",
   "primitives": [
    {
     "attributes": {
      "POSITION": 0,
      "NORMAL": 1
     },
     "indices": 3,
     "material": 38
    }
   ]
  },
  {
   "name": "pk_warm_7",
   "primitives": [
    {
     "attributes": {
      "POSITION": 0,
      "NORMAL": 1
     },
     "indices": 3,
     "material": 39
    }
   ]
  },
  {
   "name": "pk_rodhue_0",
   "primitives": [
    {
     "attributes": {
      "POSITION": 0,
      "NORMAL": 1
     },
     "indices": 3,
     "material": 40
    }
   ]
  },
  {
   "name": "pk_rodhue_1",
   "primitives": [
    {
     "attributes": {
      "POSITION": 0,
      "NORMAL": 1
     },
     "indices": 3,
     "material": 41
    }
   ]
  },
  {
   "name": "pk_rodhue_2",
   "primitives": [
    {
     "attributes": {
      "POSITION": 0,
      "NORMAL": 1
     },
     "indices": 3,
     "material": 42
    }
   ]
  },
  {
   "name": "pk_rodhue_3",
   "primitives": [
    {
     "attributes": {
      "POSITION": 0,
      "NORMAL": 1
     },
     "indices": 3,
     "material": 43
    }
   ]
  },
  {
   "name": "pk_rodhue_4",
   "primitives": [
    {
     "attributes": {
      "POSITION": 0,
      "NORMAL": 1
     },
     "indices": 3,
     "material": 44
    }
   ]
  },
  {
   "name": "pk_rodhue_5",
   "primitives": [
    {
     "attributes": {
      "POSITION": 0,
      "NORMAL": 1
     },
     "indices": 3,
     "material": 45
    }
   ]
  },
  {
   "name": "pk_rodhue_6",
   "primitives": [
    {
     "attributes": {
      "POSITION": 0,
      "NORMAL": 1
     },
     "indices": 3,
     "material": 46
    }
   ]
  },
  {
   "name": "pk_rodhue_7",
   "primitives": [
    {
     "attributes": {
      "POSITION": 0,
      "NORMAL": 1
     },
     "indices": 3,
     "material": 47
    }
   ]
  },
  {
   "name": "backdrop",
   "primitives": [
    {
     "attributes": {
      "POSITION": 2,
      "NORMAL": 1
     },
     "indices": 3,
     "material": 48
    }
   ]
  }
 ],
 "materials": [
  {
   "name": "pk_neutral_0",
   "pbrMetallicRoughness": {
    "baseColorFactor": [
     0.0,
     0.0,
     0.0,
     1.0
    ],
    "metallicFactor": 0.0,
    "roughnessFactor": 1.0
   },
   "emissiveFactor": [
    0.25,
    0.25,
    0.25
   ]
  },
  {
   "name": "pk_neutral_1",
   "pbrMetallicRoughness": {
    "baseColorFactor": [
     0.0,
     0.0,
     0.0,
     1.0
    ],
    "metallicFactor": 0.0,
    "roughnessFactor": 1.0
   },
   "emissiveFactor": [
    0.125,
    0.125,
    0.125
   ]
  },
  {
   "name": "pk_neutral_2",
   "pbrMetallicRoughness": {
    "baseColorFactor": [
     0.0,
     0.0,
     0.0,
     1.0
    ],
    "metallicFactor": 0.0,
    "roughnessFactor": 1.0
   },
   "emissiveFactor": [
    0.0625,
    0.0625,
    0.0625
   ]
  },
  {
   "name": "pk_neutral_3",
   "pbrMetallicRoughness": {
    "baseColorFactor": [
     0.0,
     0.0,
     0.0,
     1.0
    ],
    "metallicFactor": 0.0,
    "roughnessFactor": 1.0
   },
   "emissiveFactor": [
    0.03125,
    0.03125,
    0.03125
   ]
  },
  {
   "name": "pk_neutral_4",
   "pbrMetallicRoughness": {
    "baseColorFactor": [
     0.0,
     0.0,
     0.0,
     1.0
    ],
    "metallicFactor": 0.0,
    "roughnessFactor": 1.0
   },
   "emissiveFactor": [
    0.015625,
    0.015625,
    0.015625
   ]
  },
  {
   "name": "pk_neutral_5",
   "pbrMetallicRoughness": {
    "baseColorFactor": [
     0.0,
     0.0,
     0.0,
     1.0
    ],
    "metallicFactor": 0.0,
    "roughnessFactor": 1.0
   },
   "emissiveFactor": [
    0.007812,
    0.007812,
    0.007812
   ]
  },
  {
   "name": "pk_neutral_6",
   "pbrMetallicRoughness": {
    "baseColorFactor": [
     0.0,
     0.0,
     0.0,
     1.0
    ],
    "metallicFactor": 0.0,
    "roughnessFactor": 1.0
   },
   "emissiveFactor": [
    0.003906,
    0.003906,
    0.003906
   ]
  },
  {
   "name": "pk_neutral_7",
   "pbrMetallicRoughness": {
    "baseColorFactor": [
     0.0,
     0.0,
     0.0,
     1.0
    ],
    "metallicFactor": 0.0,
    "roughnessFactor": 1.0
   },
   "emissiveFactor": [
    0.001953,
    0.001953,
    0.001953
   ]
  },
  {
   "name": "pk_red_0",
   "pbrMetallicRoughness": {
    "baseColorFactor": [
     0.0,
     0.0,
     0.0,
     1.0
    ],
    "metallicFactor": 0.0,
    "roughnessFactor": 1.0
   },
   "emissiveFactor": [
    0.744721,
    0.119155,
    0.089367
   ]
  },
  {
   "name": "pk_red_1",
   "pbrMetallicRoughness": {
    "baseColorFactor": [
     0.0,
     0.0,
     0.0,
     1.0
    ],
    "metallicFactor": 0.0,
    "roughnessFactor": 1.0
   },
   "emissiveFactor": [
    0.372361,
    0.059578,
    0.044683
   ]
  },
  {
   "name": "pk_red_2",
   "pbrMetallicRoughness": {
    "baseColorFactor": [
     0.0,
     0.0,
     0.0,
     1.0
    ],
    "metallicFactor": 0.0,
    "roughnessFactor": 1.0
   },
   "emissiveFactor": [
    0.18618,
    0.029789,
    0.022342
   ]
  },
  {
   "name": "pk_red_3",
   "pbrMetallicRoughness": {
    "baseColorFactor": [
     0.0,
     0.0,
     0.0,
     1.0
    ],
    "metallicFactor": 0.0,
    "roughnessFactor": 1.0
   },
   "emissiveFactor": [
    0.09309,
    0.014894,
    0.011171
   ]
  },
  {
   "name": "pk_red_4",
   "pbrMetallicRoughness": {
    "baseColorFactor": [
     0.0,
     0.0,
     0.0,
     1.0
    ],
    "metallicFactor": 0.0,
    "roughnessFactor": 1.0
   },
   "emissiveFactor": [
    0.046545,
    0.007447,
    0.005585
   ]
  },
  {
   "name": "pk_red_5",
   "pbrMetallicRoughness": {
    "baseColorFactor": [
     0.0,
     0.0,
     0.0,
     1.0
    ],
    "metallicFactor": 0.0,
    "roughnessFactor": 1.0
   },
   "emissiveFactor": [
    0.023273,
    0.003724,
    0.002793
   ]
  },
  {
   "name": "pk_red_6",
   "pbrMetallicRoughness": {
    "baseColorFactor": [
     0.0,
     0.0,
     0.0,
     1.0
    ],
    "metallicFactor": 0.0,
    "roughnessFactor": 1.0
   },
   "emissiveFactor": [
    0.011636,
    0.001862,
    0.001396
   ]
  },
  {
   "name": "pk_red_7",
   "pbrMetallicRoughness": {
    "baseColorFactor": [
     0.0,
     0.0,
     0.0,
     1.0
    ],
    "metallicFactor": 0.0,
    "roughnessFactor": 1.0
   },
   "emissiveFactor": [
    0.005818,
    0.000931,
    0.000698
   ]
  },
  {
   "name": "pk_green_0",
   "pbrMetallicRoughness": {
    "baseColorFactor": [
     0.0,
     0.0,
     0.0,
     1.0
    ],
    "metallicFactor": 0.0,
    "roughnessFactor": 1.0
   },
   "emissiveFactor": [
    0.052281,
    0.326755,
    0.071886
   ]
  },
  {
   "name": "pk_green_1",
   "pbrMetallicRoughness": {
    "baseColorFactor": [
     0.0,
     0.0,
     0.0,
     1.0
    ],
    "metallicFactor": 0.0,
    "roughnessFactor": 1.0
   },
   "emissiveFactor": [
    0.02614,
    0.163377,
    0.035943
   ]
  },
  {
   "name": "pk_green_2",
   "pbrMetallicRoughness": {
    "baseColorFactor": [
     0.0,
     0.0,
     0.0,
     1.0
    ],
    "metallicFactor": 0.0,
    "roughnessFactor": 1.0
   },
   "emissiveFactor": [
    0.01307,
    0.081689,
    0.017972
   ]
  },
  {
   "name": "pk_green_3",
   "pbrMetallicRoughness": {
    "baseColorFactor": [
     0.0,
     0.0,
     0.0,
     1.0
    ],
    "metallicFactor": 0.0,
    "roughnessFactor": 1.0
   },
   "emissiveFactor": [
    0.006535,
    0.040844,
    0.008986
   ]
  },
  {
   "name": "pk_green_4",
   "pbrMetallicRoughness": {
    "baseColorFactor": [
     0.0,
     0.0,
     0.0,
     1.0
    ],
    "metallicFactor": 0.0,
    "roughnessFactor": 1.0
   },
   "emissiveFactor": [
    0.003268,
    0.020422,
    0.004493
   ]
  },
  {
   "name": "pk_green_5",
   "pbrMetallicRoughness": {
    "baseColorFactor": [
     0.0,
     0.0,
     0.0,
     1.0
    ],
    "metallicFactor": 0.0,
    "roughnessFactor": 1.0
   },
   "emissiveFactor": [
    0.001634,
    0.010211,
    0.002246
   ]
  },
  {
   "name": "pk_green_6",
   "pbrMetallicRoughness": {
    "baseColorFactor": [
     0.0,
     0.0,
     0.0,
     1.0
    ],
    "metallicFactor": 0.0,
    "roughnessFactor": 1.0
   },
   "emissiveFactor": [
    0.000817,
    0.005106,
    0.001123
   ]
  },
  {
   "name": "pk_green_7",
   "pbrMetallicRoughness": {
    "baseColorFactor": [
     0.0,
     0.0,
     0.0,
     1.0
    ],
    "metallicFactor": 0.0,
    "roughnessFactor": 1.0
   },
   "emissiveFactor": [
    0.000408,
    0.002553,
    0.000562
   ]
  },
  {
   "name": "pk_blue_0",
   "pbrMetallicRoughness": {
    "baseColorFactor": [
     0.0,
     0.0,
     0.0,
     1.0
    ],
    "metallicFactor": 0.0,
    "roughnessFactor": 1.0
   },
   "emissiveFactor": [
    0.143955,
    0.215933,
    0.899721
   ]
  },
  {
   "name": "pk_blue_1",
   "pbrMetallicRoughness": {
    "baseColorFactor": [
     0.0,
     0.0,
     0.0,
     1.0
    ],
    "metallicFactor": 0.0,
    "roughnessFactor": 1.0
   },
   "emissiveFactor": [
    0.071978,
    0.107966,
    0.44986
   ]
  },
  {
   "name": "pk_blue_2",
   "pbrMetallicRoughness": {
    "baseColorFactor": [
     0.0,
     0.0,
     0.0,
     1.0
    ],
    "metallicFactor": 0.0,
    "roughnessFactor": 1.0
   },
   "emissiveFactor": [
    0.035989,
    0.053983,
    0.22493
   ]
  },
  {
   "name": "pk_blue_3",
   "pbrMetallicRoughness": {
    "baseColorFactor": [
     0.0,
     0.0,
     0.0,
     1.0
    ],
    "metallicFactor": 0.0,
    "roughnessFactor": 1.0
   },
   "emissiveFactor": [
    0.017994,
    0.026992,
    0.112465
   ]
  },
  {
   "name": "pk_blue_4",
   "pbrMetallicRoughness": {
    "baseColorFactor": [
     0.0,
     0.0,
     0.0,
     1.0
    ],
    "metallicFactor": 0.0,
    "roughnessFactor": 1.0
   },
   "emissiveFactor": [
    0.008997,
    0.013496,
    0.056233
   ]
  },
  {
   "name": "pk_blue_5",
   "pbrMetallicRoughness": {
    "baseColorFactor": [
     0.0,
     0.0,
     0.0,
     1.0
    ],
    "metallicFactor": 0.0,
    "roughnessFactor": 1.0
   },
   "emissiveFactor": [
    0.004499,
    0.006748,
    0.028116
   ]
  },
  {
   "name": "pk_blue_6",
   "pbrMetallicRoughness": {
    "baseColorFactor": [
     0.0,
     0.0,
     0.0,
     1.0
    ],
    "metallicFactor": 0.0,
    "roughnessFactor": 1.0
   },
   "emissiveFactor": [
    0.002249,
    0.003374,
    0.014058
   ]
  },
  {
   "name": "pk_blue_7",
   "pbrMetallicRoughness": {
    "baseColorFactor": [
     0.0,
     0.0,
     0.0,
     1.0
    ],
    "metallicFactor": 0.0,
    "roughnessFactor": 1.0
   },
   "emissiveFactor": [
    0.001125,
    0.001687,
    0.007029
   ]
  },
  {
   "name": "pk_warm_0",
   "pbrMetallicRoughness": {
    "baseColorFactor": [
     0.0,
     0.0,
     0.0,
     1.0
    ],
    "metallicFactor": 0.0,
    "roughnessFactor": 1.0
   },
   "emissiveFactor": [
    0.357572,
    0.23137,
    0.117788
   ]
  },
  {
   "name": "pk_warm_1",
   "pbrMetallicRoughness": {
    "baseColorFactor": [
     0.0,
     0.0,
     0.0,
     1.0
    ],
    "metallicFactor": 0.0,
    "roughnessFactor": 1.0
   },
   "emissiveFactor": [
    0.178786,
    0.115685,
    0.058894
   ]
  },
  {
   "name": "pk_warm_2",
   "pbrMetallicRoughness": {
    "baseColorFactor": [
     0.0,
     0.0,
     0.0,
     1.0
    ],
    "metallicFactor": 0.0,
    "roughnessFactor": 1.0
   },
   "emissiveFactor": [
    0.089393,
    0.057843,
    0.029447
   ]
  },
  {
   "name": "pk_warm_3",
   "pbrMetallicRoughness": {
    "baseColorFactor": [
     0.0,
     0.0,
     0.0,
     1.0
    ],
    "metallicFactor": 0.0,
    "roughnessFactor": 1.0
   },
   "emissiveFactor": [
    0.044696,
    0.028921,
    0.014724
   ]
  },
  {
   "name": "pk_warm_4",
   "pbrMetallicRoughness": {
    "baseColorFactor": [
     0.0,
     0.0,
     0.0,
     1.0
    ],
    "metallicFactor": 0.0,
    "roughnessFactor": 1.0
   },
   "emissiveFactor": [
    0.022348,
    0.014461,
    0.007362
   ]
  },
  {
   "name": "pk_warm_5",
   "pbrMetallicRoughness": {
    "baseColorFactor": [
     0.0,
     0.0,
     0.0,
     1.0
    ],
    "metallicFactor": 0.0,
    "roughnessFactor": 1.0
   },
   "emissiveFactor": [
    0.011174,
    0.00723,
    0.003681
   ]
  },
  {
   "name": "pk_warm_6",
   "pbrMetallicRoughness": {
    "baseColorFactor": [
     0.0,
     0.0,
     0.0,
     1.0
    ],
    "metallicFactor": 0.0,
    "roughnessFactor": 1.0
   },
   "emissiveFactor": [
    0.005587,
    0.003615,
    0.00184
   ]
  },
  {
   "name": "pk_warm_7",
   "pbrMetallicRoughness": {
    "baseColorFactor": [
     0.0,
     0.0,
     0.0,
     1.0
    ],
    "metallicFactor": 0.0,
    "roughnessFactor": 1.0
   },
   "emissiveFactor": [
    0.002794,
    0.001808,
    0.00092
   ]
  },
  {
   "name": "pk_rodhue_0",
   "pbrMetallicRoughness": {
    "baseColorFactor": [
     0.0,
     0.0,
     0.0,
     1.0
    ],
    "metallicFactor": 0.0,
    "roughnessFactor": 1.0
   },
   "emissiveFactor": [
    0.20988,
    0.252355,
    0.344803
   ]
  },
  {
   "name": "pk_rodhue_1",
   "pbrMetallicRoughness": {
    "baseColorFactor": [
     0.0,
     0.0,
     0.0,
     1.0
    ],
    "metallicFactor": 0.0,
    "roughnessFactor": 1.0
   },
   "emissiveFactor": [
    0.10494,
    0.126178,
    0.172402
   ]
  },
  {
   "name": "pk_rodhue_2",
   "pbrMetallicRoughness": {
    "baseColorFactor": [
     0.0,
     0.0,
     0.0,
     1.0
    ],
    "metallicFactor": 0.0,
    "roughnessFactor": 1.0
   },
   "emissiveFactor": [
    0.05247,
    0.063089,
    0.086201
   ]
  },
  {
   "name": "pk_rodhue_3",
   "pbrMetallicRoughness": {
    "baseColorFactor": [
     0.0,
     0.0,
     0.0,
     1.0
    ],
    "metallicFactor": 0.0,
    "roughnessFactor": 1.0
   },
   "emissiveFactor": [
    0.026235,
    0.031544,
    0.0431
   ]
  },
  {
   "name": "pk_rodhue_4",
   "pbrMetallicRoughness": {
    "baseColorFactor": [
     0.0,
     0.0,
     0.0,
     1.0
    ],
    "metallicFactor": 0.0,
    "roughnessFactor": 1.0
   },
   "emissiveFactor": [
    0.013118,
    0.015772,
    0.02155
   ]
  },
  {
   "name": "pk_rodhue_5",
   "pbrMetallicRoughness": {
    "baseColorFactor": [
     0.0,
     0.0,
     0.0,
     1.0
    ],
    "metallicFactor": 0.0,
    "roughnessFactor": 1.0
   },
   "emissiveFactor": [
    0.006559,
    0.007886,
    0.010775
   ]
  },
  {
   "name": "pk_rodhue_6",
   "pbrMetallicRoughness": {
    "baseColorFactor": [
     0.0,
     0.0,
     0.0,
     1.0
    ],
    "metallicFactor": 0.0,
    "roughnessFactor": 1.0
   },
   "emissiveFactor": [
    0.003279,
    0.003943,
    0.005388
   ]
  },
  {
   "name": "pk_rodhue_7",
   "pbrMetallicRoughness": {
    "baseColorFactor": [
     0.0,
     0.0,
     0.0,
     1.0
    ],
    "metallicFactor": 0.0,
    "roughnessFactor": 1.0
   },
   "emissiveFactor": [
    0.00164,
    0.001972,
    0.002694
   ]
  },
  {
   "name": "pk_backdrop",
   "pbrMetallicRoughness": {
    "baseColorFactor": [
     0.0,
     0.0,
     0.0,
     1.0
    ],
    "metallicFactor": 0.0,
    "roughnessFactor": 1.0
   }
  }
 ],
 "accessors": [
  {
   "bufferView": 0,
   "componentType": 5126,
   "count": 4,
   "type": "VEC3",
   "min": [
    -0.44,
    -0.44,
    0.0
   ],
   "max": [
    0.44,
    0.44,
    0.0
   ]
  },
  {
   "bufferView": 1,
   "componentType": 5126,
   "count": 4,
   "type": "VEC3"
  },
  {
   "bufferView": 2,
   "componentType": 5126,
   "count": 4,
   "type": "VEC3",
   "min": [
    -13.0,
    -10.0,
    0.0
   ],
   "max": [
    13.0,
    10.0,
    0.0
   ]
  },
  {
   "bufferView": 3,
   "componentType": 5123,
   "count": 6,
   "type": "SCALAR"
  }
 ],
 "bufferViews": [
  {
   "buffer": 0,
   "byteOffset": 0,
   "byteLength": 48,
   "target": 34962
  },
  {
   "buffer": 0,
   "byteOffset": 48,
   "byteLength": 48,
   "target": 34962
  },
  {
   "buffer": 0,
   "byteOffset": 96,
   "byteLength": 48,
   "target": 34962
  },
  {
   "buffer": 0,
   "byteOffset": 144,
   "byteLength": 12,
   "target": 34963
  }
 ],
 "buffers": [
  {
   "uri": "data:application/octet-stream;base64,",
   "byteLength": 156
  }
 ]
}
