{
 "asset": {
  "version": "2.0",
  "generator": "gen_rain_fixture.py"
 },
 "scene": 0,
 "scenes": [
  {
   "nodes": [
    0,
    1,
    2,
    3,
    4,
    5,
    6,
    7
   ]
  }
 ],
 "nodes": [
  {
   "name": "ground_relief",
   "mesh": 0
  },
  {
   "name": "roof",
   "mesh": 1,
   "translation": [
    0.0,
    3.1,
    -4.0
   ],
   "scale": [
    8.0,
    0.2,
    6.0
   ]
  },
  {
   "name": "post_a",
   "mesh": 2,
   "translation": [
    -3.8,
    1.5,
    -1.2
   ],
   "scale": [
    0.2,
    3.0,
    0.2
   ]
  },
  {
   "name": "post_b",
   "mesh": 2,
   "translation": [
    3.8,
    1.5,
    -1.2
   ],
   "scale": [
    0.2,
    3.0,
    0.2
   ]
  },
  {
   "name": "post_c",
   "mesh": 2,
   "translation": [
    -3.8,
    1.5,
    -6.8
   ],
   "scale": [
    0.2,
    3.0,
    0.2
   ]
  },
  {
   "name": "post_d",
   "mesh": 2,
   "translation": [
    3.8,
    1.5,
    -6.8
   ],
   "scale": [
    0.2,
    3.0,
    0.2
   ]
  },
  {
   "name": "wall",
   "mesh": 3,
   "translation": [
    0.0,
    2.0,
    -11.5
   ],
   "scale": [
    20.0,
    4.0,
    0.4
   ]
  },
  {
   "name": "lamp_pole",
   "mesh": 2,
   "translation": [
    6.5,
    2.2,
    -3.0
   ],
   "scale": [
    0.12,
    4.4,
    0.12
   ]
  }
 ],
 "meshes": [
  {
   "name": "rain_relief",
   "primitives": [
    {
     "attributes": {
      "POSITION": 0,
      "NORMAL": 1,
      "TEXCOORD_0": 2
     },
     "indices": 3,
     "material": 0
    }
   ]
  },
  {
   "name": "rain_roof",
   "primitives": [
    {
     "attributes": {
      "POSITION": 4,
      "NORMAL": 5
     },
     "indices": 6,
     "material": 1
    }
   ]
  },
  {
   "name": "rain_post",
   "primitives": [
    {
     "attributes": {
      "POSITION": 4,
      "NORMAL": 5
     },
     "indices": 6,
     "material": 2
    }
   ]
  },
  {
   "name": "rain_wall",
   "primitives": [
    {
     "attributes": {
      "POSITION": 4,
      "NORMAL": 5
     },
     "indices": 6,
     "material": 3
    }
   ]
  }
 ],
 "materials": [
  {
   "name": "rain_relief",
   "pbrMetallicRoughness": {
    "baseColorFactor": [
     0.35,
     0.35,
     0.35,
     1.0
    ],
    "metallicFactor": 0.0,
    "roughnessFactor": 0.85,
    "baseColorTexture": {
     "index": 0
    }
   }
  },
  {
   "name": "rain_roof",
   "pbrMetallicRoughness": {
    "baseColorFactor": [
     0.12,
     0.12,
     0.13,
     1.0
    ],
    "metallicFactor": 0.0,
    "roughnessFactor": 0.7
   }
  },
  {
   "name": "rain_post",
   "pbrMetallicRoughness": {
    "baseColorFactor": [
     0.3,
     0.28,
     0.25,
     1.0
    ],
    "metallicFactor": 0.0,
    "roughnessFactor": 0.8
   }
  },
  {
   "name": "rain_wall",
   "pbrMetallicRoughness": {
    "baseColorFactor": [
     0.45,
     0.28,
     0.22,
     1.0
    ],
    "metallicFactor": 0.0,
    "roughnessFactor": 0.9
   }
  }
 ],
 "textures": [
  {
   "source": 0
  }
 ],
 "images": [
  {
   "uri": "../textures/rain_relief_albedo.png"
  }
 ],
 "accessors": [
  {
   "bufferView": 0,
   "componentType": 5126,
   "count": 4,
   "type": "VEC3",
   "min": [
    -10.0,
    0.0,
    -12.0
   ],
   "max": [
    10.0,
    0.0,
    12.0
   ]
  },
  {
   "bufferView": 1,
   "componentType": 5126,
   "count": 4,
   "type": "VEC3"
  },
  {
   "bufferView": 2,
   "componentType": 5126,
   "count": 4,
   "type": "VEC2"
  },
  {
   "bufferView": 3,
   "componentType": 5123,
   "count": 6,
   "type": "SCALAR"
  },
  {
   "bufferView": 4,
   "componentType": 5126,
   "count": 24,
   "type": "VEC3",
   "min": [
    -0.5,
    -0.5,
    -0.5
   ],
   "max": [
    0.5,
    0.5,
    0.5
   ]
  },
  {
   "bufferView": 5,
   "componentType": 5126,
   "count": 24,
   "type": "VEC3"
  },
  {
   "bufferView": 6,
   "componentType": 5123,
   "count": 36,
   "type": "SCALAR"
  }
 ],
 "bufferViews": [
  {
   "buffer": 0,
   "byteOffset": 0,
   "byteLength": 48,
   "target": 34962
  },
  {
   "buffer": 0,
   "byteOffset": 48,
   "byteLength": 48,
   "target": 34962
  },
  {
   "buffer": 0,
   "byteOffset": 96,
   "byteLength": 32,
   "target": 34962
  },
  {
   "buffer": 0,
   "byteOffset": 128,
   "byteLength": 12,
   "target": 34963
  },
  {
   "buffer": 0,
   "byteOffset": 140,
   "byteLength": 288,
   "target": 34962
  },
  {
   "buffer": 0,
   "byteOffset": 428,
   "byteLength": 288,
   "target": 34962
  },
  {
   "buffer": 0,
   "byteOffset": 716,
   "byteLength": 72,
   "target": 34963
  }
 ],
 "buffers": [
  {
   "uri": "data:application/octet-stream;base64,",
   "byteLength": 788
  }
 ]
}
