{
 "asset": {
  "version": "2.0",
  "generator": "gen_shader_hooks_fixture.py"
 },
 "scene": 0,
 "scenes": [
  {
   "nodes": [
    0,
    1,
    2,
    3,
    4,
    5,
    6,
    7,
    8,
    9,
    10,
    11
   ]
  }
 ],
 "nodes": [
  {
   "name": "floor",
   "mesh": 0,
   "translation": [
    0.0,
    -0.05,
    -0.5
   ],
   "scale": [
    14.0,
    0.1,
    9.0
   ]
  },
  {
   "name": "wall",
   "mesh": 1,
   "translation": [
    0.0,
    2.5,
    -4.9
   ],
   "scale": [
    14.0,
    5.0,
    0.20000000000000018
   ]
  },
  {
   "name": "stripes",
   "mesh": 2,
   "translation": [
    -4.0,
    0.6,
    -0.4
   ],
   "scale": [
    1.1999999999999997,
    1.2,
    1.2
   ]
  },
  {
   "name": "key_a",
   "mesh": 3,
   "translation": [
    -2.5,
    0.4,
    -0.1
   ],
   "scale": [
    0.7999999999999998,
    0.8,
    0.8
   ]
  },
  {
   "name": "key_b",
   "mesh": 4,
   "translation": [
    -1.5,
    0.4,
    -0.1
   ],
   "scale": [
    0.7999999999999998,
    0.8,
    0.8
   ]
  },
  {
   "name": "param_a",
   "mesh": 5,
   "translation": [
    -0.4,
    0.4,
    -0.1
   ],
   "scale": [
    0.8,
    0.8,
    0.8
   ]
  },
  {
   "name": "param_b",
   "mesh": 6,
   "translation": [
    0.6,
    0.4,
    -0.1
   ],
   "scale": [
    0.8,
    0.8,
    0.8
   ]
  },
  {
   "name": "card",
   "mesh": 7,
   "translation": [
    2.2,
    0.7,
    -0.6
   ],
   "scale": [
    1.1999999999999997,
    1.4,
    0.040000000000000036
   ]
  },
  {
   "name": "dome",
   "mesh": 8,
   "translation": [
    4.2,
    0.005,
    -0.4
   ],
   "scale": [
    1.6,
    1.0,
    1.6
   ]
  },
  {
   "name": "pushed",
   "mesh": 9,
   "translation": [
    -0.2,
    2.3,
    0.6
   ],
   "scale": [
    0.6,
    0.6,
    1.0
   ]
  },
  {
   "name": "static",
   "mesh": 10,
   "translation": [
    -3.9000000000000004,
    2.6,
    -3.8
   ],
   "scale": [
    2.6,
    1.8,
    1.0
   ]
  },
  {
   "name": "post",
   "mesh": 11,
   "translation": [
    -3.95,
    1.8,
    -3.15
   ],
   "scale": [
    0.5,
    3.6,
    0.5
   ]
  }
 ],
 "meshes": [
  {
   "name": "floor",
   "primitives": [
    {
     "attributes": {
      "POSITION": 0,
      "NORMAL": 1,
      "TEXCOORD_0": 2
     },
     "indices": 3,
     "material": 0
    }
   ]
  },
  {
   "name": "wall",
   "primitives": [
    {
     "attributes": {
      "POSITION": 0,
      "NORMAL": 1,
      "TEXCOORD_0": 2
     },
     "indices": 3,
     "material": 1
    }
   ]
  },
  {
   "name": "stripes",
   "primitives": [
    {
     "attributes": {
      "POSITION": 0,
      "NORMAL": 1,
      "TEXCOORD_0": 2
     },
     "indices": 3,
     "material": 2
    }
   ]
  },
  {
   "name": "key_a",
   "primitives": [
    {
     "attributes": {
      "POSITION": 0,
      "NORMAL": 1,
      "TEXCOORD_0": 2
     },
     "indices": 3,
     "material": 3
    }
   ]
  },
  {
   "name": "key_b",
   "primitives": [
    {
     "attributes": {
      "POSITION": 0,
      "NORMAL": 1,
      "TEXCOORD_0": 2
     },
     "indices": 3,
     "material": 4
    }
   ]
  },
  {
   "name": "param_a",
   "primitives": [
    {
     "attributes": {
      "POSITION": 0,
      "NORMAL": 1,
      "TEXCOORD_0": 2
     },
     "indices": 3,
     "material": 5
    }
   ]
  },
  {
   "name": "param_b",
   "primitives": [
    {
     "attributes": {
      "POSITION": 0,
      "NORMAL": 1,
      "TEXCOORD_0": 2
     },
     "indices": 3,
     "material": 6
    }
   ]
  },
  {
   "name": "card",
   "primitives": [
    {
     "attributes": {
      "POSITION": 0,
      "NORMAL": 1,
      "TEXCOORD_0": 2
     },
     "indices": 3,
     "material": 7
    }
   ]
  },
  {
   "name": "dome",
   "primitives": [
    {
     "attributes": {
      "POSITION": 4,
      "NORMAL": 5,
      "TEXCOORD_0": 6
     },
     "indices": 7,
     "material": 8
    }
   ]
  },
  {
   "name": "pushed",
   "primitives": [
    {
     "attributes": {
      "POSITION": 8,
      "NORMAL": 9,
      "TEXCOORD_0": 10
     },
     "indices": 11,
     "material": 10
    }
   ]
  },
  {
   "name": "static",
   "primitives": [
    {
     "attributes": {
      "POSITION": 8,
      "NORMAL": 9,
      "TEXCOORD_0": 10
     },
     "indices": 11,
     "material": 9
    }
   ]
  },
  {
   "name": "post",
   "primitives": [
    {
     "attributes": {
      "POSITION": 0,
      "NORMAL": 1,
      "TEXCOORD_0": 2
     },
     "indices": 3,
     "material": 11
    }
   ]
  }
 ],
 "materials": [
  {
   "name": "hooks_floor",
   "pbrMetallicRoughness": {
    "baseColorFactor": [
     0.45,
     0.45,
     0.45,
     1.0
    ],
    "metallicFactor": 0.0,
    "roughnessFactor": 0.8
   }
  },
  {
   "name": "hooks_wall",
   "pbrMetallicRoughness": {
    "baseColorFactor": [
     0.35,
     0.36,
     0.4,
     1.0
    ],
    "metallicFactor": 0.0,
    "roughnessFactor": 0.9
   }
  },
  {
   "name": "hooks_stripes",
   "pbrMetallicRoughness": {
    "baseColorFactor": [
     0.7,
     0.7,
     0.7,
     1.0
    ],
    "metallicFactor": 0.0,
    "roughnessFactor": 0.6
   }
  },
  {
   "name": "hooks_key_a",
   "pbrMetallicRoughness": {
    "baseColorFactor": [
     0.7,
     0.7,
     0.7,
     1.0
    ],
    "metallicFactor": 0.0,
    "roughnessFactor": 0.6
   }
  },
  {
   "name": "hooks_key_b",
   "pbrMetallicRoughness": {
    "baseColorFactor": [
     0.7,
     0.7,
     0.7,
     1.0
    ],
    "metallicFactor": 0.0,
    "roughnessFactor": 0.6
   }
  },
  {
   "name": "hooks_param_a",
   "pbrMetallicRoughness": {
    "baseColorFactor": [
     0.7,
     0.7,
     0.7,
     1.0
    ],
    "metallicFactor": 0.0,
    "roughnessFactor": 0.6
   }
  },
  {
   "name": "hooks_param_b",
   "pbrMetallicRoughness": {
    "baseColorFactor": [
     0.7,
     0.7,
     0.7,
     1.0
    ],
    "metallicFactor": 0.0,
    "roughnessFactor": 0.6
   }
  },
  {
   "name": "hooks_card",
   "pbrMetallicRoughness": {
    "baseColorFactor": [
     0.75,
     0.6,
     0.35,
     1.0
    ],
    "metallicFactor": 0.0,
    "roughnessFactor": 0.7
   },
   "alphaMode": "MASK",
   "alphaCutoff": 0.5,
   "doubleSided": true
  },
  {
   "name": "hooks_dome",
   "pbrMetallicRoughness": {
    "baseColorFactor": [
     0.3,
     0.5,
     0.7,
     1.0
    ],
    "metallicFactor": 0.0,
    "roughnessFactor": 0.5
   }
  },
  {
   "name": "hooks_static",
   "pbrMetallicRoughness": {
    "baseColorFactor": [
     0.02,
     0.02,
     0.02,
     1.0
    ],
    "metallicFactor": 0.0,
    "roughnessFactor": 0.3
   }
  },
  {
   "name": "hooks_pushed",
   "pbrMetallicRoughness": {
    "baseColorFactor": [
     0.8,
     0.55,
     0.1,
     1.0
    ],
    "metallicFactor": 0.0,
    "roughnessFactor": 0.6
   }
  },
  {
   "name": "hooks_post",
   "pbrMetallicRoughness": {
    "baseColorFactor": [
     0.25,
     0.22,
     0.2,
     1.0
    ],
    "metallicFactor": 0.0,
    "roughnessFactor": 0.8
   }
  }
 ],
 "accessors": [
  {
   "bufferView": 0,
   "componentType": 5126,
   "count": 24,
   "type": "VEC3",
   "min": [
    -0.5,
    -0.5,
    -0.5
   ],
   "max": [
    0.5,
    0.5,
    0.5
   ]
  },
  {
   "bufferView": 1,
   "componentType": 5126,
   "count": 24,
   "type": "VEC3"
  },
  {
   "bufferView": 2,
   "componentType": 5126,
   "count": 24,
   "type": "VEC2"
  },
  {
   "bufferView": 3,
   "componentType": 5125,
   "count": 36,
   "type": "SCALAR"
  },
  {
   "bufferView": 4,
   "componentType": 5126,
   "count": 2401,
   "type": "VEC3",
   "min": [
    -0.5,
    0.0,
    -0.5
   ],
   "max": [
    0.5,
    0.0,
    0.5
   ]
  },
  {
   "bufferView": 5,
   "componentType": 5126,
   "count": 2401,
   "type": "VEC3"
  },
  {
   "bufferView": 6,
   "componentType": 5126,
   "count": 2401,
   "type": "VEC2"
  },
  {
   "bufferView": 7,
   "componentType": 5125,
   "count": 13824,
   "type": "SCALAR"
  },
  {
   "bufferView": 8,
   "componentType": 5126,
   "count": 4,
   "type": "VEC3",
   "min": [
    -0.5,
    -0.5,
    0
   ],
   "max": [
    0.5,
    0.5,
    0
   ]
  },
  {
   "bufferView": 9,
   "componentType": 5126,
   "count": 4,
   "type": "VEC3"
  },
  {
   "bufferView": 10,
   "componentType": 5126,
   "count": 4,
   "type": "VEC2"
  },
  {
   "bufferView": 11,
   "componentType": 5125,
   "count": 6,
   "type": "SCALAR"
  }
 ],
 "bufferViews": [
  {
   "buffer": 0,
   "byteOffset": 0,
   "byteLength": 288,
   "target": 34962
  },
  {
   "buffer": 0,
   "byteOffset": 288,
   "byteLength": 288,
   "target": 34962
  },
  {
   "buffer": 0,
   "byteOffset": 576,
   "byteLength": 192,
   "target": 34962
  },
  {
   "buffer": 0,
   "byteOffset": 768,
   "byteLength": 144,
   "target": 34963
  },
  {
   "buffer": 0,
   "byteOffset": 912,
   "byteLength": 28812,
   "target": 34962
  },
  {
   "buffer": 0,
   "byteOffset": 29724,
   "byteLength": 28812,
   "target": 34962
  },
  {
   "buffer": 0,
   "byteOffset": 58536,
   "byteLength": 19208,
   "target": 34962
  },
  {
   "buffer": 0,
   "byteOffset": 77744,
   "byteLength": 55296,
   "target": 34963
  },
  {
   "buffer": 0,
   "byteOffset": 133040,
   "byteLength": 48,
   "target": 34962
  },
  {
   "buffer": 0,
   "byteOffset": 133088,
   "byteLength": 48,
   "target": 34962
  },
  {
   "buffer": 0,
   "byteOffset": 133136,
   "byteLength": 32,
   "target": 34962
  },
  {
   "buffer": 0,
   "byteOffset": 133168,
   "byteLength": 24,
   "target": 34963
  }
 ],
 "buffers": [
  {
   "uri": "data:application/octet-stream;base64,",
   "byteLength": 133192
  }
 ]
}
