{
 "asset": {
  "version": "2.0",
  "generator": "gen_skinned_cull_fixture.py"
 },
 "scene": 0,
 "scenes": [
  {
   "nodes": [
    0,
    1,
    2
   ]
  }
 ],
 "nodes": [
  {
   "name": "backdrop",
   "mesh": 1
  },
  {
   "name": "swing_joint"
  },
  {
   "name": "swing_panel",
   "mesh": 0,
   "skin": 0
  }
 ],
 "skins": [
  {
   "inverseBindMatrices": 6,
   "joints": [
    1
   ],
   "skeleton": 1
  }
 ],
 "meshes": [
  {
   "name": "swing_panel",
   "primitives": [
    {
     "attributes": {
      "POSITION": 0,
      "NORMAL": 2,
      "TEXCOORD_0": 3,
      "JOINTS_0": 4,
      "WEIGHTS_0": 5
     },
     "indices": 9,
     "material": 0
    }
   ]
  },
  {
   "name": "backdrop",
   "primitives": [
    {
     "attributes": {
      "POSITION": 1,
      "NORMAL": 2,
      "TEXCOORD_0": 3
     },
     "indices": 9,
     "material": 1
    }
   ]
  }
 ],
 "animations": [
  {
   "name": "swing",
   "samplers": [
    {
     "input": 7,
     "output": 8,
     "interpolation": "LINEAR"
    }
   ],
   "channels": [
    {
     "sampler": 0,
     "target": {
      "node": 1,
      "path": "rotation"
     }
    }
   ]
  }
 ],
 "materials": [
  {
   "name": "skin_cull_panel",
   "pbrMetallicRoughness": {
    "baseColorFactor": [
     0.95,
     0.8,
     0.15,
     1.0
    ],
    "metallicFactor": 0.0,
    "roughnessFactor": 0.9
   }
  },
  {
   "name": "skin_cull_backdrop",
   "pbrMetallicRoughness": {
    "baseColorFactor": [
     0.04,
     0.04,
     0.05,
     1.0
    ],
    "metallicFactor": 0.0,
    "roughnessFactor": 0.9
   }
  }
 ],
 "accessors": [
  {
   "bufferView": 0,
   "componentType": 5126,
   "count": 4,
   "type": "VEC3",
   "min": [
    -6.956503098037204,
    -0.55,
    0.0
   ],
   "max": [
    -5.856503098037204,
    0.55,
    0.0
   ]
  },
  {
   "bufferView": 1,
   "componentType": 5126,
   "count": 4,
   "type": "VEC3",
   "min": [
    -14.0,
    -8.0,
    -4.0
   ],
   "max": [
    14.0,
    14.0,
    -4.0
   ]
  },
  {
   "bufferView": 2,
   "componentType": 5126,
   "count": 4,
   "type": "VEC3"
  },
  {
   "bufferView": 3,
   "componentType": 5126,
   "count": 4,
   "type": "VEC2"
  },
  {
   "bufferView": 4,
   "componentType": 5123,
   "count": 4,
   "type": "VEC4"
  },
  {
   "bufferView": 5,
   "componentType": 5126,
   "count": 4,
   "type": "VEC4"
  },
  {
   "bufferView": 6,
   "componentType": 5126,
   "count": 1,
   "type": "MAT4"
  },
  {
   "bufferView": 7,
   "componentType": 5126,
   "count": 3,
   "type": "SCALAR",
   "min": [
    0.0
   ],
   "max": [
    4.0
   ]
  },
  {
   "bufferView": 8,
   "componentType": 5126,
   "count": 3,
   "type": "VEC4"
  },
  {
   "bufferView": 9,
   "componentType": 5123,
   "count": 6,
   "type": "SCALAR"
  }
 ],
 "bufferViews": [
  {
   "buffer": 0,
   "byteOffset": 0,
   "byteLength": 48,
   "target": 34962
  },
  {
   "buffer": 0,
   "byteOffset": 48,
   "byteLength": 48,
   "target": 34962
  },
  {
   "buffer": 0,
   "byteOffset": 96,
   "byteLength": 48,
   "target": 34962
  },
  {
   "buffer": 0,
   "byteOffset": 144,
   "byteLength": 32,
   "target": 34962
  },
  {
   "buffer": 0,
   "byteOffset": 176,
   "byteLength": 32,
   "target": 34962
  },
  {
   "buffer": 0,
   "byteOffset": 208,
   "byteLength": 64,
   "target": 34962
  },
  {
   "buffer": 0,
   "byteOffset": 272,
   "byteLength": 64
  },
  {
   "buffer": 0,
   "byteOffset": 336,
   "byteLength": 12
  },
  {
   "buffer": 0,
   "byteOffset": 348,
   "byteLength": 48
  },
  {
   "buffer": 0,
   "byteOffset": 396,
   "byteLength": 12,
   "target": 34963
  }
 ],
 "buffers": [
  {
   "uri": "data:application/octet-stream;base64,",
   "byteLength": 408
  }
 ]
}
