{
 "asset": {
  "version": "2.0",
  "generator": "gen_stream_rooms.py"
 },
 "scene": 0,
 "scenes": [
  {
   "nodes": [
    0,
    1,
    2,
    3,
    4,
    5,
    6,
    7,
    8,
    9,
    10,
    11,
    12,
    13,
    14,
    15,
    16,
    17,
    18,
    19,
    20,
    21,
    22,
    23,
    24,
    25,
    26,
    27,
    28,
    29
   ]
  }
 ],
 "nodes": [
  {
   "name": "room0_colour",
   "mesh": 0
  },
  {
   "name": "room0_white",
   "mesh": 1
  },
  {
   "name": "room0_floor",
   "mesh": 2
  },
  {
   "name": "room1_colour",
   "mesh": 3
  },
  {
   "name": "room1_white",
   "mesh": 4
  },
  {
   "name": "room1_floor",
   "mesh": 5
  },
  {
   "name": "room2_colour",
   "mesh": 6
  },
  {
   "name": "room2_white",
   "mesh": 7
  },
  {
   "name": "room2_floor",
   "mesh": 8
  },
  {
   "name": "room3_colour",
   "mesh": 9
  },
  {
   "name": "room3_white",
   "mesh": 10
  },
  {
   "name": "room3_floor",
   "mesh": 11
  },
  {
   "name": "room4_colour",
   "mesh": 12
  },
  {
   "name": "room4_white",
   "mesh": 13
  },
  {
   "name": "room4_floor",
   "mesh": 14
  },
  {
   "name": "room5_colour",
   "mesh": 15
  },
  {
   "name": "room5_white",
   "mesh": 16
  },
  {
   "name": "room5_floor",
   "mesh": 17
  },
  {
   "name": "room6_colour",
   "mesh": 18
  },
  {
   "name": "room6_white",
   "mesh": 19
  },
  {
   "name": "room6_floor",
   "mesh": 20
  },
  {
   "name": "room7_colour",
   "mesh": 21
  },
  {
   "name": "room7_white",
   "mesh": 22
  },
  {
   "name": "room7_floor",
   "mesh": 23
  },
  {
   "name": "room8_colour",
   "mesh": 24
  },
  {
   "name": "room8_white",
   "mesh": 25
  },
  {
   "name": "room8_floor",
   "mesh": 26
  },
  {
   "name": "room9_colour",
   "mesh": 27
  },
  {
   "name": "room9_white",
   "mesh": 28
  },
  {
   "name": "room9_floor",
   "mesh": 29
  }
 ],
 "meshes": [
  {
   "name": "room0_colour",
   "primitives": [
    {
     "attributes": {
      "POSITION": 0,
      "NORMAL": 1
     },
     "indices": 2,
     "material": 0
    }
   ]
  },
  {
   "name": "room0_white",
   "primitives": [
    {
     "attributes": {
      "POSITION": 0,
      "NORMAL": 1
     },
     "indices": 3,
     "material": 1
    }
   ]
  },
  {
   "name": "room0_floor",
   "primitives": [
    {
     "attributes": {
      "POSITION": 0,
      "NORMAL": 1
     },
     "indices": 4,
     "material": 2
    }
   ]
  },
  {
   "name": "room1_colour",
   "primitives": [
    {
     "attributes": {
      "POSITION": 0,
      "NORMAL": 1
     },
     "indices": 5,
     "material": 3
    }
   ]
  },
  {
   "name": "room1_white",
   "primitives": [
    {
     "attributes": {
      "POSITION": 0,
      "NORMAL": 1
     },
     "indices": 6,
     "material": 4
    }
   ]
  },
  {
   "name": "room1_floor",
   "primitives": [
    {
     "attributes": {
      "POSITION": 0,
      "NORMAL": 1
     },
     "indices": 7,
     "material": 5
    }
   ]
  },
  {
   "name": "room2_colour",
   "primitives": [
    {
     "attributes": {
      "POSITION": 0,
      "NORMAL": 1
     },
     "indices": 8,
     "material": 6
    }
   ]
  },
  {
   "name": "room2_white",
   "primitives": [
    {
     "attributes": {
      "POSITION": 0,
      "NORMAL": 1
     },
     "indices": 9,
     "material": 7
    }
   ]
  },
  {
   "name": "room2_floor",
   "primitives": [
    {
     "attributes": {
      "POSITION": 0,
      "NORMAL": 1
     },
     "indices": 10,
     "material": 8
    }
   ]
  },
  {
   "name": "room3_colour",
   "primitives": [
    {
     "attributes": {
      "POSITION": 0,
      "NORMAL": 1
     },
     "indices": 11,
     "material": 9
    }
   ]
  },
  {
   "name": "room3_white",
   "primitives": [
    {
     "attributes": {
      "POSITION": 0,
      "NORMAL": 1
     },
     "indices": 12,
     "material": 10
    }
   ]
  },
  {
   "name": "room3_floor",
   "primitives": [
    {
     "attributes": {
      "POSITION": 0,
      "NORMAL": 1
     },
     "indices": 13,
     "material": 11
    }
   ]
  },
  {
   "name": "room4_colour",
   "primitives": [
    {
     "attributes": {
      "POSITION": 0,
      "NORMAL": 1
     },
     "indices": 14,
     "material": 12
    }
   ]
  },
  {
   "name": "room4_white",
   "primitives": [
    {
     "attributes": {
      "POSITION": 0,
      "NORMAL": 1
     },
     "indices": 15,
     "material": 13
    }
   ]
  },
  {
   "name": "room4_floor",
   "primitives": [
    {
     "attributes": {
      "POSITION": 0,
      "NORMAL": 1
     },
     "indices": 16,
     "material": 14
    }
   ]
  },
  {
   "name": "room5_colour",
   "primitives": [
    {
     "attributes": {
      "POSITION": 0,
      "NORMAL": 1
     },
     "indices": 17,
     "material": 15
    }
   ]
  },
  {
   "name": "room5_white",
   "primitives": [
    {
     "attributes": {
      "POSITION": 0,
      "NORMAL": 1
     },
     "indices": 18,
     "material": 16
    }
   ]
  },
  {
   "name": "room5_floor",
   "primitives": [
    {
     "attributes": {
      "POSITION": 0,
      "NORMAL": 1
     },
     "indices": 19,
     "material": 17
    }
   ]
  },
  {
   "name": "room6_colour",
   "primitives": [
    {
     "attributes": {
      "POSITION": 0,
      "NORMAL": 1
     },
     "indices": 20,
     "material": 18
    }
   ]
  },
  {
   "name": "room6_white",
   "primitives": [
    {
     "attributes": {
      "POSITION": 0,
      "NORMAL": 1
     },
     "indices": 21,
     "material": 19
    }
   ]
  },
  {
   "name": "room6_floor",
   "primitives": [
    {
     "attributes": {
      "POSITION": 0,
      "NORMAL": 1
     },
     "indices": 22,
     "material": 20
    }
   ]
  },
  {
   "name": "room7_colour",
   "primitives": [
    {
     "attributes": {
      "POSITION": 0,
      "NORMAL": 1
     },
     "indices": 23,
     "material": 21
    }
   ]
  },
  {
   "name": "room7_white",
   "primitives": [
    {
     "attributes": {
      "POSITION": 0,
      "NORMAL": 1
     },
     "indices": 24,
     "material": 22
    }
   ]
  },
  {
   "name": "room7_floor",
   "primitives": [
    {
     "attributes": {
      "POSITION": 0,
      "NORMAL": 1
     },
     "indices": 25,
     "material": 23
    }
   ]
  },
  {
   "name": "room8_colour",
   "primitives": [
    {
     "attributes": {
      "POSITION": 0,
      "NORMAL": 1
     },
     "indices": 26,
     "material": 24
    }
   ]
  },
  {
   "name": "room8_white",
   "primitives": [
    {
     "attributes": {
      "POSITION": 0,
      "NORMAL": 1
     },
     "indices": 27,
     "material": 25
    }
   ]
  },
  {
   "name": "room8_floor",
   "primitives": [
    {
     "attributes": {
      "POSITION": 0,
      "NORMAL": 1
     },
     "indices": 28,
     "material": 26
    }
   ]
  },
  {
   "name": "room9_colour",
   "primitives": [
    {
     "attributes": {
      "POSITION": 0,
      "NORMAL": 1
     },
     "indices": 29,
     "material": 27
    }
   ]
  },
  {
   "name": "room9_white",
   "primitives": [
    {
     "attributes": {
      "POSITION": 0,
      "NORMAL": 1
     },
     "indices": 30,
     "material": 28
    }
   ]
  },
  {
   "name": "room9_floor",
   "primitives": [
    {
     "attributes": {
      "POSITION": 0,
      "NORMAL": 1
     },
     "indices": 31,
     "material": 29
    }
   ]
  }
 ],
 "materials": [
  {
   "name": "room0_colour",
   "pbrMetallicRoughness": {
    "baseColorFactor": [
     0.62,
     0.09,
     0.08,
     1.0
    ],
    "metallicFactor": 0.0,
    "roughnessFactor": 1.0
   }
  },
  {
   "name": "room0_white",
   "pbrMetallicRoughness": {
    "baseColorFactor": [
     0.72,
     0.71,
     0.69,
     1.0
    ],
    "metallicFactor": 0.0,
    "roughnessFactor": 1.0
   }
  },
  {
   "name": "room0_floor",
   "pbrMetallicRoughness": {
    "baseColorFactor": [
     0.3,
     0.29,
     0.28,
     1.0
    ],
    "metallicFactor": 0.0,
    "roughnessFactor": 0.12
   }
  },
  {
   "name": "room1_colour",
   "pbrMetallicRoughness": {
    "baseColorFactor": [
     0.11,
     0.5,
     0.13,
     1.0
    ],
    "metallicFactor": 0.0,
    "roughnessFactor": 1.0
   }
  },
  {
   "name": "room1_white",
   "pbrMetallicRoughness": {
    "baseColorFactor": [
     0.72,
     0.71,
     0.69,
     1.0
    ],
    "metallicFactor": 0.0,
    "roughnessFactor": 1.0
   }
  },
  {
   "name": "room1_floor",
   "pbrMetallicRoughness": {
    "baseColorFactor": [
     0.3,
     0.29,
     0.28,
     1.0
    ],
    "metallicFactor": 0.0,
    "roughnessFactor": 0.12
   }
  },
  {
   "name": "room2_colour",
   "pbrMetallicRoughness": {
    "baseColorFactor": [
     0.1,
     0.16,
     0.62,
     1.0
    ],
    "metallicFactor": 0.0,
    "roughnessFactor": 1.0
   }
  },
  {
   "name": "room2_white",
   "pbrMetallicRoughness": {
    "baseColorFactor": [
     0.72,
     0.71,
     0.69,
     1.0
    ],
    "metallicFactor": 0.0,
    "roughnessFactor": 1.0
   }
  },
  {
   "name": "room2_floor",
   "pbrMetallicRoughness": {
    "baseColorFactor": [
     0.3,
     0.29,
     0.28,
     1.0
    ],
    "metallicFactor": 0.0,
    "roughnessFactor": 0.12
   }
  },
  {
   "name": "room3_colour",
   "pbrMetallicRoughness": {
    "baseColorFactor": [
     0.66,
     0.58,
     0.08,
     1.0
    ],
    "metallicFactor": 0.0,
    "roughnessFactor": 1.0
   }
  },
  {
   "name": "room3_white",
   "pbrMetallicRoughness": {
    "baseColorFactor": [
     0.72,
     0.71,
     0.69,
     1.0
    ],
    "metallicFactor": 0.0,
    "roughnessFactor": 1.0
   }
  },
  {
   "name": "room3_floor",
   "pbrMetallicRoughness": {
    "baseColorFactor": [
     0.3,
     0.29,
     0.28,
     1.0
    ],
    "metallicFactor": 0.0,
    "roughnessFactor": 0.12
   }
  },
  {
   "name": "room4_colour",
   "pbrMetallicRoughness": {
    "baseColorFactor": [
     0.58,
     0.1,
     0.52,
     1.0
    ],
    "metallicFactor": 0.0,
    "roughnessFactor": 1.0
   }
  },
  {
   "name": "room4_white",
   "pbrMetallicRoughness": {
    "baseColorFactor": [
     0.72,
     0.71,
     0.69,
     1.0
    ],
    "metallicFactor": 0.0,
    "roughnessFactor": 1.0
   }
  },
  {
   "name": "room4_floor",
   "pbrMetallicRoughness": {
    "baseColorFactor": [
     0.3,
     0.29,
     0.28,
     1.0
    ],
    "metallicFactor": 0.0,
    "roughnessFactor": 0.12
   }
  },
  {
   "name": "room5_colour",
   "pbrMetallicRoughness": {
    "baseColorFactor": [
     0.08,
     0.52,
     0.58,
     1.0
    ],
    "metallicFactor": 0.0,
    "roughnessFactor": 1.0
   }
  },
  {
   "name": "room5_white",
   "pbrMetallicRoughness": {
    "baseColorFactor": [
     0.72,
     0.71,
     0.69,
     1.0
    ],
    "metallicFactor": 0.0,
    "roughnessFactor": 1.0
   }
  },
  {
   "name": "room5_floor",
   "pbrMetallicRoughness": {
    "baseColorFactor": [
     0.3,
     0.29,
     0.28,
     1.0
    ],
    "metallicFactor": 0.0,
    "roughnessFactor": 0.12
   }
  },
  {
   "name": "room6_colour",
   "pbrMetallicRoughness": {
    "baseColorFactor": [
     0.7,
     0.32,
     0.06,
     1.0
    ],
    "metallicFactor": 0.0,
    "roughnessFactor": 1.0
   }
  },
  {
   "name": "room6_white",
   "pbrMetallicRoughness": {
    "baseColorFactor": [
     0.72,
     0.71,
     0.69,
     1.0
    ],
    "metallicFactor": 0.0,
    "roughnessFactor": 1.0
   }
  },
  {
   "name": "room6_floor",
   "pbrMetallicRoughness": {
    "baseColorFactor": [
     0.3,
     0.29,
     0.28,
     1.0
    ],
    "metallicFactor": 0.0,
    "roughnessFactor": 0.12
   }
  },
  {
   "name": "room7_colour",
   "pbrMetallicRoughness": {
    "baseColorFactor": [
     0.34,
     0.12,
     0.56,
     1.0
    ],
    "metallicFactor": 0.0,
    "roughnessFactor": 1.0
   }
  },
  {
   "name": "room7_white",
   "pbrMetallicRoughness": {
    "baseColorFactor": [
     0.72,
     0.71,
     0.69,
     1.0
    ],
    "metallicFactor": 0.0,
    "roughnessFactor": 1.0
   }
  },
  {
   "name": "room7_floor",
   "pbrMetallicRoughness": {
    "baseColorFactor": [
     0.3,
     0.29,
     0.28,
     1.0
    ],
    "metallicFactor": 0.0,
    "roughnessFactor": 0.12
   }
  },
  {
   "name": "room8_colour",
   "pbrMetallicRoughness": {
    "baseColorFactor": [
     0.1,
     0.44,
     0.36,
     1.0
    ],
    "metallicFactor": 0.0,
    "roughnessFactor": 1.0
   }
  },
  {
   "name": "room8_white",
   "pbrMetallicRoughness": {
    "baseColorFactor": [
     0.72,
     0.71,
     0.69,
     1.0
    ],
    "metallicFactor": 0.0,
    "roughnessFactor": 1.0
   }
  },
  {
   "name": "room8_floor",
   "pbrMetallicRoughness": {
    "baseColorFactor": [
     0.3,
     0.29,
     0.28,
     1.0
    ],
    "metallicFactor": 0.0,
    "roughnessFactor": 0.12
   }
  },
  {
   "name": "room9_colour",
   "pbrMetallicRoughness": {
    "baseColorFactor": [
     0.1,
     0.44,
     0.36,
     1.0
    ],
    "metallicFactor": 0.0,
    "roughnessFactor": 1.0
   }
  },
  {
   "name": "room9_white",
   "pbrMetallicRoughness": {
    "baseColorFactor": [
     0.72,
     0.71,
     0.69,
     1.0
    ],
    "metallicFactor": 0.0,
    "roughnessFactor": 1.0
   }
  },
  {
   "name": "room9_floor",
   "pbrMetallicRoughness": {
    "baseColorFactor": [
     0.3,
     0.29,
     0.28,
     1.0
    ],
    "metallicFactor": 0.0,
    "roughnessFactor": 0.12
   }
  }
 ],
 "accessors": [
  {
   "bufferView": 0,
   "componentType": 5126,
   "count": 1440,
   "type": "VEC3",
   "min": [
    -2.2,
    -0.2,
    -2.2
   ],
   "max": [
    362.2,
    3.2,
    2.2
   ]
  },
  {
   "bufferView": 1,
   "componentType": 5126,
   "count": 1440,
   "type": "VEC3"
  },
  {
   "bufferView": 2,
   "byteOffset": 0,
   "componentType": 5125,
   "count": 72,
   "type": "SCALAR"
  },
  {
   "bufferView": 2,
   "byteOffset": 288,
   "componentType": 5125,
   "count": 108,
   "type": "SCALAR"
  },
  {
   "bufferView": 2,
   "byteOffset": 720,
   "componentType": 5125,
   "count": 36,
   "type": "SCALAR"
  },
  {
   "bufferView": 2,
   "byteOffset": 864,
   "componentType": 5125,
   "count": 72,
   "type": "SCALAR"
  },
  {
   "bufferView": 2,
   "byteOffset": 1152,
   "componentType": 5125,
   "count": 108,
   "type": "SCALAR"
  },
  {
   "bufferView": 2,
   "byteOffset": 1584,
   "componentType": 5125,
   "count": 36,
   "type": "SCALAR"
  },
  {
   "bufferView": 2,
   "byteOffset": 1728,
   "componentType": 5125,
   "count": 72,
   "type": "SCALAR"
  },
  {
   "bufferView": 2,
   "byteOffset": 2016,
   "componentType": 5125,
   "count": 108,
   "type": "SCALAR"
  },
  {
   "bufferView": 2,
   "byteOffset": 2448,
   "componentType": 5125,
   "count": 36,
   "type": "SCALAR"
  },
  {
   "bufferView": 2,
   "byteOffset": 2592,
   "componentType": 5125,
   "count": 72,
   "type": "SCALAR"
  },
  {
   "bufferView": 2,
   "byteOffset": 2880,
   "componentType": 5125,
   "count": 108,
   "type": "SCALAR"
  },
  {
   "bufferView": 2,
   "byteOffset": 3312,
   "componentType": 5125,
   "count": 36,
   "type": "SCALAR"
  },
  {
   "bufferView": 2,
   "byteOffset": 3456,
   "componentType": 5125,
   "count": 72,
   "type": "SCALAR"
  },
  {
   "bufferView": 2,
   "byteOffset": 3744,
   "componentType": 5125,
   "count": 108,
   "type": "SCALAR"
  },
  {
   "bufferView": 2,
   "byteOffset": 4176,
   "componentType": 5125,
   "count": 36,
   "type": "SCALAR"
  },
  {
   "bufferView": 2,
   "byteOffset": 4320,
   "componentType": 5125,
   "count": 72,
   "type": "SCALAR"
  },
  {
   "bufferView": 2,
   "byteOffset": 4608,
   "componentType": 5125,
   "count": 108,
   "type": "SCALAR"
  },
  {
   "bufferView": 2,
   "byteOffset": 5040,
   "componentType": 5125,
   "count": 36,
   "type": "SCALAR"
  },
  {
   "bufferView": 2,
   "byteOffset": 5184,
   "componentType": 5125,
   "count": 72,
   "type": "SCALAR"
  },
  {
   "bufferView": 2,
   "byteOffset": 5472,
   "componentType": 5125,
   "count": 108,
   "type": "SCALAR"
  },
  {
   "bufferView": 2,
   "byteOffset": 5904,
   "componentType": 5125,
   "count": 36,
   "type": "SCALAR"
  },
  {
   "bufferView": 2,
   "byteOffset": 6048,
   "componentType": 5125,
   "count": 72,
   "type": "SCALAR"
  },
  {
   "bufferView": 2,
   "byteOffset": 6336,
   "componentType": 5125,
   "count": 108,
   "type": "SCALAR"
  },
  {
   "bufferView": 2,
   "byteOffset": 6768,
   "componentType": 5125,
   "count": 36,
   "type": "SCALAR"
  },
  {
   "bufferView": 2,
   "byteOffset": 6912,
   "componentType": 5125,
   "count": 72,
   "type": "SCALAR"
  },
  {
   "bufferView": 2,
   "byteOffset": 7200,
   "componentType": 5125,
   "count": 108,
   "type": "SCALAR"
  },
  {
   "bufferView": 2,
   "byteOffset": 7632,
   "componentType": 5125,
   "count": 36,
   "type": "SCALAR"
  },
  {
   "bufferView": 2,
   "byteOffset": 7776,
   "componentType": 5125,
   "count": 72,
   "type": "SCALAR"
  },
  {
   "bufferView": 2,
   "byteOffset": 8064,
   "componentType": 5125,
   "count": 108,
   "type": "SCALAR"
  },
  {
   "bufferView": 2,
   "byteOffset": 8496,
   "componentType": 5125,
   "count": 36,
   "type": "SCALAR"
  }
 ],
 "bufferViews": [
  {
   "buffer": 0,
   "byteOffset": 0,
   "byteLength": 17280,
   "target": 34962
  },
  {
   "buffer": 0,
   "byteOffset": 17280,
   "byteLength": 17280,
   "target": 34962
  },
  {
   "buffer": 0,
   "byteOffset": 34560,
   "byteLength": 8640,
   "target": 34963
  }
 ],
 "buffers": [
  {
   "uri": "data:application/octet-stream;base64,",
   "byteLength": 43200
  }
 ]
}
