{
 "asset": {
  "version": "2.0",
  "generator": "gen_tile_core_fixture.py"
 },
 "scene": 0,
 "scenes": [
  {
   "nodes": [
    0,
    1
   ]
  }
 ],
 "nodes": [
  {
   "name": "wall",
   "mesh": 0,
   "translation": [
    0.0,
    1.0,
    -0.025
   ],
   "scale": [
    1.6,
    1.6,
    0.05
   ]
  },
  {
   "name": "rim",
   "mesh": 1,
   "translation": [
    0.0,
    1.0,
    0.39
   ],
   "scale": [
    0.024,
    0.02400000000000002,
    0.020000000000000018
   ]
  }
 ],
 "meshes": [
  {
   "name": "core_wall",
   "primitives": [
    {
     "attributes": {
      "POSITION": 0,
      "NORMAL": 1
     },
     "indices": 2,
     "material": 0
    }
   ]
  },
  {
   "name": "core_wax",
   "primitives": [
    {
     "attributes": {
      "POSITION": 0,
      "NORMAL": 1
     },
     "indices": 2,
     "material": 1
    }
   ]
  }
 ],
 "materials": [
  {
   "name": "core_wall",
   "pbrMetallicRoughness": {
    "baseColorFactor": [
     0.7,
     0.7,
     0.7,
     1.0
    ],
    "metallicFactor": 0.0,
    "roughnessFactor": 0.9
   }
  },
  {
   "name": "core_wax",
   "pbrMetallicRoughness": {
    "baseColorFactor": [
     0.85,
     0.8,
     0.7,
     1.0
    ],
    "metallicFactor": 0.0,
    "roughnessFactor": 0.5
   }
  }
 ],
 "accessors": [
  {
   "bufferView": 0,
   "componentType": 5126,
   "count": 24,
   "type": "VEC3",
   "min": [
    -0.5,
    -0.5,
    -0.5
   ],
   "max": [
    0.5,
    0.5,
    0.5
   ]
  },
  {
   "bufferView": 1,
   "componentType": 5126,
   "count": 24,
   "type": "VEC3"
  },
  {
   "bufferView": 2,
   "componentType": 5123,
   "count": 36,
   "type": "SCALAR"
  }
 ],
 "bufferViews": [
  {
   "buffer": 0,
   "byteOffset": 0,
   "byteLength": 288,
   "target": 34962
  },
  {
   "buffer": 0,
   "byteOffset": 288,
   "byteLength": 288,
   "target": 34962
  },
  {
   "buffer": 0,
   "byteOffset": 576,
   "byteLength": 72,
   "target": 34963
  }
 ],
 "buffers": [
  {
   "uri": "data:application/octet-stream;base64,",
   "byteLength": 648
  }
 ]
}
