{
 "asset": {
  "version": "2.0",
  "generator": "gen_wind_uv_fixture.py"
 },
 "scene": 0,
 "scenes": [
  {
   "nodes": [
    0,
    1,
    2,
    3
   ]
  }
 ],
 "nodes": [
  {
   "name": "backdrop",
   "mesh": 3
  },
  {
   "name": "flex_red",
   "mesh": 0,
   "translation": [
    -1.7,
    0.0,
    0.0
   ]
  },
  {
   "name": "flex_green",
   "mesh": 1,
   "translation": [
    0.0,
    0.0,
    0.0
   ]
  },
  {
   "name": "flex_blue",
   "mesh": 2,
   "translation": [
    1.7,
    0.0,
    0.0
   ]
  }
 ],
 "meshes": [
  {
   "name": "flex_red",
   "primitives": [
    {
     "attributes": {
      "POSITION": 0,
      "NORMAL": 1,
      "TEXCOORD_0": 2,
      "TEXCOORD_1": 3
     },
     "indices": 7,
     "material": 0
    }
   ]
  },
  {
   "name": "flex_green",
   "primitives": [
    {
     "attributes": {
      "POSITION": 0,
      "NORMAL": 1,
      "TEXCOORD_0": 2,
      "TEXCOORD_1": 4
     },
     "indices": 7,
     "material": 1
    }
   ]
  },
  {
   "name": "flex_blue",
   "primitives": [
    {
     "attributes": {
      "POSITION": 0,
      "NORMAL": 1,
      "TEXCOORD_0": 2,
      "TEXCOORD_1": 5
     },
     "indices": 7,
     "material": 2
    }
   ]
  },
  {
   "name": "backdrop",
   "primitives": [
    {
     "attributes": {
      "POSITION": 6,
      "NORMAL": 1
     },
     "indices": 7,
     "material": 3
    }
   ]
  }
 ],
 "materials": [
  {
   "name": "wind_uv_red",
   "pbrMetallicRoughness": {
    "baseColorFactor": [
     0.85,
     0.05,
     0.05,
     1.0
    ],
    "metallicFactor": 0.0,
    "roughnessFactor": 0.9
   }
  },
  {
   "name": "wind_uv_green",
   "pbrMetallicRoughness": {
    "baseColorFactor": [
     0.05,
     0.85,
     0.05,
     1.0
    ],
    "metallicFactor": 0.0,
    "roughnessFactor": 0.9
   }
  },
  {
   "name": "wind_uv_blue",
   "pbrMetallicRoughness": {
    "baseColorFactor": [
     0.05,
     0.05,
     0.85,
     1.0
    ],
    "metallicFactor": 0.0,
    "roughnessFactor": 0.9
   }
  },
  {
   "name": "wind_uv_backdrop",
   "pbrMetallicRoughness": {
    "baseColorFactor": [
     0.05,
     0.05,
     0.05,
     1.0
    ],
    "metallicFactor": 0.0,
    "roughnessFactor": 0.9
   }
  }
 ],
 "accessors": [
  {
   "bufferView": 0,
   "componentType": 5126,
   "count": 4,
   "type": "VEC3",
   "min": [
    -0.5,
    0.0,
    0.0
   ],
   "max": [
    0.5,
    2.0,
    0.0
   ]
  },
  {
   "bufferView": 1,
   "componentType": 5126,
   "count": 4,
   "type": "VEC3"
  },
  {
   "bufferView": 2,
   "componentType": 5126,
   "count": 4,
   "type": "VEC2"
  },
  {
   "bufferView": 3,
   "componentType": 5126,
   "count": 4,
   "type": "VEC2"
  },
  {
   "bufferView": 4,
   "componentType": 5126,
   "count": 4,
   "type": "VEC2"
  },
  {
   "bufferView": 5,
   "componentType": 5126,
   "count": 4,
   "type": "VEC2"
  },
  {
   "bufferView": 6,
   "componentType": 5126,
   "count": 4,
   "type": "VEC3",
   "min": [
    -6.0,
    -3.0,
    -2.0
   ],
   "max": [
    6.0,
    5.0,
    -2.0
   ]
  },
  {
   "bufferView": 7,
   "componentType": 5123,
   "count": 6,
   "type": "SCALAR"
  }
 ],
 "bufferViews": [
  {
   "buffer": 0,
   "byteOffset": 0,
   "byteLength": 48,
   "target": 34962
  },
  {
   "buffer": 0,
   "byteOffset": 48,
   "byteLength": 48,
   "target": 34962
  },
  {
   "buffer": 0,
   "byteOffset": 96,
   "byteLength": 32,
   "target": 34962
  },
  {
   "buffer": 0,
   "byteOffset": 128,
   "byteLength": 32,
   "target": 34962
  },
  {
   "buffer": 0,
   "byteOffset": 160,
   "byteLength": 32,
   "target": 34962
  },
  {
   "buffer": 0,
   "byteOffset": 192,
   "byteLength": 32,
   "target": 34962
  },
  {
   "buffer": 0,
   "byteOffset": 224,
   "byteLength": 48,
   "target": 34962
  },
  {
   "buffer": 0,
   "byteOffset": 272,
   "byteLength": 12,
   "target": 34963
  }
 ],
 "buffers": [
  {
   "uri": "data:application/octet-stream;base64,",
   "byteLength": 284
  }
 ]
}
