{
 "asset": {
  "version": "2.0",
  "generator": "gen_ao_fixture.py"
 },
 "samplers": [
  {
   "wrapS": 10497,
   "wrapT": 10497
  }
 ],
 "images": [
  {
   "uri": "ao_fixture_ao.png"
  }
 ],
 "textures": [
  {
   "source": 0,
   "sampler": 0
  }
 ],
 "materials": [
  {
   "name": "ao_white",
   "pbrMetallicRoughness": {
    "baseColorFactor": [
     0.85,
     0.85,
     0.85,
     1.0
    ],
    "metallicFactor": 0.0,
    "roughnessFactor": 0.4
   },
   "occlusionTexture": {
    "index": 0,
    "strength": 0.8
   }
  }
 ],
 "scene": 0,
 "scenes": [
  {
   "nodes": [
    0
   ]
  }
 ],
 "nodes": [
  {
   "name": "ao_fixture",
   "mesh": 0
  }
 ],
 "meshes": [
  {
   "name": "ao_fixture",
   "primitives": [
    {
     "attributes": {
      "POSITION": 0,
      "NORMAL": 1,
      "TEXCOORD_0": 2
     },
     "indices": 3,
     "material": 0
    }
   ]
  }
 ],
 "accessors": [
  {
   "bufferView": 0,
   "componentType": 5126,
   "count": 829,
   "type": "VEC3",
   "min": [
    -2.0,
    0.0,
    -2.0
   ],
   "max": [
    2.0,
    1.2,
    2.0
   ]
  },
  {
   "bufferView": 1,
   "componentType": 5126,
   "count": 829,
   "type": "VEC3"
  },
  {
   "bufferView": 2,
   "componentType": 5126,
   "count": 829,
   "type": "VEC2"
  },
  {
   "bufferView": 3,
   "componentType": 5123,
   "count": 4614,
   "type": "SCALAR"
  }
 ],
 "bufferViews": [
  {
   "buffer": 0,
   "byteOffset": 0,
   "byteLength": 9948,
   "target": 34962
  },
  {
   "buffer": 0,
   "byteOffset": 9948,
   "byteLength": 9948,
   "target": 34962
  },
  {
   "buffer": 0,
   "byteOffset": 19896,
   "byteLength": 6632,
   "target": 34962
  },
  {
   "buffer": 0,
   "byteOffset": 26528,
   "byteLength": 9228,
   "target": 34963
  }
 ],
 "buffers": [
  {
   "uri": "data:application/octet-stream;base64,",
   "byteLength": 35756
  }
 ]
}
