{
 "asset": {
  "version": "2.0",
  "generator": "gen_area_shadow_fixture.py"
 },
 "scene": 0,
 "scenes": [
  {
   "nodes": [
    0,
    1
   ]
  }
 ],
 "nodes": [
  {
   "name": "penumbra_ground",
   "mesh": 0
  },
  {
   "name": "penumbra_occluder",
   "mesh": 1
  }
 ],
 "meshes": [
  {
   "name": "penumbra_ground",
   "primitives": [
    {
     "attributes": {
      "POSITION": 0,
      "NORMAL": 1,
      "TEXCOORD_0": 2
     },
     "indices": 3,
     "material": 0
    }
   ]
  },
  {
   "name": "penumbra_occluder",
   "primitives": [
    {
     "attributes": {
      "POSITION": 0,
      "NORMAL": 1,
      "TEXCOORD_0": 2
     },
     "indices": 4,
     "material": 1
    }
   ]
  }
 ],
 "materials": [
  {
   "name": "penumbra_ground",
   "pbrMetallicRoughness": {
    "baseColorFactor": [
     0.55,
     0.55,
     0.55,
     1.0
    ],
    "metallicFactor": 0.0,
    "roughnessFactor": 1.0
   }
  },
  {
   "name": "penumbra_occluder",
   "pbrMetallicRoughness": {
    "baseColorFactor": [
     0.25,
     0.25,
     0.25,
     1.0
    ],
    "metallicFactor": 0.0,
    "roughnessFactor": 1.0
   }
  }
 ],
 "accessors": [
  {
   "bufferView": 0,
   "componentType": 5126,
   "count": 8,
   "type": "VEC3",
   "min": [
    -4.0,
    0.0,
    -4.0
   ],
   "max": [
    4.0,
    1.0,
    4.0
   ]
  },
  {
   "bufferView": 1,
   "componentType": 5126,
   "count": 8,
   "type": "VEC3"
  },
  {
   "bufferView": 2,
   "componentType": 5126,
   "count": 8,
   "type": "VEC2"
  },
  {
   "bufferView": 3,
   "componentType": 5125,
   "count": 6,
   "type": "SCALAR"
  },
  {
   "bufferView": 3,
   "byteOffset": 24,
   "componentType": 5125,
   "count": 6,
   "type": "SCALAR"
  }
 ],
 "bufferViews": [
  {
   "buffer": 0,
   "byteOffset": 0,
   "byteLength": 96,
   "target": 34962
  },
  {
   "buffer": 0,
   "byteOffset": 96,
   "byteLength": 96,
   "target": 34962
  },
  {
   "buffer": 0,
   "byteOffset": 192,
   "byteLength": 64,
   "target": 34962
  },
  {
   "buffer": 0,
   "byteOffset": 256,
   "byteLength": 48,
   "target": 34963
  }
 ],
 "buffers": [
  {
   "uri": "data:application/octet-stream;base64,",
   "byteLength": 304
  }
 ]
}
