{
 "asset": {
  "version": "2.0",
  "generator": "gen_contact_fixture.py"
 },
 "scene": 0,
 "scenes": [
  {
   "nodes": [
    0,
    1,
    2,
    3,
    4
   ]
  }
 ],
 "nodes": [
  {
   "name": "cube_gap_00",
   "mesh": 0,
   "translation": [
    -2.0999999999999996,
    0.4,
    0.0
   ]
  },
  {
   "name": "cube_gap_06",
   "mesh": 0,
   "translation": [
    -0.7,
    0.46,
    0.0
   ]
  },
  {
   "name": "cube_gap_15",
   "mesh": 0,
   "translation": [
    0.7,
    0.55,
    0.0
   ]
  },
  {
   "name": "cube_gap_30",
   "mesh": 0,
   "translation": [
    2.0999999999999996,
    0.7,
    0.0
   ]
  },
  {
   "name": "contact_ground",
   "mesh": 1,
   "translation": [
    0.0,
    0.0,
    0.0
   ]
  }
 ],
 "meshes": [
  {
   "name": "contact_cube",
   "primitives": [
    {
     "attributes": {
      "POSITION": 0,
      "NORMAL": 1,
      "TEXCOORD_0": 2
     },
     "indices": 3,
     "material": 1
    }
   ]
  },
  {
   "name": "contact_ground",
   "primitives": [
    {
     "attributes": {
      "POSITION": 0,
      "NORMAL": 1,
      "TEXCOORD_0": 2
     },
     "indices": 4,
     "material": 0
    }
   ]
  }
 ],
 "materials": [
  {
   "name": "contact_ground",
   "pbrMetallicRoughness": {
    "baseColorFactor": [
     0.55,
     0.55,
     0.55,
     1.0
    ],
    "metallicFactor": 0.0,
    "roughnessFactor": 0.9
   }
  },
  {
   "name": "contact_cube",
   "pbrMetallicRoughness": {
    "baseColorFactor": [
     0.6,
     0.6,
     0.62,
     1.0
    ],
    "metallicFactor": 0.0,
    "roughnessFactor": 0.9
   }
  }
 ],
 "accessors": [
  {
   "bufferView": 0,
   "componentType": 5126,
   "count": 28,
   "type": "VEC3",
   "min": [
    -6.0,
    -0.4,
    -6.0
   ],
   "max": [
    6.0,
    0.4,
    6.0
   ]
  },
  {
   "bufferView": 1,
   "componentType": 5126,
   "count": 28,
   "type": "VEC3"
  },
  {
   "bufferView": 2,
   "componentType": 5126,
   "count": 28,
   "type": "VEC2"
  },
  {
   "bufferView": 3,
   "componentType": 5125,
   "count": 36,
   "type": "SCALAR"
  },
  {
   "bufferView": 3,
   "byteOffset": 144,
   "componentType": 5125,
   "count": 6,
   "type": "SCALAR"
  }
 ],
 "bufferViews": [
  {
   "buffer": 0,
   "byteOffset": 0,
   "byteLength": 336,
   "target": 34962
  },
  {
   "buffer": 0,
   "byteOffset": 336,
   "byteLength": 336,
   "target": 34962
  },
  {
   "buffer": 0,
   "byteOffset": 672,
   "byteLength": 224,
   "target": 34962
  },
  {
   "buffer": 0,
   "byteOffset": 896,
   "byteLength": 168,
   "target": 34963
  }
 ],
 "buffers": [
  {
   "uri": "data:application/octet-stream;base64,",
   "byteLength": 1064
  }
 ]
}
