{
 "asset": {
  "version": "2.0",
  "generator": "gen_cornell_box.py"
 },
 "scene": 0,
 "scenes": [
  {
   "nodes": [
    0,
    1,
    2,
    3
   ]
  }
 ],
 "nodes": [
  {
   "name": "cornell_shell",
   "mesh": 0
  },
  {
   "name": "cornell_left_red",
   "mesh": 1
  },
  {
   "name": "cornell_tall_box",
   "mesh": 2
  },
  {
   "name": "cornell_light",
   "mesh": 3
  }
 ],
 "meshes": [
  {
   "name": "cornell_shell",
   "primitives": [
    {
     "attributes": {
      "POSITION": 0,
      "NORMAL": 1
     },
     "indices": 2,
     "material": 0
    }
   ]
  },
  {
   "name": "cornell_left_red",
   "primitives": [
    {
     "attributes": {
      "POSITION": 0,
      "NORMAL": 1
     },
     "indices": 3,
     "material": 1
    }
   ]
  },
  {
   "name": "cornell_tall_box",
   "primitives": [
    {
     "attributes": {
      "POSITION": 0,
      "NORMAL": 1
     },
     "indices": 4,
     "material": 2
    }
   ]
  },
  {
   "name": "cornell_light",
   "primitives": [
    {
     "attributes": {
      "POSITION": 0,
      "NORMAL": 1
     },
     "indices": 5,
     "material": 3
    }
   ]
  }
 ],
 "materials": [
  {
   "name": "cornell_shell",
   "pbrMetallicRoughness": {
    "baseColorFactor": [
     0.72,
     0.71,
     0.69,
     1.0
    ],
    "metallicFactor": 0.0,
    "roughnessFactor": 1.0
   }
  },
  {
   "name": "cornell_left_red",
   "pbrMetallicRoughness": {
    "baseColorFactor": [
     0.72,
     0.71,
     0.69,
     1.0
    ],
    "metallicFactor": 0.0,
    "roughnessFactor": 1.0
   }
  },
  {
   "name": "cornell_tall_box",
   "pbrMetallicRoughness": {
    "baseColorFactor": [
     0.72,
     0.71,
     0.69,
     1.0
    ],
    "metallicFactor": 0.0,
    "roughnessFactor": 1.0
   }
  },
  {
   "name": "cornell_light",
   "pbrMetallicRoughness": {
    "baseColorFactor": [
     0.72,
     0.71,
     0.69,
     1.0
    ],
    "metallicFactor": 0.0,
    "roughnessFactor": 1.0
   },
   "emissiveFactor": [
    1.0,
    0.95,
    0.88
   ]
  }
 ],
 "accessors": [
  {
   "bufferView": 0,
   "componentType": 5126,
   "count": 36,
   "type": "VEC3",
   "min": [
    -1.0,
    -0.05,
    -1.05
   ],
   "max": [
    1.0,
    2.05,
    1.0
   ]
  },
  {
   "bufferView": 1,
   "componentType": 5126,
   "count": 36,
   "type": "VEC3"
  },
  {
   "bufferView": 2,
   "byteOffset": 0,
   "componentType": 5125,
   "count": 18,
   "type": "SCALAR"
  },
  {
   "bufferView": 2,
   "byteOffset": 72,
   "componentType": 5125,
   "count": 12,
   "type": "SCALAR"
  },
  {
   "bufferView": 2,
   "byteOffset": 120,
   "componentType": 5125,
   "count": 18,
   "type": "SCALAR"
  },
  {
   "bufferView": 2,
   "byteOffset": 192,
   "componentType": 5125,
   "count": 6,
   "type": "SCALAR"
  }
 ],
 "bufferViews": [
  {
   "buffer": 0,
   "byteOffset": 0,
   "byteLength": 432,
   "target": 34962
  },
  {
   "buffer": 0,
   "byteOffset": 432,
   "byteLength": 432,
   "target": 34962
  },
  {
   "buffer": 0,
   "byteOffset": 864,
   "byteLength": 216,
   "target": 34963
  }
 ],
 "buffers": [
  {
   "uri": "data:application/octet-stream;base64,",
   "byteLength": 1080
  }
 ]
}
