{
 "asset": {
  "version": "2.0",
  "generator": "gen_dir_shadow_fixture.py"
 },
 "scene": 0,
 "scenes": [
  {
   "nodes": [
    0,
    1,
    2,
    3
   ]
  }
 ],
 "nodes": [
  {
   "name": "dir_ground",
   "mesh": 0
  },
  {
   "name": "dir_float_sphere",
   "mesh": 1
  },
  {
   "name": "dir_rest_sphere",
   "mesh": 2
  },
  {
   "name": "dir_pillar",
   "mesh": 3
  }
 ],
 "meshes": [
  {
   "name": "dir_ground",
   "primitives": [
    {
     "attributes": {
      "POSITION": 0,
      "NORMAL": 1,
      "TEXCOORD_0": 2
     },
     "indices": 3,
     "material": 0
    }
   ]
  },
  {
   "name": "dir_float_sphere",
   "primitives": [
    {
     "attributes": {
      "POSITION": 0,
      "NORMAL": 1,
      "TEXCOORD_0": 2
     },
     "indices": 4,
     "material": 1
    }
   ]
  },
  {
   "name": "dir_rest_sphere",
   "primitives": [
    {
     "attributes": {
      "POSITION": 0,
      "NORMAL": 1,
      "TEXCOORD_0": 2
     },
     "indices": 5,
     "material": 2
    }
   ]
  },
  {
   "name": "dir_pillar",
   "primitives": [
    {
     "attributes": {
      "POSITION": 0,
      "NORMAL": 1,
      "TEXCOORD_0": 2
     },
     "indices": 6,
     "material": 3
    }
   ]
  }
 ],
 "materials": [
  {
   "name": "dir_ground",
   "pbrMetallicRoughness": {
    "baseColorFactor": [
     0.55,
     0.55,
     0.55,
     1.0
    ],
    "metallicFactor": 0.0,
    "roughnessFactor": 1.0
   }
  },
  {
   "name": "dir_float_sphere",
   "pbrMetallicRoughness": {
    "baseColorFactor": [
     0.25,
     0.25,
     0.25,
     1.0
    ],
    "metallicFactor": 0.0,
    "roughnessFactor": 1.0
   }
  },
  {
   "name": "dir_rest_sphere",
   "pbrMetallicRoughness": {
    "baseColorFactor": [
     0.25,
     0.25,
     0.25,
     1.0
    ],
    "metallicFactor": 0.0,
    "roughnessFactor": 1.0
   }
  },
  {
   "name": "dir_pillar",
   "pbrMetallicRoughness": {
    "baseColorFactor": [
     0.25,
     0.25,
     0.25,
     1.0
    ],
    "metallicFactor": 0.0,
    "roughnessFactor": 1.0
   }
  }
 ],
 "accessors": [
  {
   "bufferView": 0,
   "componentType": 5126,
   "count": 978,
   "type": "VEC3",
   "min": [
    -6.0,
    0.0,
    -6.0
   ],
   "max": [
    6.0,
    3.0,
    6.0
   ]
  },
  {
   "bufferView": 1,
   "componentType": 5126,
   "count": 978,
   "type": "VEC3"
  },
  {
   "bufferView": 2,
   "componentType": 5126,
   "count": 978,
   "type": "VEC2"
  },
  {
   "bufferView": 3,
   "byteOffset": 0,
   "componentType": 5125,
   "count": 6,
   "type": "SCALAR"
  },
  {
   "bufferView": 3,
   "byteOffset": 24,
   "componentType": 5125,
   "count": 2592,
   "type": "SCALAR"
  },
  {
   "bufferView": 3,
   "byteOffset": 10392,
   "componentType": 5125,
   "count": 2592,
   "type": "SCALAR"
  },
  {
   "bufferView": 3,
   "byteOffset": 20760,
   "componentType": 5125,
   "count": 36,
   "type": "SCALAR"
  }
 ],
 "bufferViews": [
  {
   "buffer": 0,
   "byteOffset": 0,
   "byteLength": 11736,
   "target": 34962
  },
  {
   "buffer": 0,
   "byteOffset": 11736,
   "byteLength": 11736,
   "target": 34962
  },
  {
   "buffer": 0,
   "byteOffset": 23472,
   "byteLength": 7824,
   "target": 34962
  },
  {
   "buffer": 0,
   "byteOffset": 31296,
   "byteLength": 20904,
   "target": 34963
  }
 ],
 "buffers": [
  {
   "uri": "data:application/octet-stream;base64,",
   "byteLength": 52200
  }
 ]
}
