{
 "asset": {
  "version": "2.0",
  "generator": "gen_dof_fixture.py"
 },
 "extensionsUsed": [
  "KHR_materials_emissive_strength"
 ],
 "images": [
  {
   "uri": "dof_fixture_checker.png"
  }
 ],
 "textures": [
  {
   "source": 0
  }
 ],
 "materials": [
  {
   "name": "focus_panel",
   "pbrMetallicRoughness": {
    "baseColorTexture": {
     "index": 0
    },
    "metallicFactor": 0.0,
    "roughnessFactor": 0.6
   }
  },
  {
   "name": "dark_ground",
   "pbrMetallicRoughness": {
    "baseColorFactor": [
     0.3,
     0.3,
     0.3,
     1.0
    ],
    "metallicFactor": 0.0,
    "roughnessFactor": 0.9
   }
  },
  {
   "name": "bokeh_warm",
   "pbrMetallicRoughness": {
    "baseColorFactor": [
     0.0,
     0.0,
     0.0,
     1.0
    ],
    "metallicFactor": 0.0,
    "roughnessFactor": 1.0
   },
   "emissiveFactor": [
    1.0,
    0.6,
    0.25
   ],
   "extensions": {
    "KHR_materials_emissive_strength": {
     "emissiveStrength": 80.0
    }
   }
  },
  {
   "name": "bokeh_white",
   "pbrMetallicRoughness": {
    "baseColorFactor": [
     0.0,
     0.0,
     0.0,
     1.0
    ],
    "metallicFactor": 0.0,
    "roughnessFactor": 1.0
   },
   "emissiveFactor": [
    1.0,
    1.0,
    1.0
   ],
   "extensions": {
    "KHR_materials_emissive_strength": {
     "emissiveStrength": 60.0
    }
   }
  },
  {
   "name": "bokeh_cool",
   "pbrMetallicRoughness": {
    "baseColorFactor": [
     0.0,
     0.0,
     0.0,
     1.0
    ],
    "metallicFactor": 0.0,
    "roughnessFactor": 1.0
   },
   "emissiveFactor": [
    0.4,
    0.7,
    1.0
   ],
   "extensions": {
    "KHR_materials_emissive_strength": {
     "emissiveStrength": 100.0
    }
   }
  },
  {
   "name": "bokeh_magenta",
   "pbrMetallicRoughness": {
    "baseColorFactor": [
     0.0,
     0.0,
     0.0,
     1.0
    ],
    "metallicFactor": 0.0,
    "roughnessFactor": 1.0
   },
   "emissiveFactor": [
    1.0,
    0.3,
    0.8
   ],
   "extensions": {
    "KHR_materials_emissive_strength": {
     "emissiveStrength": 150.0
    }
   }
  }
 ],
 "scene": 0,
 "scenes": [
  {
   "nodes": [
    0
   ]
  }
 ],
 "nodes": [
  {
   "name": "dof_fixture",
   "mesh": 0
  }
 ],
 "meshes": [
  {
   "name": "dof_fixture",
   "primitives": [
    {
     "attributes": {
      "POSITION": 0,
      "NORMAL": 1,
      "TEXCOORD_0": 2
     },
     "indices": 3,
     "material": 0
    },
    {
     "attributes": {
      "POSITION": 4,
      "NORMAL": 5,
      "TEXCOORD_0": 6
     },
     "indices": 7,
     "material": 1
    },
    {
     "attributes": {
      "POSITION": 8,
      "NORMAL": 9,
      "TEXCOORD_0": 10
     },
     "indices": 11,
     "material": 2
    },
    {
     "attributes": {
      "POSITION": 12,
      "NORMAL": 13,
      "TEXCOORD_0": 14
     },
     "indices": 15,
     "material": 3
    },
    {
     "attributes": {
      "POSITION": 16,
      "NORMAL": 17,
      "TEXCOORD_0": 18
     },
     "indices": 19,
     "material": 4
    },
    {
     "attributes": {
      "POSITION": 20,
      "NORMAL": 21,
      "TEXCOORD_0": 22
     },
     "indices": 23,
     "material": 5
    }
   ]
  }
 ],
 "accessors": [
  {
   "bufferView": 0,
   "componentType": 5126,
   "count": 4,
   "type": "VEC3",
   "min": [
    -0.6,
    0.55,
    0.0
   ],
   "max": [
    0.6,
    1.45,
    0.0
   ]
  },
  {
   "bufferView": 1,
   "componentType": 5126,
   "count": 4,
   "type": "VEC3"
  },
  {
   "bufferView": 2,
   "componentType": 5126,
   "count": 4,
   "type": "VEC2"
  },
  {
   "bufferView": 3,
   "componentType": 5123,
   "count": 6,
   "type": "SCALAR"
  },
  {
   "bufferView": 4,
   "componentType": 5126,
   "count": 4,
   "type": "VEC3",
   "min": [
    -6.0,
    0.0,
    -8.0
   ],
   "max": [
    6.0,
    0.0,
    4.0
   ]
  },
  {
   "bufferView": 5,
   "componentType": 5126,
   "count": 4,
   "type": "VEC3"
  },
  {
   "bufferView": 6,
   "componentType": 5126,
   "count": 4,
   "type": "VEC2"
  },
  {
   "bufferView": 7,
   "componentType": 5123,
   "count": 6,
   "type": "SCALAR"
  },
  {
   "bufferView": 8,
   "componentType": 5126,
   "count": 663,
   "type": "VEC3",
   "min": [
    -0.8,
    0.7999999999999999,
    2.95
   ],
   "max": [
    -0.25,
    1.4000000000000001,
    3.05
   ]
  },
  {
   "bufferView": 9,
   "componentType": 5126,
   "count": 663,
   "type": "VEC3"
  },
  {
   "bufferView": 10,
   "componentType": 5126,
   "count": 663,
   "type": "VEC2"
  },
  {
   "bufferView": 11,
   "componentType": 5123,
   "count": 3456,
   "type": "SCALAR"
  },
  {
   "bufferView": 12,
   "componentType": 5126,
   "count": 1105,
   "type": "VEC3",
   "min": [
    -1.25,
    1.65,
    -0.8500000000000001
   ],
   "max": [
    1.25,
    1.75,
    -0.75
   ]
  },
  {
   "bufferView": 13,
   "componentType": 5126,
   "count": 1105,
   "type": "VEC3"
  },
  {
   "bufferView": 14,
   "componentType": 5126,
   "count": 1105,
   "type": "VEC2"
  },
  {
   "bufferView": 15,
   "componentType": 5123,
   "count": 5760,
   "type": "SCALAR"
  },
  {
   "bufferView": 16,
   "componentType": 5126,
   "count": 1105,
   "type": "VEC3",
   "min": [
    -1.85,
    0.85,
    -3.05
   ],
   "max": [
    1.6500000000000001,
    0.9500000000000001,
    -2.95
   ]
  },
  {
   "bufferView": 17,
   "componentType": 5126,
   "count": 1105,
   "type": "VEC3"
  },
  {
   "bufferView": 18,
   "componentType": 5126,
   "count": 1105,
   "type": "VEC2"
  },
  {
   "bufferView": 19,
   "componentType": 5123,
   "count": 5760,
   "type": "SCALAR"
  },
  {
   "bufferView": 20,
   "componentType": 5126,
   "count": 884,
   "type": "VEC3",
   "min": [
    -2.48,
    2.32,
    -6.08
   ],
   "max": [
    2.48,
    2.48,
    -5.92
   ]
  },
  {
   "bufferView": 21,
   "componentType": 5126,
   "count": 884,
   "type": "VEC3"
  },
  {
   "bufferView": 22,
   "componentType": 5126,
   "count": 884,
   "type": "VEC2"
  },
  {
   "bufferView": 23,
   "componentType": 5123,
   "count": 4608,
   "type": "SCALAR"
  }
 ],
 "bufferViews": [
  {
   "buffer": 0,
   "byteOffset": 0,
   "byteLength": 48,
   "target": 34962
  },
  {
   "buffer": 0,
   "byteOffset": 48,
   "byteLength": 48,
   "target": 34962
  },
  {
   "buffer": 0,
   "byteOffset": 96,
   "byteLength": 32,
   "target": 34962
  },
  {
   "buffer": 0,
   "byteOffset": 128,
   "byteLength": 12,
   "target": 34963
  },
  {
   "buffer": 0,
   "byteOffset": 140,
   "byteLength": 48,
   "target": 34962
  },
  {
   "buffer": 0,
   "byteOffset": 188,
   "byteLength": 48,
   "target": 34962
  },
  {
   "buffer": 0,
   "byteOffset": 236,
   "byteLength": 32,
   "target": 34962
  },
  {
   "buffer": 0,
   "byteOffset": 268,
   "byteLength": 12,
   "target": 34963
  },
  {
   "buffer": 0,
   "byteOffset": 280,
   "byteLength": 7956,
   "target": 34962
  },
  {
   "buffer": 0,
   "byteOffset": 8236,
   "byteLength": 7956,
   "target": 34962
  },
  {
   "buffer": 0,
   "byteOffset": 16192,
   "byteLength": 5304,
   "target": 34962
  },
  {
   "buffer": 0,
   "byteOffset": 21496,
   "byteLength": 6912,
   "target": 34963
  },
  {
   "buffer": 0,
   "byteOffset": 28408,
   "byteLength": 13260,
   "target": 34962
  },
  {
   "buffer": 0,
   "byteOffset": 41668,
   "byteLength": 13260,
   "target": 34962
  },
  {
   "buffer": 0,
   "byteOffset": 54928,
   "byteLength": 8840,
   "target": 34962
  },
  {
   "buffer": 0,
   "byteOffset": 63768,
   "byteLength": 11520,
   "target": 34963
  },
  {
   "buffer": 0,
   "byteOffset": 75288,
   "byteLength": 13260,
   "target": 34962
  },
  {
   "buffer": 0,
   "byteOffset": 88548,
   "byteLength": 13260,
   "target": 34962
  },
  {
   "buffer": 0,
   "byteOffset": 101808,
   "byteLength": 8840,
   "target": 34962
  },
  {
   "buffer": 0,
   "byteOffset": 110648,
   "byteLength": 11520,
   "target": 34963
  },
  {
   "buffer": 0,
   "byteOffset": 122168,
   "byteLength": 10608,
   "target": 34962
  },
  {
   "buffer": 0,
   "byteOffset": 132776,
   "byteLength": 10608,
   "target": 34962
  },
  {
   "buffer": 0,
   "byteOffset": 143384,
   "byteLength": 7072,
   "target": 34962
  },
  {
   "buffer": 0,
   "byteOffset": 150456,
   "byteLength": 9216,
   "target": 34963
  }
 ],
 "buffers": [
  {
   "uri": "data:application/octet-stream;base64,",
   "byteLength": 159672
  }
 ]
}
