{
 "asset": {
  "version": "2.0",
  "generator": "gen_fog_glass_fixture.py"
 },
 "scene": 0,
 "scenes": [
  {
   "nodes": [
    0,
    1,
    2,
    3,
    4
   ]
  }
 ],
 "nodes": [
  {
   "name": "fogglass_backdrop",
   "mesh": 0,
   "translation": [
    0.0,
    26.0,
    -20.0
   ],
   "scale": [
    84.0,
    52.0,
    1.0
   ]
  },
  {
   "name": "fogglass_opaque",
   "mesh": 1,
   "translation": [
    -3.8,
    26.0,
    20.0
   ],
   "scale": [
    1.8,
    3.2,
    1.0
   ]
  },
  {
   "name": "fogglass_half",
   "mesh": 2,
   "translation": [
    -1.3,
    26.0,
    20.0
   ],
   "scale": [
    1.8,
    3.2,
    1.0
   ]
  },
  {
   "name": "fogglass_quarter",
   "mesh": 3,
   "translation": [
    1.3,
    26.0,
    20.0
   ],
   "scale": [
    1.8,
    3.2,
    1.0
   ]
  },
  {
   "name": "fogglass_dark",
   "mesh": 4,
   "translation": [
    3.8,
    26.0,
    20.0
   ],
   "scale": [
    1.8,
    3.2,
    1.0
   ]
  }
 ],
 "meshes": [
  {
   "name": "fogglass_backdrop",
   "primitives": [
    {
     "attributes": {
      "POSITION": 0,
      "NORMAL": 1
     },
     "indices": 2,
     "material": 0
    }
   ]
  },
  {
   "name": "fogglass_opaque",
   "primitives": [
    {
     "attributes": {
      "POSITION": 0,
      "NORMAL": 1
     },
     "indices": 2,
     "material": 1
    }
   ]
  },
  {
   "name": "fogglass_half",
   "primitives": [
    {
     "attributes": {
      "POSITION": 0,
      "NORMAL": 1
     },
     "indices": 2,
     "material": 2
    }
   ]
  },
  {
   "name": "fogglass_quarter",
   "primitives": [
    {
     "attributes": {
      "POSITION": 0,
      "NORMAL": 1
     },
     "indices": 2,
     "material": 3
    }
   ]
  },
  {
   "name": "fogglass_dark",
   "primitives": [
    {
     "attributes": {
      "POSITION": 0,
      "NORMAL": 1
     },
     "indices": 2,
     "material": 4
    }
   ]
  }
 ],
 "materials": [
  {
   "name": "fogglass_backdrop",
   "doubleSided": true,
   "emissiveFactor": [
    0.5,
    0.5,
    0.5
   ],
   "pbrMetallicRoughness": {
    "baseColorFactor": [
     0.0,
     0.0,
     0.0,
     1.0
    ],
    "metallicFactor": 0.0,
    "roughnessFactor": 1.0
   }
  },
  {
   "name": "fogglass_opaque",
   "doubleSided": true,
   "emissiveFactor": [
    0.5,
    0.5,
    0.5
   ],
   "pbrMetallicRoughness": {
    "baseColorFactor": [
     0.0,
     0.0,
     0.0,
     1.0
    ],
    "metallicFactor": 0.0,
    "roughnessFactor": 1.0
   }
  },
  {
   "name": "fogglass_half",
   "doubleSided": true,
   "emissiveFactor": [
    0.5,
    0.5,
    0.5
   ],
   "pbrMetallicRoughness": {
    "baseColorFactor": [
     0.0,
     0.0,
     0.0,
     0.5
    ],
    "metallicFactor": 0.0,
    "roughnessFactor": 1.0
   },
   "alphaMode": "BLEND"
  },
  {
   "name": "fogglass_quarter",
   "doubleSided": true,
   "emissiveFactor": [
    0.5,
    0.5,
    0.5
   ],
   "pbrMetallicRoughness": {
    "baseColorFactor": [
     0.0,
     0.0,
     0.0,
     0.25
    ],
    "metallicFactor": 0.0,
    "roughnessFactor": 1.0
   },
   "alphaMode": "BLEND"
  },
  {
   "name": "fogglass_dark",
   "doubleSided": true,
   "emissiveFactor": [
    0.06,
    0.06,
    0.06
   ],
   "pbrMetallicRoughness": {
    "baseColorFactor": [
     0.0,
     0.0,
     0.0,
     0.5
    ],
    "metallicFactor": 0.0,
    "roughnessFactor": 1.0
   },
   "alphaMode": "BLEND"
  }
 ],
 "accessors": [
  {
   "bufferView": 0,
   "componentType": 5126,
   "count": 4,
   "type": "VEC3",
   "min": [
    -0.5,
    -0.5,
    0.0
   ],
   "max": [
    0.5,
    0.5,
    0.0
   ]
  },
  {
   "bufferView": 1,
   "componentType": 5126,
   "count": 4,
   "type": "VEC3"
  },
  {
   "bufferView": 2,
   "componentType": 5123,
   "count": 6,
   "type": "SCALAR"
  }
 ],
 "bufferViews": [
  {
   "buffer": 0,
   "byteOffset": 0,
   "byteLength": 48,
   "target": 34962
  },
  {
   "buffer": 0,
   "byteOffset": 48,
   "byteLength": 48,
   "target": 34962
  },
  {
   "buffer": 0,
   "byteOffset": 96,
   "byteLength": 12,
   "target": 34963
  }
 ],
 "buffers": [
  {
   "uri": "data:application/octet-stream;base64,",
   "byteLength": 108
  }
 ]
}
