{
 "asset": {
  "version": "2.0",
  "generator": "gen_glass_fixture.py"
 },
 "extensionsUsed": [
  "KHR_materials_transmission",
  "KHR_materials_ior",
  "KHR_materials_volume"
 ],
 "scene": 0,
 "scenes": [
  {
   "nodes": [
    0,
    1,
    2,
    3,
    4,
    5
   ]
  }
 ],
 "nodes": [
  {
   "name": "backdrop_red",
   "mesh": 0,
   "translation": [
    -0.5,
    0.5,
    -1.5
   ],
   "scale": [
    1.0,
    1.0,
    1.0
   ]
  },
  {
   "name": "backdrop_green",
   "mesh": 1,
   "translation": [
    0.5,
    0.5,
    -1.5
   ],
   "scale": [
    1.0,
    1.0,
    1.0
   ]
  },
  {
   "name": "backdrop_blue",
   "mesh": 2,
   "translation": [
    -0.5,
    1.5,
    -1.5
   ],
   "scale": [
    1.0,
    1.0,
    1.0
   ]
  },
  {
   "name": "backdrop_yellow",
   "mesh": 3,
   "translation": [
    0.5,
    1.5,
    -1.5
   ],
   "scale": [
    1.0,
    1.0,
    1.0
   ]
  },
  {
   "name": "glass_clear",
   "mesh": 4,
   "translation": [
    -0.5,
    1.0,
    0.0
   ],
   "scale": [
    0.8,
    0.8,
    0.8
   ]
  },
  {
   "name": "glass_frosted",
   "mesh": 5,
   "translation": [
    0.5,
    1.0,
    0.0
   ],
   "scale": [
    0.8,
    0.8,
    0.8
   ]
  }
 ],
 "meshes": [
  {
   "name": "backdrop_red",
   "primitives": [
    {
     "attributes": {
      "POSITION": 0,
      "NORMAL": 1
     },
     "indices": 2,
     "material": 0
    }
   ]
  },
  {
   "name": "backdrop_green",
   "primitives": [
    {
     "attributes": {
      "POSITION": 0,
      "NORMAL": 1
     },
     "indices": 2,
     "material": 1
    }
   ]
  },
  {
   "name": "backdrop_blue",
   "primitives": [
    {
     "attributes": {
      "POSITION": 0,
      "NORMAL": 1
     },
     "indices": 2,
     "material": 2
    }
   ]
  },
  {
   "name": "backdrop_yellow",
   "primitives": [
    {
     "attributes": {
      "POSITION": 0,
      "NORMAL": 1
     },
     "indices": 2,
     "material": 3
    }
   ]
  },
  {
   "name": "glass_clear",
   "primitives": [
    {
     "attributes": {
      "POSITION": 0,
      "NORMAL": 1
     },
     "indices": 2,
     "material": 4
    }
   ]
  },
  {
   "name": "glass_frosted",
   "primitives": [
    {
     "attributes": {
      "POSITION": 0,
      "NORMAL": 1
     },
     "indices": 2,
     "material": 5
    }
   ]
  }
 ],
 "materials": [
  {
   "name": "backdrop_red",
   "doubleSided": true,
   "pbrMetallicRoughness": {
    "baseColorFactor": [
     0.85,
     0.1,
     0.1,
     1.0
    ],
    "metallicFactor": 0.0,
    "roughnessFactor": 0.9
   }
  },
  {
   "name": "backdrop_green",
   "doubleSided": true,
   "pbrMetallicRoughness": {
    "baseColorFactor": [
     0.1,
     0.75,
     0.15,
     1.0
    ],
    "metallicFactor": 0.0,
    "roughnessFactor": 0.9
   }
  },
  {
   "name": "backdrop_blue",
   "doubleSided": true,
   "pbrMetallicRoughness": {
    "baseColorFactor": [
     0.1,
     0.25,
     0.85,
     1.0
    ],
    "metallicFactor": 0.0,
    "roughnessFactor": 0.9
   }
  },
  {
   "name": "backdrop_yellow",
   "doubleSided": true,
   "pbrMetallicRoughness": {
    "baseColorFactor": [
     0.9,
     0.8,
     0.1,
     1.0
    ],
    "metallicFactor": 0.0,
    "roughnessFactor": 0.9
   }
  },
  {
   "name": "glass_clear",
   "doubleSided": true,
   "pbrMetallicRoughness": {
    "baseColorFactor": [
     1.0,
     1.0,
     1.0,
     1.0
    ],
    "metallicFactor": 0.0,
    "roughnessFactor": 0.0
   },
   "extensions": {
    "KHR_materials_transmission": {
     "transmissionFactor": 1.0
    },
    "KHR_materials_ior": {
     "ior": 1.5
    },
    "KHR_materials_volume": {
     "thicknessFactor": 0.3
    }
   }
  },
  {
   "name": "glass_frosted",
   "doubleSided": true,
   "pbrMetallicRoughness": {
    "baseColorFactor": [
     1.0,
     1.0,
     1.0,
     1.0
    ],
    "metallicFactor": 0.0,
    "roughnessFactor": 0.4
   },
   "extensions": {
    "KHR_materials_transmission": {
     "transmissionFactor": 1.0
    },
    "KHR_materials_ior": {
     "ior": 1.5
    }
   }
  }
 ],
 "accessors": [
  {
   "bufferView": 0,
   "componentType": 5126,
   "count": 4,
   "type": "VEC3",
   "min": [
    -0.5,
    -0.5,
    0.0
   ],
   "max": [
    0.5,
    0.5,
    0.0
   ]
  },
  {
   "bufferView": 1,
   "componentType": 5126,
   "count": 4,
   "type": "VEC3"
  },
  {
   "bufferView": 2,
   "componentType": 5123,
   "count": 6,
   "type": "SCALAR"
  }
 ],
 "bufferViews": [
  {
   "buffer": 0,
   "byteOffset": 0,
   "byteLength": 48,
   "target": 34962
  },
  {
   "buffer": 0,
   "byteOffset": 48,
   "byteLength": 48,
   "target": 34962
  },
  {
   "buffer": 0,
   "byteOffset": 96,
   "byteLength": 12,
   "target": 34963
  }
 ],
 "buffers": [
  {
   "uri": "data:application/octet-stream;base64,",
   "byteLength": 108
  }
 ]
}
