{
 "asset": {
  "version": "2.0",
  "generator": "gen_hair_fixture.py"
 },
 "samplers": [
  {
   "wrapS": 33071,
   "wrapT": 33071
  }
 ],
 "images": [
  {
   "uri": "hair_fixture_atlas.png"
  }
 ],
 "textures": [
  {
   "source": 0,
   "sampler": 0
  }
 ],
 "materials": [
  {
   "name": "hair_card",
   "pbrMetallicRoughness": {
    "baseColorTexture": {
     "index": 0
    },
    "baseColorFactor": [
     1.0,
     1.0,
     1.0,
     1.0
    ],
    "metallicFactor": 0.0,
    "roughnessFactor": 0.3
   },
   "doubleSided": true
  }
 ],
 "meshes": [
  {
   "name": "card",
   "primitives": [
    {
     "attributes": {
      "POSITION": 0,
      "NORMAL": 1,
      "TEXCOORD_0": 2,
      "TANGENT": 3
     },
     "indices": 4,
     "material": 0
    }
   ]
  }
 ],
 "nodes": [
  {
   "name": "card",
   "mesh": 0
  }
 ],
 "scenes": [
  {
   "nodes": [
    0
   ]
  }
 ],
 "scene": 0,
 "accessors": [
  {
   "bufferView": 0,
   "componentType": 5126,
   "count": 4,
   "type": "VEC3",
   "min": [
    -1.0,
    -1.0,
    0.0
   ],
   "max": [
    1.0,
    1.0,
    0.0
   ]
  },
  {
   "bufferView": 1,
   "componentType": 5126,
   "count": 4,
   "type": "VEC3"
  },
  {
   "bufferView": 2,
   "componentType": 5126,
   "count": 4,
   "type": "VEC2"
  },
  {
   "bufferView": 3,
   "componentType": 5126,
   "count": 4,
   "type": "VEC4"
  },
  {
   "bufferView": 4,
   "componentType": 5123,
   "count": 6,
   "type": "SCALAR"
  }
 ],
 "bufferViews": [
  {
   "buffer": 0,
   "byteOffset": 0,
   "byteLength": 48
  },
  {
   "buffer": 0,
   "byteOffset": 48,
   "byteLength": 48
  },
  {
   "buffer": 0,
   "byteOffset": 96,
   "byteLength": 32
  },
  {
   "buffer": 0,
   "byteOffset": 128,
   "byteLength": 64
  },
  {
   "buffer": 0,
   "byteOffset": 192,
   "byteLength": 12,
   "target": 34963
  }
 ],
 "buffers": [
  {
   "byteLength": 204,
   "uri": "data:application/octet-stream;base64,"
  }
 ]
}
