{
 "asset": {
  "version": "2.0",
  "generator": "gen_layer_fixture.py"
 },
 "scene": 0,
 "scenes": [
  {
   "nodes": [
    0,
    1
   ]
  }
 ],
 "nodes": [
  {
   "name": "layer_floor",
   "mesh": 0
  },
  {
   "name": "layer_wall",
   "mesh": 1
  }
 ],
 "meshes": [
  {
   "name": "layer_floor",
   "primitives": [
    {
     "attributes": {
      "POSITION": 0,
      "NORMAL": 1,
      "TEXCOORD_0": 6,
      "TEXCOORD_1": 2
     },
     "indices": 7,
     "material": 0
    }
   ]
  },
  {
   "name": "layer_wall",
   "primitives": [
    {
     "attributes": {
      "POSITION": 3,
      "NORMAL": 4,
      "TEXCOORD_0": 6,
      "TEXCOORD_1": 5
     },
     "indices": 7,
     "material": 0
    }
   ]
  }
 ],
 "materials": [
  {
   "name": "layered_surface",
   "pbrMetallicRoughness": {
    "baseColorFactor": [
     1.0,
     1.0,
     1.0,
     1.0
    ],
    "metallicFactor": 0.0,
    "roughnessFactor": 0.9
   }
  }
 ],
 "accessors": [
  {
   "bufferView": 0,
   "componentType": 5126,
   "count": 4,
   "type": "VEC3",
   "min": [
    -2.0,
    0.0,
    -2.0
   ],
   "max": [
    2.0,
    0.0,
    2.0
   ]
  },
  {
   "bufferView": 1,
   "componentType": 5126,
   "count": 4,
   "type": "VEC3"
  },
  {
   "bufferView": 2,
   "componentType": 5126,
   "count": 4,
   "type": "VEC2"
  },
  {
   "bufferView": 3,
   "componentType": 5126,
   "count": 4,
   "type": "VEC3",
   "min": [
    -2.0,
    0.0,
    -2.0
   ],
   "max": [
    2.0,
    4.0,
    -2.0
   ]
  },
  {
   "bufferView": 4,
   "componentType": 5126,
   "count": 4,
   "type": "VEC3"
  },
  {
   "bufferView": 5,
   "componentType": 5126,
   "count": 4,
   "type": "VEC2"
  },
  {
   "bufferView": 6,
   "componentType": 5126,
   "count": 4,
   "type": "VEC2"
  },
  {
   "bufferView": 7,
   "componentType": 5123,
   "count": 6,
   "type": "SCALAR"
  }
 ],
 "bufferViews": [
  {
   "buffer": 0,
   "byteOffset": 0,
   "byteLength": 48,
   "target": 34962
  },
  {
   "buffer": 0,
   "byteOffset": 48,
   "byteLength": 48,
   "target": 34962
  },
  {
   "buffer": 0,
   "byteOffset": 96,
   "byteLength": 32,
   "target": 34962
  },
  {
   "buffer": 0,
   "byteOffset": 128,
   "byteLength": 48,
   "target": 34962
  },
  {
   "buffer": 0,
   "byteOffset": 176,
   "byteLength": 48,
   "target": 34962
  },
  {
   "buffer": 0,
   "byteOffset": 224,
   "byteLength": 32,
   "target": 34962
  },
  {
   "buffer": 0,
   "byteOffset": 256,
   "byteLength": 32,
   "target": 34962
  },
  {
   "buffer": 0,
   "byteOffset": 288,
   "byteLength": 12,
   "target": 34963
  }
 ],
 "buffers": [
  {
   "uri": "data:application/octet-stream;base64,",
   "byteLength": 300
  }
 ]
}
