{
 "asset": {
  "version": "2.0",
  "generator": "gen_layer_vt_fixture.py"
 },
 "scene": 0,
 "scenes": [
  {
   "nodes": [
    1,
    0
   ]
  }
 ],
 "nodes": [
  {
   "name": "vt_floor",
   "mesh": 0
  },
  {
   "name": "vt_ramp",
   "mesh": 1
  }
 ],
 "meshes": [
  {
   "name": "vt_floor",
   "primitives": [
    {
     "attributes": {
      "POSITION": 0,
      "NORMAL": 1,
      "TEXCOORD_0": 4
     },
     "indices": 5,
     "material": 0
    }
   ]
  },
  {
   "name": "vt_ramp",
   "primitives": [
    {
     "attributes": {
      "POSITION": 2,
      "NORMAL": 3,
      "TEXCOORD_0": 4
     },
     "indices": 5,
     "material": 0
    }
   ]
  }
 ],
 "materials": [
  {
   "name": "layered_vt_surface",
   "pbrMetallicRoughness": {
    "baseColorFactor": [
     1.0,
     1.0,
     1.0,
     1.0
    ],
    "metallicFactor": 0.0,
    "roughnessFactor": 0.9
   }
  }
 ],
 "accessors": [
  {
   "bufferView": 0,
   "componentType": 5126,
   "count": 4,
   "type": "VEC3",
   "min": [
    -2.0,
    0.0,
    0.0
   ],
   "max": [
    2.0,
    0.0,
    2.0
   ]
  },
  {
   "bufferView": 1,
   "componentType": 5126,
   "count": 4,
   "type": "VEC3"
  },
  {
   "bufferView": 2,
   "componentType": 5126,
   "count": 4,
   "type": "VEC3",
   "min": [
    -2.0,
    0.0,
    -2.0
   ],
   "max": [
    2.0,
    2.0,
    0.0
   ]
  },
  {
   "bufferView": 3,
   "componentType": 5126,
   "count": 4,
   "type": "VEC3"
  },
  {
   "bufferView": 4,
   "componentType": 5126,
   "count": 4,
   "type": "VEC2"
  },
  {
   "bufferView": 5,
   "componentType": 5123,
   "count": 6,
   "type": "SCALAR"
  }
 ],
 "bufferViews": [
  {
   "buffer": 0,
   "byteOffset": 0,
   "byteLength": 48,
   "target": 34962
  },
  {
   "buffer": 0,
   "byteOffset": 48,
   "byteLength": 48,
   "target": 34962
  },
  {
   "buffer": 0,
   "byteOffset": 96,
   "byteLength": 48,
   "target": 34962
  },
  {
   "buffer": 0,
   "byteOffset": 144,
   "byteLength": 48,
   "target": 34962
  },
  {
   "buffer": 0,
   "byteOffset": 192,
   "byteLength": 32,
   "target": 34962
  },
  {
   "buffer": 0,
   "byteOffset": 224,
   "byteLength": 12,
   "target": 34963
  }
 ],
 "buffers": [
  {
   "uri": "data:application/octet-stream;base64,",
   "byteLength": 236
  }
 ]
}
