{
  "asset": {
    "version": "2.0",
    "generator": "gen_lod_fixture.py"
  },
  "materials": [
    {
      "name": "SphereClay",
      "pbrMetallicRoughness": {
        "baseColorFactor": [
          0.68,
          0.6,
          0.52,
          1.0
        ],
        "metallicFactor": 0.0,
        "roughnessFactor": 0.45
      }
    },
    {
      "name": "GroundSlate",
      "pbrMetallicRoughness": {
        "baseColorFactor": [
          0.3,
          0.31,
          0.33,
          1.0
        ],
        "metallicFactor": 0.0,
        "roughnessFactor": 0.9
      }
    }
  ],
  "scene": 0,
  "scenes": [
    {
      "nodes": [
        0,
        1,
        2,
        3,
        4,
        5,
        6
      ]
    }
  ],
  "nodes": [
    {
      "name": "Ground",
      "mesh": 1
    },
    {
      "name": "Sphere_00",
      "mesh": 0,
      "translation": [
        0.0,
        0.5,
        0.0
      ]
    },
    {
      "name": "Sphere_01",
      "mesh": 0,
      "translation": [
        0.0,
        0.5,
        -2.4
      ]
    },
    {
      "name": "Sphere_02",
      "mesh": 0,
      "translation": [
        0.0,
        0.5,
        -4.8
      ]
    },
    {
      "name": "Sphere_03",
      "mesh": 0,
      "translation": [
        0.0,
        0.5,
        -7.2
      ]
    },
    {
      "name": "Sphere_04",
      "mesh": 0,
      "translation": [
        0.0,
        0.5,
        -9.6
      ]
    },
    {
      "name": "Sphere_05",
      "mesh": 0,
      "translation": [
        0.0,
        0.5,
        -12.0
      ]
    }
  ],
  "meshes": [
    {
      "name": "DenseSphere",
      "primitives": [
        {
          "attributes": {
            "POSITION": 0,
            "NORMAL": 1
          },
          "indices": 2,
          "material": 0
        }
      ]
    },
    {
      "name": "GroundQuad",
      "primitives": [
        {
          "attributes": {
            "POSITION": 3,
            "NORMAL": 4
          },
          "indices": 5,
          "material": 1
        }
      ]
    }
  ],
  "accessors": [
    {
      "bufferView": 0,
      "componentType": 5126,
      "count": 1225,
      "type": "VEC3",
      "min": [
        -0.5,
        -0.5,
        -0.5
      ],
      "max": [
        0.5,
        0.5,
        0.5
      ]
    },
    {
      "bufferView": 1,
      "componentType": 5126,
      "count": 1225,
      "type": "VEC3"
    },
    {
      "bufferView": 2,
      "componentType": 5125,
      "count": 6912,
      "type": "SCALAR"
    },
    {
      "bufferView": 3,
      "componentType": 5126,
      "count": 4,
      "type": "VEC3",
      "min": [
        -12.0,
        0.0,
        -12.0
      ],
      "max": [
        12.0,
        0.0,
        12.0
      ]
    },
    {
      "bufferView": 4,
      "componentType": 5126,
      "count": 4,
      "type": "VEC3"
    },
    {
      "bufferView": 5,
      "componentType": 5125,
      "count": 6,
      "type": "SCALAR"
    }
  ],
  "bufferViews": [
    {
      "buffer": 0,
      "byteOffset": 0,
      "byteLength": 14700,
      "target": 34962
    },
    {
      "buffer": 0,
      "byteOffset": 14700,
      "byteLength": 14700,
      "target": 34962
    },
    {
      "buffer": 0,
      "byteOffset": 29400,
      "byteLength": 27648,
      "target": 34963
    },
    {
      "buffer": 0,
      "byteOffset": 57048,
      "byteLength": 48,
      "target": 34962
    },
    {
      "buffer": 0,
      "byteOffset": 57096,
      "byteLength": 48,
      "target": 34962
    },
    {
      "buffer": 0,
      "byteOffset": 57144,
      "byteLength": 24,
      "target": 34963
    }
  ],
  "buffers": [
    {
      "byteLength": 57168,
      "uri": "data:application/octet-stream;base64,"
    }
  ]
}
