{
 "asset": {
  "version": "2.0",
  "generator": "gen_mask_fixture.py"
 },
 "scene": 0,
 "scenes": [
  {
   "nodes": [
    0,
    1
   ]
  }
 ],
 "nodes": [
  {
   "name": "opaque_ref",
   "mesh": 0,
   "translation": [
    -1.35,
    0.0,
    0.0
   ]
  },
  {
   "name": "masked",
   "mesh": 1,
   "translation": [
    1.35,
    0.0,
    0.0
   ]
  }
 ],
 "meshes": [
  {
   "name": "opaque_ref",
   "primitives": [
    {
     "attributes": {
      "POSITION": 0,
      "NORMAL": 1
     },
     "indices": 3,
     "material": 0
    }
   ]
  },
  {
   "name": "masked",
   "primitives": [
    {
     "attributes": {
      "POSITION": 0,
      "NORMAL": 1,
      "COLOR_0": 2
     },
     "indices": 3,
     "material": 1
    }
   ]
  }
 ],
 "materials": [
  {
   "name": "mask_ref",
   "pbrMetallicRoughness": {
    "baseColorFactor": [
     0.55,
     0.55,
     0.58,
     1.0
    ],
    "metallicFactor": 0.0,
    "roughnessFactor": 0.6
   }
  },
  {
   "name": "mask_cut",
   "alphaMode": "MASK",
   "alphaCutoff": 0.4,
   "pbrMetallicRoughness": {
    "baseColorFactor": [
     0.55,
     0.55,
     0.58,
     1.0
    ],
    "metallicFactor": 0.0,
    "roughnessFactor": 0.6
   }
  }
 ],
 "accessors": [
  {
   "bufferView": 0,
   "componentType": 5126,
   "count": 4,
   "type": "VEC3",
   "min": [
    -1.0,
    0.0,
    0.0
   ],
   "max": [
    1.0,
    2.0,
    0.0
   ]
  },
  {
   "bufferView": 1,
   "componentType": 5126,
   "count": 4,
   "type": "VEC3"
  },
  {
   "bufferView": 2,
   "componentType": 5126,
   "count": 4,
   "type": "VEC4"
  },
  {
   "bufferView": 3,
   "componentType": 5123,
   "count": 6,
   "type": "SCALAR"
  }
 ],
 "bufferViews": [
  {
   "buffer": 0,
   "byteOffset": 0,
   "byteLength": 48,
   "target": 34962
  },
  {
   "buffer": 0,
   "byteOffset": 48,
   "byteLength": 48,
   "target": 34962
  },
  {
   "buffer": 0,
   "byteOffset": 96,
   "byteLength": 64,
   "target": 34962
  },
  {
   "buffer": 0,
   "byteOffset": 160,
   "byteLength": 12,
   "target": 34963
  }
 ],
 "buffers": [
  {
   "uri": "data:application/octet-stream;base64,",
   "byteLength": 172
  }
 ]
}
