{
 "asset": {
  "version": "2.0",
  "generator": "gen_oit_sphere_fixture.py"
 },
 "scene": 0,
 "scenes": [
  {
   "nodes": [
    0,
    1,
    2
   ]
  }
 ],
 "nodes": [
  {
   "name": "oit_red",
   "mesh": 0,
   "translation": [
    -0.7,
    1.0,
    -0.6
   ]
  },
  {
   "name": "oit_green",
   "mesh": 1,
   "translation": [
    0.0,
    1.0,
    0.0
   ]
  },
  {
   "name": "oit_blue",
   "mesh": 2,
   "translation": [
    0.7,
    1.0,
    0.6
   ]
  }
 ],
 "meshes": [
  {
   "name": "oit_red",
   "primitives": [
    {
     "attributes": {
      "POSITION": 0,
      "NORMAL": 1
     },
     "indices": 2,
     "material": 0
    }
   ]
  },
  {
   "name": "oit_green",
   "primitives": [
    {
     "attributes": {
      "POSITION": 0,
      "NORMAL": 1
     },
     "indices": 2,
     "material": 1
    }
   ]
  },
  {
   "name": "oit_blue",
   "primitives": [
    {
     "attributes": {
      "POSITION": 0,
      "NORMAL": 1
     },
     "indices": 2,
     "material": 2
    }
   ]
  }
 ],
 "materials": [
  {
   "name": "oit_red",
   "alphaMode": "BLEND",
   "doubleSided": true,
   "pbrMetallicRoughness": {
    "baseColorFactor": [
     0.85,
     0.15,
     0.15,
     0.5
    ],
    "metallicFactor": 0.0,
    "roughnessFactor": 0.5
   }
  },
  {
   "name": "oit_green",
   "alphaMode": "BLEND",
   "doubleSided": true,
   "pbrMetallicRoughness": {
    "baseColorFactor": [
     0.15,
     0.7,
     0.2,
     0.5
    ],
    "metallicFactor": 0.0,
    "roughnessFactor": 0.5
   }
  },
  {
   "name": "oit_blue",
   "alphaMode": "BLEND",
   "doubleSided": true,
   "pbrMetallicRoughness": {
    "baseColorFactor": [
     0.2,
     0.35,
     0.85,
     0.5
    ],
    "metallicFactor": 0.0,
    "roughnessFactor": 0.5
   }
  }
 ],
 "accessors": [
  {
   "bufferView": 0,
   "componentType": 5126,
   "count": 1617,
   "type": "VEC3",
   "min": [
    -0.8,
    -0.8,
    -0.8
   ],
   "max": [
    0.8,
    0.8,
    0.8
   ]
  },
  {
   "bufferView": 1,
   "componentType": 5126,
   "count": 1617,
   "type": "VEC3"
  },
  {
   "bufferView": 2,
   "componentType": 5125,
   "count": 9216,
   "type": "SCALAR"
  }
 ],
 "bufferViews": [
  {
   "buffer": 0,
   "byteOffset": 0,
   "byteLength": 19404,
   "target": 34962
  },
  {
   "buffer": 0,
   "byteOffset": 19404,
   "byteLength": 19404,
   "target": 34962
  },
  {
   "buffer": 0,
   "byteOffset": 38808,
   "byteLength": 36864,
   "target": 34963
  }
 ],
 "buffers": [
  {
   "uri": "data:application/octet-stream;base64,",
   "byteLength": 75672
  }
 ]
}
