{
 "asset": {
  "version": "2.0",
  "generator": "gen_oit_fixture.py"
 },
 "scene": 0,
 "scenes": [
  {
   "nodes": [
    0,
    1,
    2
   ]
  }
 ],
 "nodes": [
  {
   "name": "oit_red",
   "mesh": 0,
   "translation": [
    -0.35,
    1.0,
    -0.4
   ]
  },
  {
   "name": "oit_green",
   "mesh": 1,
   "translation": [
    0.0,
    1.0,
    0.0
   ]
  },
  {
   "name": "oit_blue",
   "mesh": 2,
   "translation": [
    0.35,
    1.0,
    0.4
   ]
  }
 ],
 "meshes": [
  {
   "name": "oit_red",
   "primitives": [
    {
     "attributes": {
      "POSITION": 0,
      "NORMAL": 1
     },
     "indices": 2,
     "material": 0
    }
   ]
  },
  {
   "name": "oit_green",
   "primitives": [
    {
     "attributes": {
      "POSITION": 0,
      "NORMAL": 1
     },
     "indices": 2,
     "material": 1
    }
   ]
  },
  {
   "name": "oit_blue",
   "primitives": [
    {
     "attributes": {
      "POSITION": 0,
      "NORMAL": 1
     },
     "indices": 2,
     "material": 2
    }
   ]
  }
 ],
 "materials": [
  {
   "name": "oit_red",
   "alphaMode": "BLEND",
   "doubleSided": true,
   "pbrMetallicRoughness": {
    "baseColorFactor": [
     0.85,
     0.15,
     0.15,
     0.6
    ],
    "metallicFactor": 0.0,
    "roughnessFactor": 0.7
   }
  },
  {
   "name": "oit_green",
   "alphaMode": "BLEND",
   "doubleSided": true,
   "pbrMetallicRoughness": {
    "baseColorFactor": [
     0.15,
     0.75,
     0.2,
     0.6
    ],
    "metallicFactor": 0.0,
    "roughnessFactor": 0.7
   }
  },
  {
   "name": "oit_blue",
   "alphaMode": "BLEND",
   "doubleSided": true,
   "pbrMetallicRoughness": {
    "baseColorFactor": [
     0.2,
     0.35,
     0.85,
     0.6
    ],
    "metallicFactor": 0.0,
    "roughnessFactor": 0.7
   }
  }
 ],
 "accessors": [
  {
   "bufferView": 0,
   "componentType": 5126,
   "count": 4,
   "type": "VEC3",
   "min": [
    -0.7,
    -0.7,
    0.0
   ],
   "max": [
    0.7,
    0.7,
    0.0
   ]
  },
  {
   "bufferView": 1,
   "componentType": 5126,
   "count": 4,
   "type": "VEC3"
  },
  {
   "bufferView": 2,
   "componentType": 5123,
   "count": 6,
   "type": "SCALAR"
  }
 ],
 "bufferViews": [
  {
   "buffer": 0,
   "byteOffset": 0,
   "byteLength": 48,
   "target": 34962
  },
  {
   "buffer": 0,
   "byteOffset": 48,
   "byteLength": 48,
   "target": 34962
  },
  {
   "buffer": 0,
   "byteOffset": 96,
   "byteLength": 12,
   "target": 34963
  }
 ],
 "buffers": [
  {
   "uri": "data:application/octet-stream;base64,",
   "byteLength": 108
  }
 ]
}
