{
 "asset": {
  "version": "2.0",
  "generator": "gen_puppet_fixture.py"
 },
 "scene": 0,
 "scenes": [
  {
   "nodes": [
    0
   ]
  }
 ],
 "nodes": [
  {
   "name": "puppet",
   "children": [
    1,
    2
   ]
  },
  {
   "name": "puppet_mesh",
   "mesh": 0,
   "skin": 0
  },
  {
   "name": "cetra_rig:Hips",
   "translation": [
    0.0,
    0.95,
    0.0
   ],
   "children": [
    3,
    16,
    19
   ]
  },
  {
   "name": "cetra_rig:Spine",
   "translation": [
    0.0,
    0.10000000000000009,
    0.0
   ],
   "children": [
    4
   ]
  },
  {
   "name": "cetra_rig:Spine1",
   "translation": [
    0.0,
    0.1299999999999999,
    0.0
   ],
   "children": [
    5
   ]
  },
  {
   "name": "cetra_rig:Spine2",
   "translation": [
    0.0,
    0.13000000000000012,
    0.0
   ],
   "children": [
    6,
    8,
    12
   ]
  },
  {
   "name": "cetra_rig:Neck",
   "translation": [
    0.0,
    0.18999999999999995,
    0.0
   ],
   "children": [
    7
   ]
  },
  {
   "name": "cetra_rig:Head",
   "translation": [
    0.0,
    0.08000000000000007,
    0.0
   ]
  },
  {
   "name": "cetra_rig:LeftShoulder",
   "translation": [
    0.06,
    0.1499999999999999,
    0.0
   ],
   "children": [
    9
   ]
  },
  {
   "name": "cetra_rig:LeftArm",
   "translation": [
    0.14,
    0.0,
    0.0
   ],
   "children": [
    10
   ]
  },
  {
   "name": "cetra_rig:LeftForeArm",
   "translation": [
    0.27999999999999997,
    0.0,
    0.0
   ],
   "children": [
    11
   ]
  },
  {
   "name": "cetra_rig:LeftHand",
   "translation": [
    0.26,
    0.0,
    0.0
   ]
  },
  {
   "name": "cetra_rig:RightShoulder",
   "translation": [
    -0.06,
    0.1499999999999999,
    0.0
   ],
   "children": [
    13
   ]
  },
  {
   "name": "cetra_rig:RightArm",
   "translation": [
    -0.14,
    0.0,
    0.0
   ],
   "children": [
    14
   ]
  },
  {
   "name": "cetra_rig:RightForeArm",
   "translation": [
    -0.27999999999999997,
    0.0,
    0.0
   ],
   "children": [
    15
   ]
  },
  {
   "name": "cetra_rig:RightHand",
   "translation": [
    -0.26,
    0.0,
    0.0
   ]
  },
  {
   "name": "cetra_rig:LeftUpLeg",
   "translation": [
    0.1,
    -0.04999999999999993,
    0.0
   ],
   "children": [
    17
   ]
  },
  {
   "name": "cetra_rig:LeftLeg",
   "translation": [
    0.0,
    -0.42000000000000004,
    0.0
   ],
   "children": [
    18
   ]
  },
  {
   "name": "cetra_rig:LeftFoot",
   "translation": [
    0.0,
    -0.39999999999999997,
    0.0
   ]
  },
  {
   "name": "cetra_rig:RightUpLeg",
   "translation": [
    -0.1,
    -0.04999999999999993,
    0.0
   ],
   "children": [
    20
   ]
  },
  {
   "name": "cetra_rig:RightLeg",
   "translation": [
    0.0,
    -0.42000000000000004,
    0.0
   ],
   "children": [
    21
   ]
  },
  {
   "name": "cetra_rig:RightFoot",
   "translation": [
    0.0,
    -0.39999999999999997,
    0.0
   ]
  }
 ],
 "skins": [
  {
   "inverseBindMatrices": 6,
   "joints": [
    2,
    3,
    4,
    5,
    6,
    7,
    8,
    9,
    10,
    11,
    12,
    13,
    14,
    15,
    16,
    17,
    18,
    19,
    20,
    21
   ],
   "skeleton": 2
  }
 ],
 "meshes": [
  {
   "name": "puppet_mesh",
   "primitives": [
    {
     "attributes": {
      "POSITION": 0,
      "NORMAL": 1,
      "TEXCOORD_0": 2,
      "JOINTS_0": 3,
      "WEIGHTS_0": 4
     },
     "indices": 5,
     "material": 0
    }
   ]
  }
 ],
 "animations": [
  {
   "name": "idle",
   "samplers": [
    {
     "input": 7,
     "output": 8,
     "interpolation": "LINEAR"
    },
    {
     "input": 9,
     "output": 10,
     "interpolation": "LINEAR"
    },
    {
     "input": 11,
     "output": 12,
     "interpolation": "LINEAR"
    },
    {
     "input": 13,
     "output": 14,
     "interpolation": "LINEAR"
    },
    {
     "input": 15,
     "output": 16,
     "interpolation": "LINEAR"
    }
   ],
   "channels": [
    {
     "sampler": 0,
     "target": {
      "node": 2,
      "path": "translation"
     }
    },
    {
     "sampler": 1,
     "target": {
      "node": 5,
      "path": "rotation"
     }
    },
    {
     "sampler": 2,
     "target": {
      "node": 5,
      "path": "translation"
     }
    },
    {
     "sampler": 3,
     "target": {
      "node": 7,
      "path": "rotation"
     }
    },
    {
     "sampler": 4,
     "target": {
      "node": 7,
      "path": "translation"
     }
    }
   ]
  },
  {
   "name": "walk",
   "samplers": [
    {
     "input": 17,
     "output": 18,
     "interpolation": "LINEAR"
    },
    {
     "input": 19,
     "output": 20,
     "interpolation": "LINEAR"
    },
    {
     "input": 21,
     "output": 22,
     "interpolation": "LINEAR"
    },
    {
     "input": 23,
     "output": 24,
     "interpolation": "LINEAR"
    },
    {
     "input": 25,
     "output": 26,
     "interpolation": "LINEAR"
    },
    {
     "input": 27,
     "output": 28,
     "interpolation": "LINEAR"
    },
    {
     "input": 29,
     "output": 30,
     "interpolation": "LINEAR"
    },
    {
     "input": 31,
     "output": 32,
     "interpolation": "LINEAR"
    },
    {
     "input": 33,
     "output": 34,
     "interpolation": "LINEAR"
    }
   ],
   "channels": [
    {
     "sampler": 0,
     "target": {
      "node": 2,
      "path": "translation"
     }
    },
    {
     "sampler": 1,
     "target": {
      "node": 9,
      "path": "rotation"
     }
    },
    {
     "sampler": 2,
     "target": {
      "node": 9,
      "path": "translation"
     }
    },
    {
     "sampler": 3,
     "target": {
      "node": 13,
      "path": "rotation"
     }
    },
    {
     "sampler": 4,
     "target": {
      "node": 13,
      "path": "translation"
     }
    },
    {
     "sampler": 5,
     "target": {
      "node": 16,
      "path": "rotation"
     }
    },
    {
     "sampler": 6,
     "target": {
      "node": 16,
      "path": "translation"
     }
    },
    {
     "sampler": 7,
     "target": {
      "node": 19,
      "path": "rotation"
     }
    },
    {
     "sampler": 8,
     "target": {
      "node": 19,
      "path": "translation"
     }
    }
   ]
  },
  {
   "name": "run",
   "samplers": [
    {
     "input": 35,
     "output": 36,
     "interpolation": "LINEAR"
    },
    {
     "input": 37,
     "output": 38,
     "interpolation": "LINEAR"
    },
    {
     "input": 39,
     "output": 40,
     "interpolation": "LINEAR"
    },
    {
     "input": 41,
     "output": 42,
     "interpolation": "LINEAR"
    },
    {
     "input": 43,
     "output": 44,
     "interpolation": "LINEAR"
    },
    {
     "input": 45,
     "output": 46,
     "interpolation": "LINEAR"
    },
    {
     "input": 47,
     "output": 48,
     "interpolation": "LINEAR"
    },
    {
     "input": 49,
     "output": 50,
     "interpolation": "LINEAR"
    },
    {
     "input": 51,
     "output": 52,
     "interpolation": "LINEAR"
    }
   ],
   "channels": [
    {
     "sampler": 0,
     "target": {
      "node": 2,
      "path": "translation"
     }
    },
    {
     "sampler": 1,
     "target": {
      "node": 9,
      "path": "rotation"
     }
    },
    {
     "sampler": 2,
     "target": {
      "node": 9,
      "path": "translation"
     }
    },
    {
     "sampler": 3,
     "target": {
      "node": 13,
      "path": "rotation"
     }
    },
    {
     "sampler": 4,
     "target": {
      "node": 13,
      "path": "translation"
     }
    },
    {
     "sampler": 5,
     "target": {
      "node": 16,
      "path": "rotation"
     }
    },
    {
     "sampler": 6,
     "target": {
      "node": 16,
      "path": "translation"
     }
    },
    {
     "sampler": 7,
     "target": {
      "node": 19,
      "path": "rotation"
     }
    },
    {
     "sampler": 8,
     "target": {
      "node": 19,
      "path": "translation"
     }
    }
   ]
  },
  {
   "name": "jump",
   "samplers": [
    {
     "input": 53,
     "output": 54,
     "interpolation": "LINEAR"
    },
    {
     "input": 55,
     "output": 56,
     "interpolation": "LINEAR"
    },
    {
     "input": 57,
     "output": 58,
     "interpolation": "LINEAR"
    },
    {
     "input": 59,
     "output": 60,
     "interpolation": "LINEAR"
    },
    {
     "input": 61,
     "output": 62,
     "interpolation": "LINEAR"
    },
    {
     "input": 63,
     "output": 64,
     "interpolation": "LINEAR"
    },
    {
     "input": 65,
     "output": 66,
     "interpolation": "LINEAR"
    },
    {
     "input": 67,
     "output": 68,
     "interpolation": "LINEAR"
    },
    {
     "input": 69,
     "output": 70,
     "interpolation": "LINEAR"
    },
    {
     "input": 71,
     "output": 72,
     "interpolation": "LINEAR"
    },
    {
     "input": 73,
     "output": 74,
     "interpolation": "LINEAR"
    },
    {
     "input": 75,
     "output": 76,
     "interpolation": "LINEAR"
    }
   ],
   "channels": [
    {
     "sampler": 0,
     "target": {
      "node": 9,
      "path": "rotation"
     }
    },
    {
     "sampler": 1,
     "target": {
      "node": 9,
      "path": "translation"
     }
    },
    {
     "sampler": 2,
     "target": {
      "node": 13,
      "path": "rotation"
     }
    },
    {
     "sampler": 3,
     "target": {
      "node": 13,
      "path": "translation"
     }
    },
    {
     "sampler": 4,
     "target": {
      "node": 16,
      "path": "rotation"
     }
    },
    {
     "sampler": 5,
     "target": {
      "node": 16,
      "path": "translation"
     }
    },
    {
     "sampler": 6,
     "target": {
      "node": 17,
      "path": "rotation"
     }
    },
    {
     "sampler": 7,
     "target": {
      "node": 17,
      "path": "translation"
     }
    },
    {
     "sampler": 8,
     "target": {
      "node": 19,
      "path": "rotation"
     }
    },
    {
     "sampler": 9,
     "target": {
      "node": 19,
      "path": "translation"
     }
    },
    {
     "sampler": 10,
     "target": {
      "node": 20,
      "path": "rotation"
     }
    },
    {
     "sampler": 11,
     "target": {
      "node": 20,
      "path": "translation"
     }
    }
   ]
  },
  {
   "name": "wave",
   "samplers": [
    {
     "input": 77,
     "output": 78,
     "interpolation": "LINEAR"
    },
    {
     "input": 79,
     "output": 80,
     "interpolation": "LINEAR"
    },
    {
     "input": 81,
     "output": 82,
     "interpolation": "LINEAR"
    },
    {
     "input": 83,
     "output": 84,
     "interpolation": "LINEAR"
    }
   ],
   "channels": [
    {
     "sampler": 0,
     "target": {
      "node": 13,
      "path": "rotation"
     }
    },
    {
     "sampler": 1,
     "target": {
      "node": 13,
      "path": "translation"
     }
    },
    {
     "sampler": 2,
     "target": {
      "node": 14,
      "path": "rotation"
     }
    },
    {
     "sampler": 3,
     "target": {
      "node": 14,
      "path": "translation"
     }
    }
   ]
  },
  {
   "name": "hold90",
   "samplers": [
    {
     "input": 85,
     "output": 86,
     "interpolation": "LINEAR"
    },
    {
     "input": 87,
     "output": 88,
     "interpolation": "LINEAR"
    }
   ],
   "channels": [
    {
     "sampler": 0,
     "target": {
      "node": 10,
      "path": "rotation"
     }
    },
    {
     "sampler": 1,
     "target": {
      "node": 10,
      "path": "translation"
     }
    }
   ]
  },
  {
   "name": "rest",
   "samplers": [
    {
     "input": 89,
     "output": 90,
     "interpolation": "LINEAR"
    },
    {
     "input": 91,
     "output": 92,
     "interpolation": "LINEAR"
    }
   ],
   "channels": [
    {
     "sampler": 0,
     "target": {
      "node": 2,
      "path": "rotation"
     }
    },
    {
     "sampler": 1,
     "target": {
      "node": 2,
      "path": "translation"
     }
    }
   ]
  }
 ],
 "materials": [
  {
   "name": "puppet_wood",
   "pbrMetallicRoughness": {
    "baseColorFactor": [
     0.75,
     0.55,
     0.32,
     1.0
    ],
    "metallicFactor": 0.0,
    "roughnessFactor": 0.7
   }
  }
 ],
 "accessors": [
  {
   "bufferView": 0,
   "componentType": 5126,
   "count": 480,
   "type": "VEC3",
   "min": [
    -0.8600000000000001,
    0.0,
    -0.12
   ],
   "max": [
    0.8600000000000001,
    1.8,
    0.12
   ]
  },
  {
   "bufferView": 1,
   "componentType": 5126,
   "count": 480,
   "type": "VEC3"
  },
  {
   "bufferView": 2,
   "componentType": 5126,
   "count": 480,
   "type": "VEC2"
  },
  {
   "bufferView": 3,
   "componentType": 5123,
   "count": 480,
   "type": "VEC4"
  },
  {
   "bufferView": 4,
   "componentType": 5126,
   "count": 480,
   "type": "VEC4"
  },
  {
   "bufferView": 5,
   "componentType": 5123,
   "count": 720,
   "type": "SCALAR"
  },
  {
   "bufferView": 6,
   "componentType": 5126,
   "count": 20,
   "type": "MAT4"
  },
  {
   "bufferView": 7,
   "componentType": 5126,
   "count": 9,
   "type": "SCALAR",
   "min": [
    0.0
   ],
   "max": [
    2.0
   ]
  },
  {
   "bufferView": 8,
   "componentType": 5126,
   "count": 9,
   "type": "VEC3"
  },
  {
   "bufferView": 9,
   "componentType": 5126,
   "count": 9,
   "type": "SCALAR",
   "min": [
    0.0
   ],
   "max": [
    2.0
   ]
  },
  {
   "bufferView": 10,
   "componentType": 5126,
   "count": 9,
   "type": "VEC4"
  },
  {
   "bufferView": 11,
   "componentType": 5126,
   "count": 2,
   "type": "SCALAR",
   "min": [
    0.0
   ],
   "max": [
    2.0
   ]
  },
  {
   "bufferView": 12,
   "componentType": 5126,
   "count": 2,
   "type": "VEC3"
  },
  {
   "bufferView": 13,
   "componentType": 5126,
   "count": 9,
   "type": "SCALAR",
   "min": [
    0.0
   ],
   "max": [
    2.0
   ]
  },
  {
   "bufferView": 14,
   "componentType": 5126,
   "count": 9,
   "type": "VEC4"
  },
  {
   "bufferView": 15,
   "componentType": 5126,
   "count": 2,
   "type": "SCALAR",
   "min": [
    0.0
   ],
   "max": [
    2.0
   ]
  },
  {
   "bufferView": 16,
   "componentType": 5126,
   "count": 2,
   "type": "VEC3"
  },
  {
   "bufferView": 17,
   "componentType": 5126,
   "count": 9,
   "type": "SCALAR",
   "min": [
    0.0
   ],
   "max": [
    1.0
   ]
  },
  {
   "bufferView": 18,
   "componentType": 5126,
   "count": 9,
   "type": "VEC3"
  },
  {
   "bufferView": 19,
   "componentType": 5126,
   "count": 9,
   "type": "SCALAR",
   "min": [
    0.0
   ],
   "max": [
    1.0
   ]
  },
  {
   "bufferView": 20,
   "componentType": 5126,
   "count": 9,
   "type": "VEC4"
  },
  {
   "bufferView": 21,
   "componentType": 5126,
   "count": 2,
   "type": "SCALAR",
   "min": [
    0.0
   ],
   "max": [
    1.0
   ]
  },
  {
   "bufferView": 22,
   "componentType": 5126,
   "count": 2,
   "type": "VEC3"
  },
  {
   "bufferView": 23,
   "componentType": 5126,
   "count": 9,
   "type": "SCALAR",
   "min": [
    0.0
   ],
   "max": [
    1.0
   ]
  },
  {
   "bufferView": 24,
   "componentType": 5126,
   "count": 9,
   "type": "VEC4"
  },
  {
   "bufferView": 25,
   "componentType": 5126,
   "count": 2,
   "type": "SCALAR",
   "min": [
    0.0
   ],
   "max": [
    1.0
   ]
  },
  {
   "bufferView": 26,
   "componentType": 5126,
   "count": 2,
   "type": "VEC3"
  },
  {
   "bufferView": 27,
   "componentType": 5126,
   "count": 9,
   "type": "SCALAR",
   "min": [
    0.0
   ],
   "max": [
    1.0
   ]
  },
  {
   "bufferView": 28,
   "componentType": 5126,
   "count": 9,
   "type": "VEC4"
  },
  {
   "bufferView": 29,
   "componentType": 5126,
   "count": 2,
   "type": "SCALAR",
   "min": [
    0.0
   ],
   "max": [
    1.0
   ]
  },
  {
   "bufferView": 30,
   "componentType": 5126,
   "count": 2,
   "type": "VEC3"
  },
  {
   "bufferView": 31,
   "componentType": 5126,
   "count": 9,
   "type": "SCALAR",
   "min": [
    0.0
   ],
   "max": [
    1.0
   ]
  },
  {
   "bufferView": 32,
   "componentType": 5126,
   "count": 9,
   "type": "VEC4"
  },
  {
   "bufferView": 33,
   "componentType": 5126,
   "count": 2,
   "type": "SCALAR",
   "min": [
    0.0
   ],
   "max": [
    1.0
   ]
  },
  {
   "bufferView": 34,
   "componentType": 5126,
   "count": 2,
   "type": "VEC3"
  },
  {
   "bufferView": 35,
   "componentType": 5126,
   "count": 9,
   "type": "SCALAR",
   "min": [
    0.0
   ],
   "max": [
    0.5
   ]
  },
  {
   "bufferView": 36,
   "componentType": 5126,
   "count": 9,
   "type": "VEC3"
  },
  {
   "bufferView": 37,
   "componentType": 5126,
   "count": 9,
   "type": "SCALAR",
   "min": [
    0.0
   ],
   "max": [
    0.5
   ]
  },
  {
   "bufferView": 38,
   "componentType": 5126,
   "count": 9,
   "type": "VEC4"
  },
  {
   "bufferView": 39,
   "componentType": 5126,
   "count": 2,
   "type": "SCALAR",
   "min": [
    0.0
   ],
   "max": [
    0.5
   ]
  },
  {
   "bufferView": 40,
   "componentType": 5126,
   "count": 2,
   "type": "VEC3"
  },
  {
   "bufferView": 41,
   "componentType": 5126,
   "count": 9,
   "type": "SCALAR",
   "min": [
    0.0
   ],
   "max": [
    0.5
   ]
  },
  {
   "bufferView": 42,
   "componentType": 5126,
   "count": 9,
   "type": "VEC4"
  },
  {
   "bufferView": 43,
   "componentType": 5126,
   "count": 2,
   "type": "SCALAR",
   "min": [
    0.0
   ],
   "max": [
    0.5
   ]
  },
  {
   "bufferView": 44,
   "componentType": 5126,
   "count": 2,
   "type": "VEC3"
  },
  {
   "bufferView": 45,
   "componentType": 5126,
   "count": 9,
   "type": "SCALAR",
   "min": [
    0.0
   ],
   "max": [
    0.5
   ]
  },
  {
   "bufferView": 46,
   "componentType": 5126,
   "count": 9,
   "type": "VEC4"
  },
  {
   "bufferView": 47,
   "componentType": 5126,
   "count": 2,
   "type": "SCALAR",
   "min": [
    0.0
   ],
   "max": [
    0.5
   ]
  },
  {
   "bufferView": 48,
   "componentType": 5126,
   "count": 2,
   "type": "VEC3"
  },
  {
   "bufferView": 49,
   "componentType": 5126,
   "count": 9,
   "type": "SCALAR",
   "min": [
    0.0
   ],
   "max": [
    0.5
   ]
  },
  {
   "bufferView": 50,
   "componentType": 5126,
   "count": 9,
   "type": "VEC4"
  },
  {
   "bufferView": 51,
   "componentType": 5126,
   "count": 2,
   "type": "SCALAR",
   "min": [
    0.0
   ],
   "max": [
    0.5
   ]
  },
  {
   "bufferView": 52,
   "componentType": 5126,
   "count": 2,
   "type": "VEC3"
  },
  {
   "bufferView": 53,
   "componentType": 5126,
   "count": 4,
   "type": "SCALAR",
   "min": [
    0.0
   ],
   "max": [
    1.0
   ]
  },
  {
   "bufferView": 54,
   "componentType": 5126,
   "count": 4,
   "type": "VEC4"
  },
  {
   "bufferView": 55,
   "componentType": 5126,
   "count": 2,
   "type": "SCALAR",
   "min": [
    0.0
   ],
   "max": [
    1.0
   ]
  },
  {
   "bufferView": 56,
   "componentType": 5126,
   "count": 2,
   "type": "VEC3"
  },
  {
   "bufferView": 57,
   "componentType": 5126,
   "count": 4,
   "type": "SCALAR",
   "min": [
    0.0
   ],
   "max": [
    1.0
   ]
  },
  {
   "bufferView": 58,
   "componentType": 5126,
   "count": 4,
   "type": "VEC4"
  },
  {
   "bufferView": 59,
   "componentType": 5126,
   "count": 2,
   "type": "SCALAR",
   "min": [
    0.0
   ],
   "max": [
    1.0
   ]
  },
  {
   "bufferView": 60,
   "componentType": 5126,
   "count": 2,
   "type": "VEC3"
  },
  {
   "bufferView": 61,
   "componentType": 5126,
   "count": 4,
   "type": "SCALAR",
   "min": [
    0.0
   ],
   "max": [
    1.0
   ]
  },
  {
   "bufferView": 62,
   "componentType": 5126,
   "count": 4,
   "type": "VEC4"
  },
  {
   "bufferView": 63,
   "componentType": 5126,
   "count": 2,
   "type": "SCALAR",
   "min": [
    0.0
   ],
   "max": [
    1.0
   ]
  },
  {
   "bufferView": 64,
   "componentType": 5126,
   "count": 2,
   "type": "VEC3"
  },
  {
   "bufferView": 65,
   "componentType": 5126,
   "count": 4,
   "type": "SCALAR",
   "min": [
    0.0
   ],
   "max": [
    1.0
   ]
  },
  {
   "bufferView": 66,
   "componentType": 5126,
   "count": 4,
   "type": "VEC4"
  },
  {
   "bufferView": 67,
   "componentType": 5126,
   "count": 2,
   "type": "SCALAR",
   "min": [
    0.0
   ],
   "max": [
    1.0
   ]
  },
  {
   "bufferView": 68,
   "componentType": 5126,
   "count": 2,
   "type": "VEC3"
  },
  {
   "bufferView": 69,
   "componentType": 5126,
   "count": 4,
   "type": "SCALAR",
   "min": [
    0.0
   ],
   "max": [
    1.0
   ]
  },
  {
   "bufferView": 70,
   "componentType": 5126,
   "count": 4,
   "type": "VEC4"
  },
  {
   "bufferView": 71,
   "componentType": 5126,
   "count": 2,
   "type": "SCALAR",
   "min": [
    0.0
   ],
   "max": [
    1.0
   ]
  },
  {
   "bufferView": 72,
   "componentType": 5126,
   "count": 2,
   "type": "VEC3"
  },
  {
   "bufferView": 73,
   "componentType": 5126,
   "count": 4,
   "type": "SCALAR",
   "min": [
    0.0
   ],
   "max": [
    1.0
   ]
  },
  {
   "bufferView": 74,
   "componentType": 5126,
   "count": 4,
   "type": "VEC4"
  },
  {
   "bufferView": 75,
   "componentType": 5126,
   "count": 2,
   "type": "SCALAR",
   "min": [
    0.0
   ],
   "max": [
    1.0
   ]
  },
  {
   "bufferView": 76,
   "componentType": 5126,
   "count": 2,
   "type": "VEC3"
  },
  {
   "bufferView": 77,
   "componentType": 5126,
   "count": 4,
   "type": "SCALAR",
   "min": [
    0.0
   ],
   "max": [
    1.0
   ]
  },
  {
   "bufferView": 78,
   "componentType": 5126,
   "count": 4,
   "type": "VEC4"
  },
  {
   "bufferView": 79,
   "componentType": 5126,
   "count": 2,
   "type": "SCALAR",
   "min": [
    0.0
   ],
   "max": [
    1.0
   ]
  },
  {
   "bufferView": 80,
   "componentType": 5126,
   "count": 2,
   "type": "VEC3"
  },
  {
   "bufferView": 81,
   "componentType": 5126,
   "count": 7,
   "type": "SCALAR",
   "min": [
    0.0
   ],
   "max": [
    1.0
   ]
  },
  {
   "bufferView": 82,
   "componentType": 5126,
   "count": 7,
   "type": "VEC4"
  },
  {
   "bufferView": 83,
   "componentType": 5126,
   "count": 2,
   "type": "SCALAR",
   "min": [
    0.0
   ],
   "max": [
    1.0
   ]
  },
  {
   "bufferView": 84,
   "componentType": 5126,
   "count": 2,
   "type": "VEC3"
  },
  {
   "bufferView": 85,
   "componentType": 5126,
   "count": 3,
   "type": "SCALAR",
   "min": [
    0.0
   ],
   "max": [
    4.0
   ]
  },
  {
   "bufferView": 86,
   "componentType": 5126,
   "count": 3,
   "type": "VEC4"
  },
  {
   "bufferView": 87,
   "componentType": 5126,
   "count": 2,
   "type": "SCALAR",
   "min": [
    0.0
   ],
   "max": [
    4.0
   ]
  },
  {
   "bufferView": 88,
   "componentType": 5126,
   "count": 2,
   "type": "VEC3"
  },
  {
   "bufferView": 89,
   "componentType": 5126,
   "count": 2,
   "type": "SCALAR",
   "min": [
    0.0
   ],
   "max": [
    4.0
   ]
  },
  {
   "bufferView": 90,
   "componentType": 5126,
   "count": 2,
   "type": "VEC4"
  },
  {
   "bufferView": 91,
   "componentType": 5126,
   "count": 2,
   "type": "SCALAR",
   "min": [
    0.0
   ],
   "max": [
    4.0
   ]
  },
  {
   "bufferView": 92,
   "componentType": 5126,
   "count": 2,
   "type": "VEC3"
  }
 ],
 "bufferViews": [
  {
   "buffer": 0,
   "byteOffset": 0,
   "byteLength": 5760,
   "target": 34962
  },
  {
   "buffer": 0,
   "byteOffset": 5760,
   "byteLength": 5760,
   "target": 34962
  },
  {
   "buffer": 0,
   "byteOffset": 11520,
   "byteLength": 3840,
   "target": 34962
  },
  {
   "buffer": 0,
   "byteOffset": 15360,
   "byteLength": 3840,
   "target": 34962
  },
  {
   "buffer": 0,
   "byteOffset": 19200,
   "byteLength": 7680,
   "target": 34962
  },
  {
   "buffer": 0,
   "byteOffset": 26880,
   "byteLength": 1440,
   "target": 34963
  },
  {
   "buffer": 0,
   "byteOffset": 28320,
   "byteLength": 1280
  },
  {
   "buffer": 0,
   "byteOffset": 29600,
   "byteLength": 36
  },
  {
   "buffer": 0,
   "byteOffset": 29636,
   "byteLength": 108
  },
  {
   "buffer": 0,
   "byteOffset": 29744,
   "byteLength": 36
  },
  {
   "buffer": 0,
   "byteOffset": 29780,
   "byteLength": 144
  },
  {
   "buffer": 0,
   "byteOffset": 29924,
   "byteLength": 8
  },
  {
   "buffer": 0,
   "byteOffset": 29932,
   "byteLength": 24
  },
  {
   "buffer": 0,
   "byteOffset": 29956,
   "byteLength": 36
  },
  {
   "buffer": 0,
   "byteOffset": 29992,
   "byteLength": 144
  },
  {
   "buffer": 0,
   "byteOffset": 30136,
   "byteLength": 8
  },
  {
   "buffer": 0,
   "byteOffset": 30144,
   "byteLength": 24
  },
  {
   "buffer": 0,
   "byteOffset": 30168,
   "byteLength": 36
  },
  {
   "buffer": 0,
   "byteOffset": 30204,
   "byteLength": 108
  },
  {
   "buffer": 0,
   "byteOffset": 30312,
   "byteLength": 36
  },
  {
   "buffer": 0,
   "byteOffset": 30348,
   "byteLength": 144
  },
  {
   "buffer": 0,
   "byteOffset": 30492,
   "byteLength": 8
  },
  {
   "buffer": 0,
   "byteOffset": 30500,
   "byteLength": 24
  },
  {
   "buffer": 0,
   "byteOffset": 30524,
   "byteLength": 36
  },
  {
   "buffer": 0,
   "byteOffset": 30560,
   "byteLength": 144
  },
  {
   "buffer": 0,
   "byteOffset": 30704,
   "byteLength": 8
  },
  {
   "buffer": 0,
   "byteOffset": 30712,
   "byteLength": 24
  },
  {
   "buffer": 0,
   "byteOffset": 30736,
   "byteLength": 36
  },
  {
   "buffer": 0,
   "byteOffset": 30772,
   "byteLength": 144
  },
  {
   "buffer": 0,
   "byteOffset": 30916,
   "byteLength": 8
  },
  {
   "buffer": 0,
   "byteOffset": 30924,
   "byteLength": 24
  },
  {
   "buffer": 0,
   "byteOffset": 30948,
   "byteLength": 36
  },
  {
   "buffer": 0,
   "byteOffset": 30984,
   "byteLength": 144
  },
  {
   "buffer": 0,
   "byteOffset": 31128,
   "byteLength": 8
  },
  {
   "buffer": 0,
   "byteOffset": 31136,
   "byteLength": 24
  },
  {
   "buffer": 0,
   "byteOffset": 31160,
   "byteLength": 36
  },
  {
   "buffer": 0,
   "byteOffset": 31196,
   "byteLength": 108
  },
  {
   "buffer": 0,
   "byteOffset": 31304,
   "byteLength": 36
  },
  {
   "buffer": 0,
   "byteOffset": 31340,
   "byteLength": 144
  },
  {
   "buffer": 0,
   "byteOffset": 31484,
   "byteLength": 8
  },
  {
   "buffer": 0,
   "byteOffset": 31492,
   "byteLength": 24
  },
  {
   "buffer": 0,
   "byteOffset": 31516,
   "byteLength": 36
  },
  {
   "buffer": 0,
   "byteOffset": 31552,
   "byteLength": 144
  },
  {
   "buffer": 0,
   "byteOffset": 31696,
   "byteLength": 8
  },
  {
   "buffer": 0,
   "byteOffset": 31704,
   "byteLength": 24
  },
  {
   "buffer": 0,
   "byteOffset": 31728,
   "byteLength": 36
  },
  {
   "buffer": 0,
   "byteOffset": 31764,
   "byteLength": 144
  },
  {
   "buffer": 0,
   "byteOffset": 31908,
   "byteLength": 8
  },
  {
   "buffer": 0,
   "byteOffset": 31916,
   "byteLength": 24
  },
  {
   "buffer": 0,
   "byteOffset": 31940,
   "byteLength": 36
  },
  {
   "buffer": 0,
   "byteOffset": 31976,
   "byteLength": 144
  },
  {
   "buffer": 0,
   "byteOffset": 32120,
   "byteLength": 8
  },
  {
   "buffer": 0,
   "byteOffset": 32128,
   "byteLength": 24
  },
  {
   "buffer": 0,
   "byteOffset": 32152,
   "byteLength": 16
  },
  {
   "buffer": 0,
   "byteOffset": 32168,
   "byteLength": 64
  },
  {
   "buffer": 0,
   "byteOffset": 32232,
   "byteLength": 8
  },
  {
   "buffer": 0,
   "byteOffset": 32240,
   "byteLength": 24
  },
  {
   "buffer": 0,
   "byteOffset": 32264,
   "byteLength": 16
  },
  {
   "buffer": 0,
   "byteOffset": 32280,
   "byteLength": 64
  },
  {
   "buffer": 0,
   "byteOffset": 32344,
   "byteLength": 8
  },
  {
   "buffer": 0,
   "byteOffset": 32352,
   "byteLength": 24
  },
  {
   "buffer": 0,
   "byteOffset": 32376,
   "byteLength": 16
  },
  {
   "buffer": 0,
   "byteOffset": 32392,
   "byteLength": 64
  },
  {
   "buffer": 0,
   "byteOffset": 32456,
   "byteLength": 8
  },
  {
   "buffer": 0,
   "byteOffset": 32464,
   "byteLength": 24
  },
  {
   "buffer": 0,
   "byteOffset": 32488,
   "byteLength": 16
  },
  {
   "buffer": 0,
   "byteOffset": 32504,
   "byteLength": 64
  },
  {
   "buffer": 0,
   "byteOffset": 32568,
   "byteLength": 8
  },
  {
   "buffer": 0,
   "byteOffset": 32576,
   "byteLength": 24
  },
  {
   "buffer": 0,
   "byteOffset": 32600,
   "byteLength": 16
  },
  {
   "buffer": 0,
   "byteOffset": 32616,
   "byteLength": 64
  },
  {
   "buffer": 0,
   "byteOffset": 32680,
   "byteLength": 8
  },
  {
   "buffer": 0,
   "byteOffset": 32688,
   "byteLength": 24
  },
  {
   "buffer": 0,
   "byteOffset": 32712,
   "byteLength": 16
  },
  {
   "buffer": 0,
   "byteOffset": 32728,
   "byteLength": 64
  },
  {
   "buffer": 0,
   "byteOffset": 32792,
   "byteLength": 8
  },
  {
   "buffer": 0,
   "byteOffset": 32800,
   "byteLength": 24
  },
  {
   "buffer": 0,
   "byteOffset": 32824,
   "byteLength": 16
  },
  {
   "buffer": 0,
   "byteOffset": 32840,
   "byteLength": 64
  },
  {
   "buffer": 0,
   "byteOffset": 32904,
   "byteLength": 8
  },
  {
   "buffer": 0,
   "byteOffset": 32912,
   "byteLength": 24
  },
  {
   "buffer": 0,
   "byteOffset": 32936,
   "byteLength": 28
  },
  {
   "buffer": 0,
   "byteOffset": 32964,
   "byteLength": 112
  },
  {
   "buffer": 0,
   "byteOffset": 33076,
   "byteLength": 8
  },
  {
   "buffer": 0,
   "byteOffset": 33084,
   "byteLength": 24
  },
  {
   "buffer": 0,
   "byteOffset": 33108,
   "byteLength": 12
  },
  {
   "buffer": 0,
   "byteOffset": 33120,
   "byteLength": 48
  },
  {
   "buffer": 0,
   "byteOffset": 33168,
   "byteLength": 8
  },
  {
   "buffer": 0,
   "byteOffset": 33176,
   "byteLength": 24
  },
  {
   "buffer": 0,
   "byteOffset": 33200,
   "byteLength": 8
  },
  {
   "buffer": 0,
   "byteOffset": 33208,
   "byteLength": 32
  },
  {
   "buffer": 0,
   "byteOffset": 33240,
   "byteLength": 8
  },
  {
   "buffer": 0,
   "byteOffset": 33248,
   "byteLength": 24
  }
 ],
 "buffers": [
  {
   "uri": "data:application/octet-stream;base64,",
   "byteLength": 33272
  }
 ]
}
