{
  "asset": {
    "version": "2.0",
    "generator": "gen_skinned_instance_fixture.py"
  },
  "materials": [
    {
      "name": "QuadWarm",
      "doubleSided": true,
      "pbrMetallicRoughness": {
        "baseColorFactor": [
          0.78,
          0.62,
          0.44,
          1.0
        ],
        "metallicFactor": 0.0,
        "roughnessFactor": 0.55
      }
    }
  ],
  "scene": 0,
  "scenes": [
    {
      "nodes": [
        0,
        1,
        2
      ]
    }
  ],
  "nodes": [
    {
      "name": "Joint_Root"
    },
    {
      "name": "SkinnedQuad_A",
      "mesh": 0,
      "skin": 0,
      "translation": [
        -0.55,
        0.0,
        0.0
      ]
    },
    {
      "name": "SkinnedQuad_B",
      "mesh": 0,
      "skin": 0,
      "translation": [
        0.55,
        0.0,
        0.0
      ]
    }
  ],
  "skins": [
    {
      "joints": [
        0
      ],
      "inverseBindMatrices": 5
    }
  ],
  "meshes": [
    {
      "name": "SkinnedQuad",
      "primitives": [
        {
          "attributes": {
            "POSITION": 0,
            "NORMAL": 1,
            "JOINTS_0": 3,
            "WEIGHTS_0": 4
          },
          "indices": 2,
          "material": 0
        }
      ]
    }
  ],
  "accessors": [
    {
      "bufferView": 0,
      "componentType": 5126,
      "count": 1089,
      "type": "VEC3",
      "min": [
        -0.4,
        -0.4,
        0.0
      ],
      "max": [
        0.4,
        0.4,
        0.0
      ]
    },
    {
      "bufferView": 1,
      "componentType": 5126,
      "count": 1089,
      "type": "VEC3"
    },
    {
      "bufferView": 2,
      "componentType": 5125,
      "count": 6144,
      "type": "SCALAR"
    },
    {
      "bufferView": 3,
      "componentType": 5123,
      "count": 1089,
      "type": "VEC4"
    },
    {
      "bufferView": 4,
      "componentType": 5126,
      "count": 1089,
      "type": "VEC4"
    },
    {
      "bufferView": 5,
      "componentType": 5126,
      "count": 1,
      "type": "MAT4"
    }
  ],
  "bufferViews": [
    {
      "buffer": 0,
      "byteOffset": 0,
      "byteLength": 13068,
      "target": 34962
    },
    {
      "buffer": 0,
      "byteOffset": 13068,
      "byteLength": 13068,
      "target": 34962
    },
    {
      "buffer": 0,
      "byteOffset": 26136,
      "byteLength": 24576,
      "target": 34963
    },
    {
      "buffer": 0,
      "byteOffset": 50712,
      "byteLength": 8712,
      "target": 34962
    },
    {
      "buffer": 0,
      "byteOffset": 59424,
      "byteLength": 17424,
      "target": 34962
    },
    {
      "buffer": 0,
      "byteOffset": 76848,
      "byteLength": 64
    }
  ],
  "buffers": [
    {
      "byteLength": 76912,
      "uri": "data:application/octet-stream;base64,"
    }
  ]
}
