{
 "asset": {
  "version": "2.0",
  "generator": "gen_skin_curvature_fixture.py"
 },
 "scene": 0,
 "scenes": [
  {
   "nodes": [
    0,
    1,
    2,
    3
   ]
  }
 ],
 "nodes": [
  {
   "name": "curv_r050",
   "mesh": 0,
   "translation": [
    -3.6,
    0.0,
    0.0
   ],
   "scale": [
    0.5,
    0.5,
    0.5
   ]
  },
  {
   "name": "curv_r100",
   "mesh": 0,
   "translation": [
    -1.7,
    0.0,
    0.0
   ],
   "scale": [
    1.0,
    1.0,
    1.0
   ]
  },
  {
   "name": "curv_r200",
   "mesh": 0,
   "translation": [
    1.7,
    0.0,
    0.0
   ],
   "scale": [
    2.0,
    2.0,
    2.0
   ]
  },
  {
   "name": "curv_ellipsoid",
   "mesh": 1,
   "translation": [
    0.0,
    3.0,
    0.0
   ]
  }
 ],
 "meshes": [
  {
   "name": "curv_sphere",
   "primitives": [
    {
     "attributes": {
      "POSITION": 0,
      "NORMAL": 1
     },
     "indices": 4,
     "material": 0
    }
   ]
  },
  {
   "name": "curv_ellipsoid",
   "primitives": [
    {
     "attributes": {
      "POSITION": 2,
      "NORMAL": 3
     },
     "indices": 4,
     "material": 0
    }
   ]
  }
 ],
 "materials": [
  {
   "name": "skin",
   "pbrMetallicRoughness": {
    "baseColorFactor": [
     0.5,
     0.5,
     0.5,
     1.0
    ],
    "metallicFactor": 0.0,
    "roughnessFactor": 0.5
   }
  }
 ],
 "accessors": [
  {
   "bufferView": 0,
   "componentType": 5126,
   "count": 4753,
   "type": "VEC3",
   "min": [
    -1.0,
    -1.0,
    -1.0
   ],
   "max": [
    1.0,
    1.0,
    1.0
   ]
  },
  {
   "bufferView": 1,
   "componentType": 5126,
   "count": 4753,
   "type": "VEC3"
  },
  {
   "bufferView": 2,
   "componentType": 5126,
   "count": 4753,
   "type": "VEC3",
   "min": [
    -2.2,
    -0.85,
    -0.85
   ],
   "max": [
    2.2,
    0.85,
    0.85
   ]
  },
  {
   "bufferView": 3,
   "componentType": 5126,
   "count": 4753,
   "type": "VEC3"
  },
  {
   "bufferView": 4,
   "componentType": 5125,
   "count": 27648,
   "type": "SCALAR"
  }
 ],
 "bufferViews": [
  {
   "buffer": 0,
   "byteOffset": 0,
   "byteLength": 57036,
   "target": 34962
  },
  {
   "buffer": 0,
   "byteOffset": 57036,
   "byteLength": 57036,
   "target": 34962
  },
  {
   "buffer": 0,
   "byteOffset": 114072,
   "byteLength": 57036,
   "target": 34962
  },
  {
   "buffer": 0,
   "byteOffset": 171108,
   "byteLength": 57036,
   "target": 34962
  },
  {
   "buffer": 0,
   "byteOffset": 228144,
   "byteLength": 110592,
   "target": 34963
  }
 ],
 "buffers": [
  {
   "uri": "data:application/octet-stream;base64,",
   "byteLength": 338736
  }
 ]
}
