{
 "asset": {
  "version": "2.0",
  "generator": "gen_sss_fixture.py"
 },
 "scene": 0,
 "scenes": [
  {
   "nodes": [
    0,
    1
   ]
  }
 ],
 "nodes": [
  {
   "name": "sss_skin_a",
   "mesh": 0,
   "translation": [
    -0.9,
    1.0,
    0.0
   ]
  },
  {
   "name": "sss_skin_b",
   "mesh": 1,
   "translation": [
    0.9,
    1.0,
    0.0
   ]
  }
 ],
 "meshes": [
  {
   "name": "sss_skin_a",
   "primitives": [
    {
     "attributes": {
      "POSITION": 0,
      "NORMAL": 1
     },
     "indices": 2,
     "material": 0
    }
   ]
  },
  {
   "name": "sss_skin_b",
   "primitives": [
    {
     "attributes": {
      "POSITION": 0,
      "NORMAL": 1
     },
     "indices": 2,
     "material": 1
    }
   ]
  }
 ],
 "materials": [
  {
   "name": "sss_skin_a",
   "pbrMetallicRoughness": {
    "baseColorFactor": [
     0.62,
     0.44,
     0.36,
     1.0
    ],
    "metallicFactor": 0.0,
    "roughnessFactor": 0.6
   }
  },
  {
   "name": "sss_skin_b",
   "pbrMetallicRoughness": {
    "baseColorFactor": [
     0.42,
     0.52,
     0.48,
     1.0
    ],
    "metallicFactor": 0.0,
    "roughnessFactor": 0.6
   }
  }
 ],
 "accessors": [
  {
   "bufferView": 0,
   "componentType": 5126,
   "count": 4753,
   "type": "VEC3",
   "min": [
    -1.0,
    -1.0,
    -1.0
   ],
   "max": [
    1.0,
    1.0,
    1.0
   ]
  },
  {
   "bufferView": 1,
   "componentType": 5126,
   "count": 4753,
   "type": "VEC3"
  },
  {
   "bufferView": 2,
   "componentType": 5125,
   "count": 27648,
   "type": "SCALAR"
  }
 ],
 "bufferViews": [
  {
   "buffer": 0,
   "byteOffset": 0,
   "byteLength": 57036,
   "target": 34962
  },
  {
   "buffer": 0,
   "byteOffset": 57036,
   "byteLength": 57036,
   "target": 34962
  },
  {
   "buffer": 0,
   "byteOffset": 114072,
   "byteLength": 110592,
   "target": 34963
  }
 ],
 "buffers": [
  {
   "uri": "data:application/octet-stream;base64,",
   "byteLength": 224664
  }
 ]
}
