{
 "asset": {
  "version": "2.0",
  "generator": "gen_varying_fixture.py"
 },
 "scene": 0,
 "scenes": [
  {
   "nodes": [
    0,
    1,
    2
   ]
  }
 ],
 "nodes": [
  {
   "name": "backdrop",
   "mesh": 1
  },
  {
   "name": "uv_control",
   "mesh": 2
  },
  {
   "name": "fins",
   "mesh": 0
  }
 ],
 "meshes": [
  {
   "name": "fins",
   "primitives": [
    {
     "attributes": {
      "POSITION": 0,
      "NORMAL": 1,
      "TEXCOORD_0": 2,
      "COLOR_0": 3
     },
     "indices": 4,
     "material": 0
    }
   ]
  },
  {
   "name": "backdrop",
   "primitives": [
    {
     "attributes": {
      "POSITION": 5,
      "NORMAL": 6,
      "TEXCOORD_0": 7
     },
     "indices": 10,
     "material": 1
    }
   ]
  },
  {
   "name": "uv_control",
   "primitives": [
    {
     "attributes": {
      "POSITION": 8,
      "NORMAL": 6,
      "TEXCOORD_0": 9
     },
     "indices": 10,
     "material": 2
    }
   ]
  }
 ],
 "materials": [
  {
   "name": "vary_fin",
   "pbrMetallicRoughness": {
    "baseColorFactor": [
     0.62,
     0.62,
     0.62,
     1.0
    ],
    "metallicFactor": 0.0,
    "roughnessFactor": 0.45
   }
  },
  {
   "name": "vary_backdrop",
   "pbrMetallicRoughness": {
    "baseColorFactor": [
     0.05,
     0.06,
     0.09,
     1.0
    ],
    "metallicFactor": 0.0,
    "roughnessFactor": 0.9
   }
  },
  {
   "name": "vary_uv_control",
   "pbrMetallicRoughness": {
    "baseColorFactor": [
     0.4,
     0.4,
     0.45,
     1.0
    ],
    "metallicFactor": 0.0,
    "roughnessFactor": 0.6
   }
  }
 ],
 "accessors": [
  {
   "bufferView": 0,
   "componentType": 5126,
   "count": 96,
   "type": "VEC3",
   "min": [
    -0.6749774669577386,
    -0.00093651648353978,
    -0.023
   ],
   "max": [
    0.6749774669577386,
    0.9998673283153701,
    -0.0
   ]
  },
  {
   "bufferView": 1,
   "componentType": 5126,
   "count": 96,
   "type": "VEC3"
  },
  {
   "bufferView": 2,
   "componentType": 5126,
   "count": 96,
   "type": "VEC2"
  },
  {
   "bufferView": 3,
   "componentType": 5126,
   "count": 96,
   "type": "VEC4"
  },
  {
   "bufferView": 4,
   "componentType": 5123,
   "count": 144,
   "type": "SCALAR"
  },
  {
   "bufferView": 5,
   "componentType": 5126,
   "count": 4,
   "type": "VEC3",
   "min": [
    -2.6,
    -1.5,
    -1.0
   ],
   "max": [
    2.6,
    2.5,
    -1.0
   ]
  },
  {
   "bufferView": 6,
   "componentType": 5126,
   "count": 4,
   "type": "VEC3"
  },
  {
   "bufferView": 7,
   "componentType": 5126,
   "count": 4,
   "type": "VEC2"
  },
  {
   "bufferView": 8,
   "componentType": 5126,
   "count": 4,
   "type": "VEC3",
   "min": [
    -1.05,
    0.03,
    -0.3
   ],
   "max": [
    -0.78,
    0.3,
    -0.3
   ]
  },
  {
   "bufferView": 9,
   "componentType": 5126,
   "count": 4,
   "type": "VEC2"
  },
  {
   "bufferView": 10,
   "componentType": 5123,
   "count": 6,
   "type": "SCALAR"
  }
 ],
 "bufferViews": [
  {
   "buffer": 0,
   "byteOffset": 0,
   "byteLength": 1152,
   "target": 34962
  },
  {
   "buffer": 0,
   "byteOffset": 1152,
   "byteLength": 1152,
   "target": 34962
  },
  {
   "buffer": 0,
   "byteOffset": 2304,
   "byteLength": 768,
   "target": 34962
  },
  {
   "buffer": 0,
   "byteOffset": 3072,
   "byteLength": 1536,
   "target": 34962
  },
  {
   "buffer": 0,
   "byteOffset": 4608,
   "byteLength": 288,
   "target": 34963
  },
  {
   "buffer": 0,
   "byteOffset": 4896,
   "byteLength": 48,
   "target": 34962
  },
  {
   "buffer": 0,
   "byteOffset": 4944,
   "byteLength": 48,
   "target": 34962
  },
  {
   "buffer": 0,
   "byteOffset": 4992,
   "byteLength": 32,
   "target": 34962
  },
  {
   "buffer": 0,
   "byteOffset": 5024,
   "byteLength": 48,
   "target": 34962
  },
  {
   "buffer": 0,
   "byteOffset": 5072,
   "byteLength": 32,
   "target": 34962
  },
  {
   "buffer": 0,
   "byteOffset": 5104,
   "byteLength": 12,
   "target": 34963
  }
 ],
 "buffers": [
  {
   "uri": "data:application/octet-stream;base64,",
   "byteLength": 5116
  }
 ]
}
